<svg width="132" height="124" viewBox="0 0 132 124" fill="none" xmlns="http://www.w3.org/2000/svg">
<path d="M31.6562 118.567C36.7084 120.601 42.1896 121.807 47.9447 122.008C55.7335 122.28 63.1403 120.67 69.7616 117.611C61.8214 114.492 54.6303 109.929 48.4929 104.257C44.5147 110.627 38.6305 115.658 31.6562 118.567Z" fill="#FF9100"/>
<path d="M48.4943 104.259C34.4847 91.302 25.9858 72.5484 26.7041 51.979C26.7274 51.311 26.7626 50.6435 26.8039 49.9762C24.2948 49.3273 21.6753 48.9313 18.9796 48.8371C15.121 48.7024 11.3843 49.181 7.85647 50.1744C4.11667 56.7255 1.85982 64.242 1.57867 72.2932C0.85308 93.0713 13.4273 111.227 31.6575 118.569C38.6319 115.66 44.5158 110.635 48.4943 104.259Z" fill="#FFC400"/>
<path d="M48.4937 104.258C51.7509 99.0459 53.7258 92.9348 53.9557 86.3506C54.5605 69.0316 42.9175 54.133 26.8033 49.9757C26.762 50.643 26.7268 51.3105 26.7035 51.9785C25.9852 72.5479 34.484 91.3015 48.4937 104.258Z" fill="#FF9100"/>
<path d="M52.1523 1.29291C42.9747 8.64534 35.7275 18.3402 31.3428 29.5084C28.8325 35.9054 27.255 42.7768 26.7944 49.9798C42.9087 54.1372 54.5517 69.0358 53.9469 86.3548C53.7169 92.939 51.7363 99.044 48.4849 104.263C54.622 109.941 61.8134 114.497 69.7535 117.616C85.691 110.249 96.9986 94.3967 97.6534 75.6462C98.0777 63.4978 93.4101 52.6704 86.8147 43.5311C79.8495 33.8654 52.1523 1.29291 52.1523 1.29291Z" fill="#DD2C00"/>
<g filter="url(#filter0_d_47_3677)">
<circle cx="100" cy="90.4678" r="30" fill="white"/>
<path d="M98.2285 96.8083L107.762 87.9103L105.358 85.6663L98.2285 92.3203L94.684 89.0128L92.2795 91.2568L98.2285 96.8083ZM100 106.968C96.091 106.048 92.863 103.956 90.319 100.687C87.7735 97.4188 86.5 93.7903 86.5 89.8003V80.1928L100 75.4678L113.5 80.1928V89.8003C113.5 93.7903 112.228 97.4203 109.682 100.687C107.137 103.956 103.909 106.05 100 106.968ZM100 103.66C102.925 102.793 105.344 101.061 107.256 98.4628C109.17 95.8648 110.125 92.9773 110.125 89.8003V82.3588L100 78.8128L89.875 82.3588V89.8003C89.875 92.9758 90.832 95.8648 92.743 98.4628C94.657 101.062 97.075 102.795 100 103.66Z" fill="#1F1F1F"/>
</g>
<defs>
<filter id="filter0_d_47_3677" x="68" y="59.1382" width="64" height="64" filterUnits="userSpaceOnUse" color-interpolation-filters="sRGB">
<feFlood flood-opacity="0" result="BackgroundImageFix"/>
<feColorMatrix in="SourceAlpha" type="matrix" values="0 0 0 0 0 0 0 0 0 0 0 0 0 0 0 0 0 0 127 0" result="hardAlpha"/>
<feOffset dy="0.670408"/>
<feGaussianBlur stdDeviation="1"/>
<feComposite in2="hardAlpha" operator="out"/>
<feColorMatrix type="matrix" values="0 0 0 0 0 0 0 0 0 0 0 0 0 0 0 0 0 0 0.3 0"/>
<feBlend mode="normal" in2="BackgroundImageFix" result="effect1_dropShadow_47_3677"/>
<feBlend mode="normal" in="SourceGraphic" in2="effect1_dropShadow_47_3677" result="shape"/>
</filter>
</defs>
</svg>
