<svg enable-background="new 0 0 674 720" viewBox="0 0 674 720" xmlns="http://www.w3.org/2000/svg"><path d="m120.023 391.565v116.42c0 24.846-5.12 43.717 56.329 43.717h28.354v-149.301l-57.428-26.806z" fill="#768fa5"/><path d="m128.095 181.177c15.831 0 28.782 12.963 28.782 28.806v66.462h37.981c13.121 0 23.855 10.745 23.855 23.877 0 9.473-5.6 17.679-13.639 21.531 10.586 2.432 18.551 11.95 18.551 23.256 0 13.027-10.567 23.689-23.544 23.859 8.42 4.286 14.235 13.029 14.235 23.084 0 14.245-11.645 25.9-25.878 25.9h-57.057c-.936 0-1.858-.058-2.77-.156-.173.003-.341.027-.515.027-15.829 0-28.78-12.963-28.78-28.806v-179.034c-.001-15.843 12.95-28.806 28.779-28.806z" fill="#ffd7c5"/><path d="m565.719 484.472v46.09h-373.813v-37.678c0-27.15 12.203-48.778 26.426-66.049 0 0 17.486-21.214 23.93-25.706 7.657-5.343 21.974-14.297 29.556-17.135 10.629-4.006 20.331-12.144 27.17-12.144l77.952-48.411 81.683 48.411c29.219 0 107.096 36.97 107.096 112.622z" fill="#768fa5"/><path d="m312.956 363.277s-35.146 7.664-36.208 11.108c-1.062 3.443 89.664 121.267 89.664 121.267s9.687 7.555 16.588 6.786 16.166-12.554 16.166-12.554l80.716-111.081-48.736-23.203-48.145-53.872z" fill="#fff"/><path d="m483.707 248.828v-11.018c0-49.634-51.733-97.019-106.618-97.019-54.884 0-106.617 47.385-106.617 97.019v11.182c-18.971 1.741-33.831 17.703-33.831 37.144 0 20.027 15.768 36.365 35.556 37.266 9.398 43.424 55.886 81.203 104.892 81.203 48.99 0 95.465-37.754 104.884-81.16h1.734c20.588 0 37.277-16.704 37.277-37.309 0-20.606-16.689-37.308-37.277-37.308z" fill="#ffd7c5"/><path d="m144.398 713.38v-227.731c0-18.145 14.697-32.855 32.827-32.855h397.837c18.13 0 32.827 14.711 32.827 32.855v227.731z" fill="#9e9e9f"/><path d="m144.398 678.405h456.915v30.973h-456.915z" fill="#888"/><g fill="#fff"><path d="m628.657 299.565-3.37-9.46c-5.295-14.865-15.141-26.711-27.496-33.081l-7.864-4.055 7.864-4.055c12.355-6.37 22.201-18.216 27.496-33.081l3.37-9.46 3.369 9.46c5.296 14.865 15.141 26.711 27.496 33.081l7.864 4.055-7.864 4.055c-12.355 6.37-22.2 18.216-27.496 33.081z"/><path d="m99.315 98.326-3.37-9.46c-5.295-14.864-15.141-26.71-27.496-33.08l-7.864-4.055 7.864-4.055c12.355-6.37 22.201-18.216 27.496-33.081l3.37-9.46 3.37 9.46c5.295 14.865 15.14 26.711 27.495 33.081l7.864 4.055-7.864 4.055c-12.355 6.37-22.2 18.216-27.495 33.081z"/><path d="m43.862 546.908-3.37-9.46c-5.295-14.865-15.14-26.709-27.496-33.081l-7.864-4.055 7.864-4.055c12.356-6.37 22.201-18.214 27.496-33.081l3.37-9.46 3.369 9.46c5.296 14.866 15.141 26.711 27.496 33.081l7.864 4.055-7.864 4.055c-12.355 6.371-22.2 18.216-27.496 33.081z"/></g><g fill="#231815"><path d="m222.583 286.663c-2.879-5.773-7.501-10.11-12.682-13.018-5.2-2.911-11.004-4.475-16.77-4.693l-.131-.004h-53.431c-3.653 0-6.615 2.964-6.615 6.62s2.962 6.62 6.615 6.62h53.139c2.418.093 4.941.581 7.301 1.441 3.581 1.297 6.74 3.426 8.891 6.088 1.082 1.335 1.93 2.801 2.524 4.438.591 1.639.934 3.457.935 5.554.001 3.938-1.243 8.966-4.816 15.131-.436.751-.696 1.553-.814 2.363-1.695-.315-3.433-.502-5.214-.501h-32.89c-3.653 0-6.615 2.964-6.615 6.62s2.962 6.62 6.615 6.62h32.89c4.256.002 8.1 1.73 10.938 4.562 2.83 2.841 4.556 6.688 4.558 10.948-.001 4.261-1.728 8.107-4.557 10.949-2.839 2.832-6.682 4.56-10.939 4.561h-32.89c-3.653 0-6.615 2.964-6.615 6.62s2.962 6.62 6.615 6.62h32.89c7.904.002 15.116-3.249 20.292-8.439 5.186-5.18 8.434-12.399 8.432-20.31.001-7.911-3.247-15.129-8.432-20.31-1.045-1.047-2.192-1.991-3.391-2.87.2-.25.402-.498.567-.783h-.001c4.467-7.696 6.603-15.015 6.605-21.779.006-4.772-1.087-9.214-3.004-13.048z"/><path d="m153.247 183.798c-6.398-6.413-15.306-10.4-25.079-10.397-9.774-.003-18.682 3.984-25.08 10.397-6.408 6.403-10.391 15.319-10.388 25.1v167.103c-.003 14.566 5.918 27.814 15.458 37.353 1.424 1.426 2.939 2.761 4.521 4.018v110.07c-.003 8.426 3.432 16.115 8.952 21.629 4.024 4.035 9.215 6.938 14.997 8.219v149.47h-54.036c-3.653 0-6.615 2.964-6.615 6.62s2.962 6.62 6.615 6.62h60.644c.003 0 .005.001.007.001s.004-.001.007-.001h463.476c.003 0 .005.001.007.001s.004-.001.007-.001h60.645c3.652 0 6.614-2.964 6.614-6.62s-2.961-6.62-6.614-6.62h-54.037l-.001-221.111c.003-10.88-4.425-20.79-11.552-27.913-7.116-7.133-17.018-11.566-27.889-11.563h-12.266c-3.485-11.174-9.082-21.093-15.785-29.73-11.559-14.879-26.353-26.055-39.979-33.909-6.819-3.925-13.353-7.013-19.109-9.295-5.774-2.281-10.698-3.761-14.659-4.457-3.6-.625-7.023 1.789-7.647 5.392-.624 3.602 1.787 7.029 5.387 7.653h-.001c1.711.294 4.236.942 7.222 1.949 5.24 1.76 11.945 4.605 19.111 8.502 10.761 5.843 22.582 14.066 32.496 24.481 8.025 8.426 14.783 18.231 18.982 29.415h-107.087l37.682-50.962c2.173-2.939 1.554-7.084-1.382-9.259s-7.078-1.555-9.251 1.383l-43.505 58.838h-27.634v-19.219h-42.985v19.219h-27.634l-43.506-58.838c-.192-.259-.415-.477-.635-.7 7.009-2.979 12.481-4.303 15.41-4.809.831-.144 1.59-.452 2.271-.863 4.498 3.879 9.287 7.468 14.335 10.696 18.039 11.52 39.296 18.596 61.251 18.603 14.631-.001 28.967-3.155 42.232-8.662 19.898-8.271 37.431-21.808 50.126-38.314 6.344-8.256 11.475-17.265 15.033-26.758.952-2.539 1.781-5.117 2.5-7.72 10.031-1.149 19.063-5.708 25.825-12.484 7.878-7.875 12.77-18.822 12.767-30.849.003-12.028-4.889-22.975-12.767-30.849-4.501-4.51-10.008-8.036-16.145-10.233v-1.819c14.557-1.947 28.793-16.59 27.831-23.366-1.105-7.779-24.8-11.235-34.26-30.569h-.027c-.856-2.463-1.761-4.903-2.774-7.289-8.913-20.989-23.751-38.844-42.402-51.486-9.326-6.319-19.61-11.335-30.585-14.77-10.972-3.437-22.636-5.289-34.684-5.288-.15-.362-.587-.342-1.267 0h-4.075c-5.026 0-9.974.358-14.845.983-26.457.727-73.026-.001-103.143-11.86-5.196-2.045-11.065 1.3-11.856 6.832-1.936 13.53 3.32 29.848 7.839 40.747 2.017 4.863-2.439 9.913-7.513 8.526l-8.03-2.192c-6.002-1.641-11.79 3.292-11.086 9.478 1.209 10.62 4.074 26.573 10.858 42.745 7.903 18.842 15.977 33.572 19.562 39.827-5.608 2.215-10.655 5.547-14.831 9.732-7.878 7.875-12.77 18.822-12.767 30.849-.003 12.027 4.889 22.974 12.767 30.849 6.768 6.782 15.809 11.343 25.852 12.487 1.613 5.843 3.8 11.551 6.543 17.038 4.372 8.738 10.069 16.946 16.784 24.403-6.253 1.728-14.846 4.902-24.703 10.627-13.871 8.057-30.148 21.173-45.464 42.169-2.155 2.953-1.51 7.095 1.441 9.251 2.95 2.156 7.088 1.511 9.243-1.442 14.238-19.506 29.046-31.329 41.423-38.529.047-.027.092-.052.139-.079.154 1.038.527 2.057 1.195 2.96l37.682 50.962h-99.791c.241-.687.398-1.415.398-2.185v-26.984c1.057-1.009 2.077-2.063 3.02-3.199 2.438-2.943 4.454-6.316 5.851-10.059 1.399-3.74 2.169-7.843 2.168-12.167.001-4.14-.701-8.471-2.15-12.905-1.135-3.475-4.87-5.371-8.342-4.235s-5.366 4.874-4.231 8.349c1.051 3.225 1.494 6.144 1.495 8.791-.005 3.689-.845 6.878-2.306 9.744-2.187 4.28-5.893 7.862-10.468 10.377-4.559 2.515-9.937 3.894-15.018 3.886h-34.551c-8.374-.003-16.102-2.597-22.488-7.027-.001 0-.001-.001-.002-.001-1.958-1.359-3.794-2.883-5.478-4.567-7.168-7.185-11.581-17.039-11.584-27.991v-167.099c.003-6.167 2.479-11.69 6.514-15.739 4.045-4.038 9.563-6.516 15.726-6.52 6.161.003 11.679 2.481 15.725 6.52 4.035 4.049 6.511 9.571 6.514 15.739v48.784c0 3.656 2.961 6.62 6.615 6.62 3.653 0 6.615-2.964 6.615-6.62h-.001v-48.784c.002-9.781-3.982-18.697-10.39-25.1zm121.437 123.129c0-3.489-2.827-6.318-6.312-6.318-3.486 0-6.312 2.828-6.312 6.318 0 2.877.192 5.737.502 8.581-5.517-1.381-10.45-4.208-14.362-8.117-5.614-5.628-9.066-13.336-9.069-21.913.003-8.579 3.456-16.287 9.069-21.915 2.129-2.127 4.559-3.941 7.218-5.378v21.704h1.162c10.561 0 19.122-8.568 19.122-19.138l33.49-33.176c5.115-5.066 13.749-.873 12.939 6.282-.967 8.548 7.076 15.304 15.324 12.888 11.93-3.493 28.139-10.445 42.147-24.165 10.494-10.278 16.409-19.981 20.158-28.817 2.446-5.767 10.493-6.233 13.583-.785 13.462 23.727 39.021 47.904 60.936 58.916v8.857c0 10.57 8.56 19.138 19.121 19.138h1.162v-21.703c2.659 1.437 5.088 3.25 7.217 5.377 5.613 5.628 9.066 13.336 9.069 21.915-.003 8.577-3.455 16.285-9.069 21.913-3.908 3.905-8.835 6.73-14.346 8.113.309-2.843.486-5.702.486-8.577 0-3.489-2.827-6.318-6.313-6.318s-6.312 2.828-6.312 6.318h-.001c.001 11.303-2.947 22.61-8.274 33.272-7.978 15.989-21.344 30.452-37.574 40.811-16.228 10.373-35.247 16.625-54.456 16.618-12.812.001-25.525-2.768-37.395-7.697-17.806-7.383-33.675-19.652-44.957-34.346-5.644-7.344-10.144-15.283-13.22-23.492-3.077-8.213-4.733-16.686-4.733-25.166zm-124.827 399.833v-21.735h450.263v21.735zm442.586-239.662c4.754 4.769 7.674 11.286 7.677 18.551v186.136h-450.263v-186.136c.003-7.265 2.923-13.783 7.677-18.551 4.765-4.758 11.276-7.681 18.536-7.684h397.837c7.26.003 13.771 2.926 18.536 7.684zm-412.412-38.271c4.937-.002 9.879-.862 14.571-2.493.734-.256 1.46-.542 2.183-.837v18.491c0 .77.157 1.498.398 2.185h-21.113c-10.871-.003-20.774 4.429-27.889 11.563-7.127 7.123-11.555 17.033-11.552 27.913v57.831c-2.121-.877-4.031-2.162-5.644-3.77-3.147-3.16-5.074-7.456-5.077-12.268v-102.385c6.059 2.424 12.664 3.772 19.573 3.77z"/><ellipse cx="334.162" cy="264.737" rx="11.757" ry="11.767"/><path d="m415.816 276.505c6.466 0 11.757-5.295 11.757-11.767s-5.291-11.767-11.757-11.767-11.758 5.295-11.758 11.767 5.291 11.767 11.758 11.767z"/><path d="m368.895 306.808h13.207c1.667 0 3.019-1.355 3.019-3.023 0-1.67-1.352-3.023-3.019-3.023h-8.828c-2.076 0-3.978-1.163-4.925-3.013l-.794-1.549c-.683-1.335-2.699-.849-2.699.652v5.913c0 2.232 1.809 4.043 4.039 4.043z"/><path d="m409.386 236.224h12.859c2.93 0 5.328-2.399 5.328-5.332s-2.397-5.332-5.328-5.332h-12.859c-2.93 0-5.329 2.399-5.329 5.332.001 2.933 2.399 5.332 5.329 5.332z"/><path d="m595.441 261.59c11.031 5.675 20.102 16.446 25.013 30.24l3.37 9.46c.728 2.045 2.664 3.411 4.833 3.411s4.104-1.366 4.832-3.411l3.369-9.46c4.912-13.794 13.983-24.564 25.013-30.24l7.864-4.055c1.702-.878 2.782-2.648 2.782-4.565s-1.079-3.688-2.782-4.565l-7.864-4.055c-11.03-5.675-20.101-16.446-25.013-30.24l-3.369-9.46c-.729-2.045-2.663-3.411-4.832-3.411s-4.105 1.365-4.833 3.411l-3.37 9.46c-4.911 13.794-13.982 24.565-25.013 30.24l-7.864 4.055c-1.703.878-2.782 2.648-2.782 4.565s1.079 3.687 2.782 4.565zm33.215-40.286c5.794 13.852 15.44 25.087 27.59 31.666-12.15 6.578-21.796 17.813-27.59 31.665-5.793-13.852-15.441-25.087-27.589-31.665 12.149-6.579 21.796-17.813 27.589-31.666z"/><path d="m58.235 56.296 7.864 4.055c11.031 5.676 20.102 16.446 25.013 30.24l3.37 9.46c.728 2.045 2.664 3.411 4.833 3.411s4.104-1.366 4.832-3.411l3.37-9.46c4.911-13.794 13.982-24.565 25.012-30.24l7.864-4.055c1.702-.878 2.782-2.648 2.782-4.565s-1.079-3.688-2.782-4.565l-7.864-4.055c-11.03-5.675-20.101-16.446-25.012-30.24l-3.37-9.46c-.729-2.045-2.663-3.411-4.832-3.411s-4.105 1.365-4.833 3.411l-3.37 9.46c-4.911 13.794-13.982 24.565-25.013 30.24l-7.864 4.055c-1.703.878-2.782 2.648-2.782 4.565s1.079 3.687 2.782 4.565zm41.08-36.232c5.792 13.852 15.439 25.087 27.589 31.666-12.15 6.579-21.797 17.814-27.589 31.666-5.793-13.853-15.441-25.088-27.59-31.667 12.15-6.577 21.797-17.812 27.59-31.665z"/><path d="m39.028 548.633c.728 2.045 2.664 3.411 4.833 3.411s4.104-1.366 4.832-3.411l3.369-9.46c4.912-13.794 13.982-24.563 25.014-30.24l7.864-4.055c1.702-.878 2.782-2.648 2.782-4.565s-1.079-3.688-2.782-4.565l-7.864-4.055c-11.031-5.676-20.101-16.444-25.013-30.24l-3.369-9.46c-.729-2.045-2.663-3.411-4.832-3.411s-4.105 1.365-4.833 3.411l-3.37 9.46c-4.911 13.796-13.981 24.564-25.013 30.24l-7.864 4.055c-1.703.877-2.782 2.647-2.782 4.564s1.079 3.687 2.782 4.565l7.864 4.055c11.032 5.677 20.102 16.446 25.013 30.24zm-22.757-48.321c12.15-6.578 21.797-17.812 27.59-31.666 5.793 13.853 15.441 25.087 27.59 31.666-12.149 6.58-21.796 17.813-27.59 31.665-5.793-13.851-15.44-25.085-27.59-31.665z"/><path d="m349.397 341.183c2.249 1.401 4.754 1.344 5.99.193 12.387 5.867 26.814 5.867 39.201 0 1.231 1.144 3.738 1.217 5.993-.193 2.751-1.706 3.746-4.719 2.421-6.294-1.347-1.681-2.691-3.363-4.038-5.043-1.333-1.589-3.841-1.69-5.733-.52-1.572.983-2.46 2.684-2.291 4.326-10.078 4.775-21.819 4.775-31.899 0 .168-1.647-.717-3.348-2.294-4.326-1.896-1.177-4.407-1.064-5.733.52-1.347 1.681-2.691 3.363-4.038 5.043-1.326 1.576-.328 4.585 2.421 6.294z"/></g></svg>