<svg enable-background="new 0 0 488 720" viewBox="0 0 488 720" xmlns="http://www.w3.org/2000/svg"><path d="m262.958 720h-92.694l42.522-37.7 2.443-2.177z" fill="#6c859b"/><path d="m388.239 451.743v148.908 119.349h-381.899v-156.536s0-14.16 0-79.578c0-37.789 11.37-68.64 27.486-92.676 0 0 1.753-1.965 4.516-5.009 6.553-7.257 18.773-20.691 26.583-28.674 2.356-2.407 4.321-4.319 5.596-5.416 8.679-7.434 17.728-13.009 26.318-16.974 12.042-5.575 23.129-8.018 30.886-8.018 55.025-30.957 122.093-31.611 177.72-1.735l3.241 1.735c5.685 0 11.777.567 17.957 2.053 29.754 7.134 61.596 35.365 61.596 122.571z" fill="#768fa5"/><path d="m134.047 323.037s-32.044 10.929-33.213 14.715c-1.168 3.785 98.718 133.318 98.718 133.318s10.666 8.305 18.263 7.46c7.598-.845 17.798-13.802 17.798-13.802l106.57-138.732-60.476-23.222c-37.488-26.344-88.148-23.616-122.587 6.601z" fill="#fff"/><path d="m119.808 352.023c-7.792 2.442-14.912 5.452-21.447 8.938-54.246 28.868-66.784 89.702-66.784 122.057v236.982h-23.518v-156.624s0-14.16 0-79.578c0-37.789 11.37-68.64 27.485-92.676 0 0 1.488-1.664 3.897-4.319 6.075-6.743 18.011-19.877 26.105-28.231 2.851-2.938 5.224-5.292 6.694-6.549 8.678-7.434 17.728-13.009 26.317-16.974z" fill="#8aa3b9"/><path d="m339.698 174.758v-12.848c0-57.887-60.423-113.152-124.527-113.152s-124.527 55.265-124.527 113.152v13.041c-22.158 2.031-39.514 20.645-39.514 43.319 0 23.359 18.417 42.414 41.529 43.463 10.975 50.646 65.275 94.707 122.512 94.707 57.219 0 111.5-44.032 122.501-94.656h2.026c24.045 0 43.538-19.482 43.538-43.515 0-24.029-19.493-43.511-43.538-43.511z" fill="#ffd7c5"/><path d="m395.309 363.62c16.729 20.825 47.824 68.797 66.18 147.221 18.357 78.425 25.038 103.626 9.096 122.004-15.942 18.377-34.504 35.059-82.34 34.675-29.662-.237-77.267 0-77.267 0l31.205-268.272z" fill="#768fa5"/><path d="m385.248 354.163 23.87 313.363-194.22-.007s-.375 17.594-34.372 11.736c-33.995-5.858-43.077-32.165-38.537-48.887 4.542-16.721 23.015-40.505 23.015-40.505l-66.452-254.819s36.028-9.187 39.072-5.882c3.046 3.303 128.868 223.986 128.868 223.986l62.799-232.103z" fill="#fff"/><g fill="#231815"><path d="m71.885 502.152c-4.268 0-7.721 3.451-7.721 7.717v210.131h15.444v-210.131c-.001-4.266-3.455-7.717-7.723-7.717zm-32.391-115.314c-.018-.017-.036-.017-.054-.035-.355-.23-.726-.443-1.098-.602-3.382-1.505-7.438-.407-9.563 2.761-16.86 25.134-28.779 57.577-28.779 96.888v.089 79.56 154.501h15.444v-154.501s0-14.142 0-79.56c.017-36.232 10.838-65.472 26.175-88.375 2.372-3.557 1.417-8.354-2.125-10.726z"/><path d="m223.273 700.215c0-5.59-4.533-10.122-10.126-10.122s-10.126 4.532-10.126 10.122c0 5.588 4.533 10.12 10.126 10.12s10.126-4.531 10.126-10.12z"/><path d="m167.486 218.271c7.553 0 13.731-6.176 13.731-13.722v-.002c0-7.548-6.179-13.724-13.731-13.724-7.554 0-13.733 6.176-13.733 13.724v.002c0 7.546 6.179 13.722 13.733 13.722z"/><path d="m262.855 218.271c7.552 0 13.731-6.176 13.731-13.722v-.002c0-7.548-6.179-13.724-13.731-13.724-7.554 0-13.733 6.176-13.733 13.724v.002c0 7.546 6.18 13.722 13.733 13.722z"/><path d="m208.053 253.614h15.424c1.948 0 3.527-1.578 3.527-3.526 0-1.946-1.579-3.524-3.527-3.524h-10.31c-2.426 0-4.647-1.359-5.754-3.516l-.925-1.805c-.799-1.559-3.153-.99-3.153.759v6.897c.001 2.604 2.112 4.715 4.718 4.715z"/><path d="m255.345 160.83h15.021c3.422 0 6.221-2.8 6.221-6.219 0-3.421-2.799-6.221-6.221-6.221h-15.021c-3.422 0-6.223 2.8-6.223 6.221 0 3.419 2.801 6.219 6.223 6.219z"/><path d="m194.271 297.239c1.987 0 3.668-1.331 4.197-3.155h33.4c.527 1.82 2.21 3.155 4.199 3.155 2.411 0 4.372-1.96 4.372-4.37v-7.538c0-2.408-1.961-4.368-4.372-4.368-1.985 0-3.667 1.331-4.197 3.156h-33.398c-.527-1.822-2.211-3.156-4.201-3.156-2.41 0-4.37 1.96-4.37 4.368v7.538c0 2.41 1.96 4.37 4.37 4.37z"/><path d="m375.579 356.598c.859.606 1.602 1.143 2.24 1.612l23.861 301.589h-156.29l88.681-324.91c10.668 3.846 20.185 8.596 27.757 12.959 5.85 3.367 10.548 6.49 13.751 8.75zm-110.289 171.614-28.776-48.266 66.441-89.729zm53.986-197.792-6.972 25.543c-2.103.202-4.119 1.233-5.475 3.065l-71.553 96.634v-62.402h-40.757v16.248l-34.927-58.581c17.208 8.134 36.159 12.876 55.579 12.883 17.089-.001 33.832-3.679 49.326-10.102 16.96-7.039 32.437-17.361 45.333-29.902.661 2.827 2.875 5.17 5.905 5.811 1.189.251 2.368.52 3.541.803zm-215.731-57.781c-3.594-9.577-5.528-19.46-5.528-29.35 0-4.07-3.302-7.369-7.373-7.369-4.072 0-7.373 3.299-7.373 7.369 0 3.173.21 6.327.534 9.466-5.613-1.763-10.63-4.855-14.71-8.925-6.556-6.564-10.589-15.554-10.592-25.559.003-10.004 4.036-18.994 10.592-25.558 1.934-1.929 4.099-3.608 6.417-5.061v24.102h1.358c12.335 0 22.334-9.994 22.334-22.322l39.115-38.691c5.974-5.908 16.059-1.018 15.113 7.327-1.13 9.97 8.264 17.848 17.899 15.031 13.934-4.074 32.864-12.184 49.225-28.185 12.257-11.987 19.166-23.302 23.544-33.607 2.857-6.726 12.256-7.27 15.866-.916 15.723 27.673 45.576 55.87 71.171 68.713v10.328c0 12.328 10 22.322 22.334 22.322h1.358v-26.283c3.894 1.799 7.432 4.239 10.442 7.242 6.556 6.564 10.589 15.554 10.592 25.558-.003 10.005-4.037 18.995-10.592 25.559-5.052 5.039-11.545 8.564-18.824 9.936.396-3.471.624-6.964.624-10.477 0-4.07-3.302-7.369-7.373-7.369-4.072 0-7.373 3.299-7.373 7.369h-.001c.001 13.183-3.442 26.369-9.664 38.805-9.318 18.648-24.93 35.516-43.886 47.597-18.954 12.098-41.168 19.39-63.604 19.381-14.964.001-29.812-3.229-43.677-8.977-10.028-4.152-19.521-9.639-28.149-16.119-.596-.658-1.301-1.17-2.058-1.578-8.433-6.597-15.987-14.149-22.301-22.361-6.591-8.564-11.847-17.823-15.44-27.398zm13.735 100.226c-2.698-10.717-4.929-19.678-6.48-26.068-.512-2.106-.941-3.903-1.295-5.413 3.558-1.369 6.91-2.43 9.939-3.162 3.818-.928 7.141-1.342 9.662-1.338 1.301 0 2.507-.352 3.582-.919l126.957 212.941-6.547 23.987h-43.278-17.115c-8.005 0-15.765 2.178-22.517 6.172-5.386-20.814-19.415-75.078-32.759-127.106-7.486-29.186-14.753-57.658-20.149-79.094zm42.767 287.96-3.641-4.795c-4.691-6.179-6.995-13.467-6.998-20.774.004-8.321 2.995-16.576 8.93-23.112l13.064-14.385c5.452-6.003 13.188-9.426 21.302-9.426h7.07l-22.171 83.456c-6.929-1.396-13.203-5.232-17.556-10.964zm50.066-1.026-9.34 6.889c-2.107 1.553-4.405 2.788-6.816 3.721l21.805-82.076h33.12l-19.506 71.466zm260.536-45.92c-7.349 24.609-28.52 42.221-53.511 45.4l-22.547-284.972c7.996 9.288 15.12 19.968 21.432 31.531 14.797 27.065 25.155 58.754 32.903 87.337 3.879 14.295 7.116 27.814 9.982 39.645 2.871 11.843 5.347 21.953 7.827 29.697 3.185 9.875 5.829 23.763 5.809 35.827.006 5.881-.627 11.321-1.895 15.535zm10.798-56.079c-1.47-4.567-3.064-10.531-4.799-17.488-3.047-12.159-6.535-27.364-10.891-43.966-6.535-24.939-15.001-53.099-26.99-79.454-11.972-26.302-27.451-50.939-48.49-68.586-.018-.017-.018-.017-.018-.017l-.053-.054-.071-.053-.018-.018c-.23-.177-7.916-6.408-20.578-13.7-10.308-5.912-23.909-12.567-39.547-17.151-3.577-1.062-7.279-2-11.051-2.797-.124-.035-.23-.018-.354-.035 1.541-1.788 3.028-3.611 4.463-5.452 7.402-9.629 13.389-20.142 17.55-31.222 1.098-2.885 2.055-5.841 2.869-8.814 12.539-.92 23.873-6.372 32.233-14.744 9.191-9.186 14.912-21.948 14.912-35.984 0-14.018-5.72-26.797-14.912-35.966-5.756-5.752-12.893-10.142-20.88-12.62v-1.451c17.002-2.266 33.631-19.346 32.515-27.24-1.293-9.08-28.973-13.116-40.025-35.647h-.017c-1.01-2.885-2.072-5.717-3.241-8.513-10.413-24.479-27.751-45.294-49.534-60.038-10.892-7.381-22.899-13.222-35.722-17.239-12.804-4.001-26.441-6.16-40.502-6.16-.177-.425-.691-.389-1.488 0h-4.764c-5.862 0-11.653.425-17.338 1.151-30.903.85-85.292 0-120.464-13.841-6.074-2.372-12.928 1.522-13.849 7.965-2.249 15.788 3.878 34.815 9.156 47.542 2.356 5.664-2.851 11.558-8.767 9.929l-9.386-2.549c-7.013-1.912-13.761 3.841-12.946 11.045 1.417 12.39 4.764 30.992 12.681 49.86 9.528 22.691 19.268 40.249 23.236 47.117-5.898 2.566-11.229 6.213-15.692 10.69-9.209 9.169-14.912 21.948-14.912 35.966 0 14.036 5.703 26.798 14.912 35.984 7.42 7.434 17.215 12.602 28.106 14.284 1.877 6.92 4.463 13.664 7.704 20.16 6.18 12.319 14.611 23.735 24.688 33.789-1.116.212-2.232.46-3.365.726-7.119 1.735-14.965 4.673-23.218 8.797-8.235 4.142-16.859 9.47-25.396 16.036-2.975 2.266-3.826 6.266-2.267 9.487.177.354.372.708.62 1.044.071.106.141.195.212.301 2.604 3.38 7.456 4.018 10.839 1.416 6.269-4.814 12.574-8.885 18.614-12.213.832 3.434 1.895 7.788 3.152 12.885 2.621 10.46 6.039 24.071 9.971 39.506 17.781 69.949 45.426 176.802 48.844 189.989l-10.271 11.31c-8.59 9.451-12.946 21.47-12.946 33.488 0 10.567 3.365 21.187 10.148 30.107l3.63 4.797c8.377 11.027 21.358 17.54 35.19 17.682h.461c9.563 0 18.861-3.062 26.565-8.726l5.242-3.877h165.322v44.762h15.444v-44.763h13.017c.478 0 .956-.017 1.435-.035.07 0 .159.018.23.018.035 0 .053-.018.071-.018 34.57-.744 64.819-23.665 74.736-56.905 1.86-6.248 2.533-13.009 2.551-19.948-.04-14.212-2.927-29.133-6.557-40.549z"/></g></svg>