<!--?xml version="1.0" encoding="utf-8"?-->
<!-- Generator: Adobe Illustrator 22.1.0, SVG Export Plug-In . SVG Version: 6.00 Build 0)  -->
<svg version="1.1" id="_x31_1" xmlns="http://www.w3.org/2000/svg" xmlns:xlink="http://www.w3.org/1999/xlink" x="0px" y="0px" viewBox="0 0 692 720" style="enable-background:new 0 0 692 720;" xml:space="preserve">
<style type="text/css">
	.st0{fill:#FF8657;}
	.st1{fill:#F0E6DA;}
	.st2{fill:#5D768C;}
	.st3{fill:#FFB384;}
	.st4{fill:#FF9A6B;}
	.st5{fill:#6237A0;}
	.st6{fill:#7146AF;}
	.st7{fill:#8A5FC8;}
	.st8{fill:#1BA482;}
	.st9{fill:#0C9573;}
	.st10{fill:#E1D7CB;}
	.st11{fill:#3EC7A5;}
	.st12{fill:#169F7D;}
	.st13{fill:#4E677D;}
	.st14{fill:#FAF0E4;}
	.st15{fill:#8099AF;}
	.st16{fill:#587187;}
	.st17{fill:#58ACB0;}
	.st18{fill:#FAFFFF;}
	.st19{fill:#7ED1D1;}
	.st20{fill:#63B8BA;}
	.st21{fill:#4EA2A6;}
</style>
<g>
	<g>
		<polygon class="st0" points="9.523,175.647 304.048,5.502 304.048,371.786 9.523,541.932 		" style="opacity: 1;"></polygon>
		<polygon class="st1" points="325.877,42.321 53.72,199.546 20.049,180.094 292.206,22.87 		" style="opacity: 1;"></polygon>
		<polygon class="st2" points="337.598,391.168 337.597,391.168 52.499,555.868 18.949,536.487 304.048,371.786 294.524,366.284 
			0,536.43 52.597,566.815 347.121,396.669 		" style="opacity: 1;"></polygon>
		<polygon class="st3" points="337.597,24.883 52.499,189.584 18.949,170.202 304.048,5.502 294.524,0 0,170.146 52.597,200.531 
			347.121,30.385 337.598,24.883 		" style="opacity: 1;"></polygon>
		<polygon class="st0" points="52.597,200.531 347.121,30.385 347.121,396.669 52.597,566.815 		" style="opacity: 1;"></polygon>
		<polygon class="st4" points="52.597,200.531 0,170.146 0,536.43 52.597,566.815 		" style="opacity: 1;"></polygon>
	</g>
	<g>
		<g>
			<polygon class="st5" points="354.337,38.479 354.337,419.704 166.498,528.93 167.644,147.705 			" style="opacity: 1;"></polygon>
			<polygon class="st1" points="204.08,187.696 390.353,80.086 350.975,57.338 164.701,164.947 			" style="opacity: 1;"></polygon>
			<path class="st5" d="M160.603,536.665l1.146-381.225c0.008-2.672,1.713-5.304,5.895-7.735l-1.146,381.225
				C162.316,531.362,160.61,533.993,160.603,536.665z" style="opacity: 1;"></path>
			<polygon class="st5" points="414.054,72.536 414.054,453.761 225.45,562.987 226.597,181.762 			" style="opacity: 1;"></polygon>
			<polygon class="st6" points="384.772,183.926 384.772,223.745 261.638,295.055 262.386,255.236 			" style="opacity: 1;"></polygon>
			<path class="st6" d="M148.433,536.498l1.146-381.225c-0.019,6.554,6.376,13.799,19.003,21.094
				c21.452,12.393,42.599,14.36,58.015,5.396l-1.146,381.225c-15.415,8.964-36.562,6.997-58.015-5.396
				C154.809,550.296,148.415,543.051,148.433,536.498z" style="opacity: 1;"></path>
			<path class="st7" d="M414.054,72.536L226.597,181.762c-15.416,8.964-36.562,6.997-58.015-5.396
				c-21.453-12.394-24.916-24.643-9.5-33.607l187.84-109.226l7.416,4.946L167.644,147.705c-13.014,7.567-2.046,17.07,9.449,23.711
				c11.491,6.639,27.922,12.964,40.936,5.397l187.84-109.226L414.054,72.536z" style="opacity: 1;"></path>
		</g>
		<path class="st7" d="M155.194,270.042c3.057,2.895,7.129,5.839,12.242,8.792c11.346,6.554,22.606,10.19,32.978,10.837v-28.409
			c-10.053-0.835-20.902-4.436-31.831-10.75c-5.779-3.339-10.237-6.666-13.388-9.923V270.042z" style="opacity: 1;"></path>
		<g>
			<g>
				<path class="st7" d="M167.436,389.276c-1.899-1.097-3.653-2.193-5.266-3.285v118.536c1.922,1.356,4.051,2.719,6.413,4.083
					c1.063,0.614,2.125,1.195,3.185,1.757v-118.73C170.326,390.898,168.882,390.111,167.436,389.276z" style="opacity: 1;"></path>
			</g>
			<g>
				<path class="st7" d="M191.662,430.105c-2.598-0.55-5.234-1.27-7.898-2.163v69.719c2.662,0.938,5.298,1.706,7.898,2.304V430.105z
					" style="opacity: 1;"></path>
			</g>
		</g>
	</g>
	<g>
		<g>
			<polygon class="st8" points="275.526,228.925 274.653,229.43 274.653,273.336 276.941,272.014 279.229,270.692 279.229,231.431 
							" style="opacity: 1;"></polygon>
			<g>
				<polygon class="st9" points="265.827,239.84 263.538,241.162 263.538,285.069 265.827,283.747 268.115,282.424 268.115,238.518 
									" style="opacity: 1;"></polygon>
				<polygon class="st9" points="279.483,232.22 279.483,590.957 473.813,478.911 473.813,120.174 352.43,188.649 				" style="opacity: 1;"></polygon>
				<path class="st9" d="M282.718,233.832c-0.278,0.58-0.683,1.144-1.215,1.676c-0.532,0.532-1.191,1.032-1.977,1.486
					c-0.786,0.454-1.652,0.834-2.573,1.142c-0.921,0.307-1.896,0.541-2.9,0.702c-1.005,0.161-2.038,0.248-3.075,0.262
					c-1.037,0.014-2.078-0.044-3.097-0.177v22.654c1.019,0.132,2.06,0.191,3.097,0.177c1.037-0.014,2.071-0.102,3.075-0.262
					c1.004-0.161,1.98-0.395,2.9-0.702c0.921-0.307,1.787-0.688,2.573-1.142c0.786-0.454,1.445-0.954,1.977-1.486
					c0.532-0.532,0.937-1.095,1.215-1.676s0.43-1.177,0.454-1.776v-22.654C283.148,232.654,282.996,233.252,282.718,233.832z" style="opacity: 1;"></path>
			</g>
		</g>
		<polygon class="st1" points="467.471,136.572 262.235,255.136 314.092,285.094 519.328,166.529 		" style="opacity: 1;"></polygon>
		<polygon class="st10" points="471.495,139.49 288.574,245.163 288.574,245.163 288.873,245.335 471.793,139.663 		" style="opacity: 1;"></polygon>
		<polygon class="st10" points="478.822,143.72 295.902,249.393 295.902,249.393 296.201,249.565 479.121,143.893 		" style="opacity: 1;"></polygon>
		<polygon class="st10" points="481.64,151.052 298.72,256.725 298.72,256.725 299.019,256.897 481.939,151.225 		" style="opacity: 1;"></polygon>
		<polygon class="st10" points="491.505,153.026 308.584,258.699 308.584,258.699 308.883,258.871 491.803,153.199 		" style="opacity: 1;"></polygon>
		<polygon class="st10" points="494.041,159.794 311.12,265.467 311.12,265.467 311.419,265.639 494.34,159.967 		" style="opacity: 1;"></polygon>
		<path class="st11" d="M334.569,264.043l117.061-67.626l76.381-44.125l-2.415-1.395l-2.415-1.395l-74.689,43.148l-115.369,66.648
			c-2.038-0.264-4.164-0.236-6.173,0.086c-2.009,0.322-3.901,0.936-5.473,1.844c-1.572,0.908-2.636,2.001-3.192,3.162
			s-0.606,2.388-0.149,3.566l-2.083,1.203l-2.083,1.203l-50.255-29.032l2.083-1.203l2.083-1.203
			c2.038,0.264,4.164,0.236,6.173-0.086c2.009-0.321,3.901-0.936,5.473-1.844c1.572-0.908,2.636-2.001,3.192-3.162
			c0.556-1.161,0.606-2.388,0.149-3.566l74.689-43.148l115.369-66.648l-2.415-1.395l-2.415-1.395l-117.061,67.626l-75.508,43.621
			l-0.873,0.505c1.147,0.662,1.725,1.528,1.733,2.392c0.008,0.864-0.555,1.726-1.69,2.382c-1.135,0.656-2.627,0.981-4.122,0.976
			c-1.495-0.004-2.993-0.338-4.14-1.001l-3.816,2.205l-3.816,2.205c-1.297,0.749-1.94,1.735-1.931,2.722
			c0.009,0.987,0.669,1.976,1.98,2.733l50.425,29.13c1.311,0.757,3.023,1.139,4.732,1.144c1.709,0.005,3.414-0.366,4.711-1.116
			l3.816-2.205l3.816-2.205c-1.147-0.662-1.725-1.528-1.733-2.392s0.555-1.726,1.69-2.382c1.135-0.656,2.627-0.981,4.122-0.976
			C331.924,263.047,333.422,263.381,334.569,264.043z" style="opacity: 1;"></path>
		<polygon class="st12" points="334.569,264.043 334.569,622.78 528.011,511.029 528.011,152.293 		" style="opacity: 1;"></polygon>
		<g>
			<path class="st11" d="M326.349,627.529v-4.793c-0.013,0.008-0.029,0.012-0.043,0.02
				C324.036,624.067,324.055,626.204,326.349,627.529z" style="opacity: 1;"></path>
			<path class="st9" d="M326.306,264.019c-2.27,1.311-2.251,3.448,0.043,4.773v353.943c2.273-1.288,5.94-1.273,8.22,0.044V264.043
				C332.276,262.718,328.576,262.708,326.306,264.019z" style="opacity: 1;"></path>
		</g>
		<path class="st8" d="M326.349,268.792l-7.633,4.409c-2.594,1.498-6.822,1.486-9.443-0.028l0,358.737
			c2.621,1.514,6.849,1.527,9.443,0.028l7.633-4.409V268.792z" style="opacity: 1;"></path>
		<path class="st8" d="M309.273,273.174l-50.425-29.13c-1.311-0.757-1.971-1.746-1.98-2.733v358.737
			c0.009,0.987,0.669,1.976,1.98,2.733l50.425,29.13L309.273,273.174z" style="opacity: 1;"></path>
		<path class="st9" d="M294.811,369.211l-24.498-14.076l-0.279,146.639l0,0.011c0.003,0.774,0.282,1.51,0.677,2.059
			c0.396,0.556,0.888,0.955,1.407,1.256l23.989,13.858V369.959L294.811,369.211z M275.216,500.901V363.879l15.708,9.074v137.022
			L275.216,500.901z" style="opacity: 1;"></path>
		<polygon class="st10" points="511.137,253.501 355.062,343.665 355.062,307.875 511.137,217.711 		" style="opacity: 1;"></polygon>
	</g>
	<g>
		<g>
			<polygon class="st2" points="360.73,371.35 359.858,371.856 359.923,415.762 362.209,414.437 364.496,413.111 364.437,373.85 			
				" style="opacity: 1;"></polygon>
			<g>
				<polygon class="st13" points="351.047,382.28 348.761,383.605 348.826,427.511 351.112,426.186 353.399,424.86 353.333,380.954 
									" style="opacity: 1;"></polygon>
				<polygon class="st13" points="364.692,374.639 365.079,634.733 517.71,546.255 517.323,286.162 437.574,330.96 				" style="opacity: 1;"></polygon>
				<path class="st13" d="M367.93,376.246c-0.277,0.581-0.682,1.145-1.213,1.678c-0.531,0.533-1.189,1.034-1.975,1.489
					c-0.785,0.455-1.651,0.837-2.571,1.146c-0.92,0.309-1.895,0.544-2.899,0.706c-1.004,0.162-2.038,0.251-3.075,0.267
					c-1.037,0.016-2.078-0.041-3.098-0.172l0.034,22.654c1.019,0.13,2.06,0.188,3.098,0.172c1.037-0.016,2.071-0.105,3.075-0.267
					c1.004-0.162,1.979-0.398,2.899-0.707c0.92-0.309,1.786-0.691,2.571-1.146c0.785-0.455,1.444-0.957,1.975-1.489
					c0.531-0.533,0.935-1.097,1.213-1.678c0.277-0.581,0.428-1.178,0.452-1.777l-0.034-22.654
					C368.357,375.068,368.207,375.666,367.93,376.246z" style="opacity: 1;"></path>
			</g>
		</g>
		<g>
			<polygon class="st14" points="511.893,302.272 347.478,397.581 399.379,427.461 563.794,332.153 			" style="opacity: 1;"></polygon>
			<polygon class="st1" points="515.921,305.185 373.802,387.568 373.802,387.568 374.102,387.741 516.22,305.357 			" style="opacity: 1;"></polygon>
			<polygon class="st1" points="523.255,309.404 381.136,391.788 381.136,391.788 381.435,391.96 523.554,309.576 			" style="opacity: 1;"></polygon>
			<polygon class="st1" points="526.084,316.731 383.965,399.115 383.965,399.115 384.265,399.288 526.383,316.904 			" style="opacity: 1;"></polygon>
			<polygon class="st1" points="535.951,318.691 393.832,401.075 393.832,401.075 394.132,401.247 536.25,318.863 			" style="opacity: 1;"></polygon>
			<polygon class="st1" points="538.497,325.455 396.379,407.839 396.379,407.839 396.678,408.011 538.797,325.628 			" style="opacity: 1;"></polygon>
		</g>
		<path class="st15" d="M419.825,406.381l76.316-44.239l76.316-44.239l-2.417-1.392l-2.417-1.392l-74.625,43.259l-74.625,43.259
			c-2.039-0.261-4.164-0.229-6.173,0.095c-2.008,0.324-3.9,0.942-5.471,1.852c-1.571,0.91-2.633,2.005-3.187,3.167
			s-0.602,2.389-0.143,3.566l-2.081,1.206l-2.081,1.206l-50.298-28.957l2.081-1.206l2.081-1.206
			c2.039,0.261,4.164,0.229,6.173-0.095c2.008-0.324,3.9-0.942,5.47-1.852c1.571-0.911,2.633-2.005,3.188-3.167
			c0.555-1.161,0.602-2.389,0.143-3.566l74.625-43.259l74.625-43.259l-2.417-1.392l-2.417-1.392l-76.315,44.239L360.73,371.35
			l-0.873,0.506c1.148,0.661,1.727,1.525,1.736,2.389s-0.552,1.727-1.686,2.384c-1.134,0.657-2.626,0.985-4.121,0.982
			c-1.495-0.002-2.994-0.334-4.142-0.995l-3.813,2.21l-3.813,2.21c-1.296,0.751-1.938,1.737-1.927,2.725
			c0.01,0.987,0.672,1.975,1.984,2.73l50.468,29.055c1.312,0.755,3.024,1.134,4.733,1.137s3.414-0.372,4.71-1.123l3.813-2.21
			l3.813-2.21c-1.148-0.661-1.727-1.525-1.736-2.389c-0.009-0.864,0.552-1.727,1.686-2.384c1.134-0.657,2.626-0.985,4.121-0.982
			C417.179,405.388,418.678,405.72,419.825,406.381z" style="opacity: 1;"></path>
		<polygon class="st16" points="419.825,406.38 420.212,666.473 572.843,577.996 572.456,317.903 		" style="opacity: 1;"></polygon>
		<g>
			<path class="st15" d="M411.999,671.235l-0.007-4.793c-0.013,0.008-0.029,0.012-0.042,0.02
				C409.681,667.776,409.703,669.913,411.999,671.235z" style="opacity: 1;"></path>
			<path class="st13" d="M411.563,406.368c-2.268,1.315-2.246,3.452,0.05,4.773l0.379,255.3c2.271-1.292,5.938-1.282,8.22,0.032
				l-0.387-260.093C417.53,405.059,413.83,405.054,411.563,406.368z" style="opacity: 1;"></path>
		</g>
		<path class="st2" d="M411.612,411.142l-7.626,4.421c-2.592,1.502-6.82,1.496-9.443-0.014l0.387,260.093
			c2.623,1.51,6.851,1.517,9.443,0.014l7.626-4.421L411.612,411.142z" style="opacity: 1;"></path>
		<path class="st2" d="M394.543,415.548l-50.468-29.055c-1.312-0.755-1.974-1.743-1.984-2.73l0.387,260.093
			c0.01,0.987,0.672,1.975,1.984,2.73l50.468,29.055L394.543,415.548z" style="opacity: 1;"></path>
		<polygon class="st1" points="398.549,491.563 348.85,462.95 348.813,437.902 398.512,466.514 		" style="opacity: 1;"></polygon>
		<polygon class="st1" points="555.732,419.136 440.436,485.971 440.383,450.182 555.679,383.347 		" style="opacity: 1;"></polygon>
	</g>
	<g>
		<g>
			<g>
				<polygon class="st17" points="644.827,228.18 644.827,568.828 435.269,690.683 435.963,350.035 				" style="opacity: 1;"></polygon>
				<polygon class="st18" points="637.085,242.771 679.463,267.253 479.004,383.057 436.627,358.576 				" style="opacity: 1;"></polygon>
				<path class="st17" d="M433.878,692.626l0.694-340.648c0-0.173,0.028-0.345,0.083-0.514c0.177-0.528,0.6-1.015,1.308-1.43
					l-0.695,340.648c-0.708,0.415-1.131,0.902-1.308,1.43C433.906,692.282,433.878,692.454,433.878,692.626z" style="opacity: 1;"></path>
				<polygon class="st17" points="692,255.165 692,595.812 481.979,717.667 482.674,377.02 				" style="opacity: 1;"></polygon>
				<path class="st19" d="M692,255.165L482.674,377.02c-1.993,1.162-4.488,1.898-7.082,2.187c-2.591,0.29-5.296,0.148-7.784-0.438
					c-1.66-0.388-3.219-0.976-4.557-1.749l-33.572-19.394c-2.015-1.164-3.292-2.611-3.794-4.11c-0.512-1.505-0.272-3.07,0.727-4.512
					c0.666-0.959,1.674-1.863,3.004-2.635l209.558-121.855l6.348,3.667L435.963,350.035c-0.708,0.415-1.131,0.902-1.308,1.43
					c-0.171,0.524-0.078,1.08,0.273,1.577c0.236,0.33,0.579,0.639,1.057,0.915l33.572,19.394c0.716,0.414,1.559,0.659,2.471,0.763
					c0.906,0.101,1.862,0.051,2.721-0.153c0.572-0.133,1.101-0.334,1.576-0.61l209.558-121.855L692,255.165z" style="opacity: 1;"></path>
			</g>
			<path class="st20" d="M475.591,379.207c-2.591,0.29-5.296,0.148-7.784-0.438c-1.66-0.388-3.219-0.976-4.557-1.749l-33.572-19.394
				c-2.015-1.164-3.292-2.611-3.794-4.11c-0.175-0.516-0.263-1.039-0.261-1.561l-0.695,340.648
				c-0.001,0.522,0.086,1.045,0.261,1.561c0.502,1.499,1.779,2.946,3.794,4.11l33.572,19.394c1.338,0.773,2.897,1.362,4.557,1.749
				c2.488,0.585,5.193,0.728,7.784,0.438c2.594-0.288,5.09-1.025,7.082-2.187l0.695-340.648
				C480.681,378.182,478.185,378.918,475.591,379.207z" style="opacity: 1;"></path>
		</g>
		<g>
			<polygon class="st21" points="627.111,437.453 591.153,458.385 555.195,479.317 555.076,490.354 591.153,469.422 
				591.153,469.352 627.111,448.49 			" style="opacity: 1;"></polygon>
			<polygon class="st21" points="627.111,472.056 591.153,492.988 555.195,513.92 555.076,524.957 591.153,504.025 591.153,503.955 
				627.111,483.092 			" style="opacity: 1;"></polygon>
		</g>
		<polygon class="st18" points="468.703,473.611 432.745,452.838 432.745,422.648 468.703,443.421 		" style="opacity: 1;"></polygon>
		<polygon class="st21" points="468.703,613.32 432.745,592.547 432.745,588.436 468.703,609.209 		" style="opacity: 1;"></polygon>
		<polygon class="st21" points="468.703,675.267 432.745,654.494 432.745,650.382 468.703,671.155 		" style="opacity: 1;"></polygon>
		<polygon class="st18" points="653.106,354.175 653.106,394.702 520.63,471.565 521.068,431.038 		" style="opacity: 1;"></polygon>
	</g>
</g>
</svg>
