<svg enable-background="new 0 0 499 720" viewBox="0 0 499 720" xmlns="http://www.w3.org/2000/svg"><path d="m284.282 454.327 6.808 215.419h56.381l19.446-173.296 18.25 182.065h57.833l3.738-224.188-83.648-69.945z" fill="#9bccd1"/><path d="m350.059 665.484-4.022 44.466c-.32 3.234-3.04 5.7-6.289 5.7h-76.65c-3.49 0-6.32-2.83-6.32-6.321v-5.188c4.779-30.907 36.9-38.658 36.9-38.658h56.381z" fill="#f7f8f3"/><path d="m383.988 665.484 4.023 44.466c.319 3.234 3.039 5.7 6.289 5.7h76.65c3.49 0 6.32-2.83 6.32-6.321v-5.188c-4.779-30.907-36.9-38.658-36.9-38.658h-56.382z" fill="#f7f8f3"/><path d="m485.001 420.078v-101.474s0-7.978 0-44.834c0-59.323-49.692-88.321-68.336-88.321l-52.122-18.527-49.754 18.527c-4.367 0-10.609 1.376-17.389 4.518-4.835 2.234-9.93 5.374-14.816 9.563-.49.421-1.165 1.065-1.961 1.854v234.34h3.656v18.608c9.043 6.491 19.651 9.732 30.26 9.732 10.738 0 21.476-3.321 30.588-9.972l19.412-14.159 13.281 9.812c18.595 13.76 52.693 16.413 71.058 2.343v-16.364h38.087c-1.296-5.095-1.964-10.351-1.964-15.646z" fill="#9bccd1"/><path d="m484.066 482.895 3.644-3.987c7.039-7.701 8.906-18.816 4.768-28.396l-2.268-5.25c-1.337-3.095-2.418-6.284-3.245-9.535h-38.087l1.286 51.592.841.499c10.797 6.394 24.596 4.338 33.061-4.923z" fill="#ffd7c5"/><path d="m321.245 180.523s-21.901 8.835-22.56 10.968c-.658 2.134 55.576 75.11 55.576 75.11s6.005 4.679 10.282 4.203 10.02-7.776 10.02-7.776l55.002-75.64-30.898-15.047c-24.104-5.419-39.992-11.257-67.783.605z" fill="#fff"/><path d="m87.296 184.603h45.441v451.979l-72.582 25.166c-4.064 1.855-6.672 5.913-6.672 10.382v2.852c0 7.516 7.116 12.985 14.369 11.023 16.891-4.569 44.701-12.148 61.138-16.93 8.712-2.535 17.925-2.535 26.635 0 16.437 4.781 44.247 12.361 61.138 16.93 7.254 1.962 14.369-3.507 14.369-11.023v-2.852c0-4.469-2.607-8.527-6.672-10.382l-72.582-25.166v-451.979h78.45c5.285 0 9.571-4.289 9.571-9.575v-31.236c0-5.286-4.286-9.575-9.571-9.575s-9.571 4.289-9.571 9.575v21.662h-143.25" fill="#e5e0d8"/><path d="m42.759 164.077c-5.364 4.675-8.753 11.559-8.753 19.235 0 2.248.295 4.425.845 6.497.955 3.597-1.826 7.094-5.546 7.094h-5.394c-11.003 0-19.923 8.921-19.923 19.926v68.54c0 6.255 2.937 12.146 7.931 15.911l33.866 25.525c3.652 2.753 8.101 4.242 12.674 4.242h2.091c4.573 0 9.022-1.489 12.674-4.242l33.866-25.525c4.994-3.765 7.931-9.656 7.931-15.911v-68.541c0-11.004-8.92-19.925-19.922-19.925h-5.394c-3.768 0-6.469-3.557-5.518-7.203.462-1.768.737-3.612.802-5.51.436-12.684-9.015-23.851-21.199-26.008" fill="#fff"/><path d="m54.287 184.603c12.902-1.303 12.902-15.149 9.571-18.415v-22.396c0-5.286-4.286-9.575-9.571-9.575s-9.571 4.289-9.571 9.575v31.236c0 5.286 4.286 9.575 9.571 9.575" fill="#e5e0d8"/><path d="m171.595 364.883s12.448 1.423 31.945-23.813 42.244-99.89 63.365-122.64c8.246-14.452 22.498-21.919 22.498-21.919l19.962 48.104-38.473 70.877c-21.005 46.04-37.539 91.038-93.135 103.073 0 0-20.018 1.267-26.805-18.418-6.785-19.685 20.643-35.264 20.643-35.264z" fill="#9bccd1"/><path d="m284.282 671.26c19.136 5.574 25.084 28.422 25.084 44.39 0 0-44.843 4.013-48.857 0-4.013-4.014-8.362-14.168-3.203-22.195 9.599-14.94 26.976-22.195 26.976-22.195z" fill="#9bccd1"/><path d="m444.769 671.26c-19.136 5.574-25.084 28.422-25.084 44.39h51.266s7.562-12.849 4.321-19.547c-3.242-6.7-17.956-25.492-30.503-24.843z" fill="#9bccd1"/><path d="m433.35 98.457v-7.239c0-32.613-34.017-63.749-70.105-63.749s-70.105 31.136-70.105 63.749v7.347c-12.475 1.144-22.245 11.632-22.245 24.407 0 13.159 10.368 23.895 23.38 24.487 6.179 28.533 36.748 53.356 68.971 53.356 32.213 0 62.771-24.807 68.965-53.328h1.141c13.537 0 24.511-10.976 24.511-24.515-.003-13.54-10.977-24.515-24.513-24.515z" fill="#ffd7c5"/><path d="m159.846 406.724h-3.708l.082-1.403h3.626c4.705 0 8.556-3.851 8.556-8.557s-3.85-8.557-8.556-8.557h-2.623l.156-2.671h1.069c4.706 0 13.146-3.85 13.146-8.557s-8.441-8.557-13.146-8.557h-.066l.157-2.676c4.664-.05 8.465-3.876 8.465-8.552 0-4.706-3.85-8.557-8.556-8.557h-32.884c-4.712 2.323-9.349 7.178-9.349 15.403v31.074c.205 13.286 1.06 22.446 4.063 28.833 1.183.805 2.528 1.294 3.955 1.294l35.613-1.403c4.705 0 8.556-3.851 8.556-8.557s-3.851-8.557-8.556-8.557z" fill="#ffd7c5"/><path d="m21.622 284.77c0 2.162 1.028 4.228 2.753 5.526l29.459 22.206c1.365 1.026 3.055 1.592 4.763 1.592h1.819c1.704 0 3.398-.566 4.763-1.595l29.456-22.2c1.724-1.301 2.754-3.367 2.754-5.529v-37.323h-75.767z" fill="#fff000"/><g fill="#231815"><path d="m336.399 122.972c4.252 0 7.73-3.479 7.73-7.732s-3.478-7.732-7.73-7.732-7.731 3.479-7.731 7.732 3.478 7.732 7.731 7.732z"/><path d="m390.089 122.972c4.251 0 7.73-3.479 7.73-7.732s-3.479-7.732-7.73-7.732c-4.252 0-7.731 3.479-7.731 7.732s3.479 7.732 7.731 7.732z"/><path d="m359.237 142.883h8.684c1.097 0 1.986-.889 1.986-1.987 0-1.097-.889-1.986-1.986-1.986h-5.804c-1.366 0-2.616-.764-3.239-1.98l-.521-1.018c-.45-.877-1.775-.558-1.775.428v3.886c-.001 1.468 1.188 2.657 2.655 2.657z"/><path d="m385.861 90.609h8.456c1.926 0 3.502-1.577 3.502-3.504s-1.576-3.504-3.502-3.504h-8.456c-1.926 0-3.503 1.577-3.503 3.504s1.577 3.504 3.503 3.504z"/><path d="m351.478 167.461c1.119 0 2.065-.75 2.363-1.777h18.803c.297 1.025 1.244 1.777 2.364 1.777 1.357 0 2.461-1.103 2.461-2.461v-4.247c0-1.357-1.104-2.462-2.461-2.462-1.118 0-2.064.75-2.363 1.778h-18.802c-.297-1.025-1.245-1.778-2.365-1.778-1.357 0-2.46 1.104-2.46 2.462v4.247c0 1.357 1.104 2.461 2.46 2.461z"/><path d="m453.228 418.565v-131.307c0-2.402-1.947-4.35-4.349-4.35s-4.349 1.947-4.349 4.35v131.307c0 2.402 1.947 4.35 4.349 4.35 2.401 0 4.349-1.948 4.349-4.35z"/><path d="m494.202 443.538c-3.199-7.408-4.849-15.39-4.849-23.459v-101.48s0-7.971 0-44.825c.002-15.44-3.244-29.012-8.436-40.606-7.793-17.403-19.892-30.333-31.901-38.951-6.011-4.311-12.004-7.551-17.512-9.744-2.756-1.096-5.391-1.931-7.869-2.5-2.044-.468-3.974-.747-5.805-.835 2.195-2.237 4.254-4.584 6.143-7.038 4.172-5.425 7.545-11.344 9.885-17.582.613-1.634 1.15-3.291 1.616-4.966 7.06-.519 13.436-3.598 18.142-8.31 5.18-5.175 8.397-12.367 8.395-20.27.002-7.903-3.215-15.096-8.395-20.27-3.234-3.239-7.257-5.71-11.749-7.107v-.812c9.572-1.279 18.933-10.9 18.3-15.353-.726-5.112-16.308-7.382-22.528-20.086h-.018c-.563-1.618-1.158-3.221-1.824-4.788-5.86-13.792-15.617-25.525-27.88-33.831-6.133-4.152-12.895-7.448-20.111-9.705-7.215-2.257-14.884-3.475-22.806-3.475-.098-.238-.386-.224-.833 0h-2.68c-3.306 0-6.561.235-9.763.647-17.397.477-48.016-.001-67.818-7.792-3.417-1.345-7.276.853-7.796 4.488-1.273 8.89 2.183 19.613 5.155 26.774 1.326 3.195-1.603 6.514-4.94 5.603l-5.28-1.441c-3.947-1.077-7.753 2.163-7.29 6.228.796 6.978 2.679 17.461 7.139 28.087 5.364 12.781 10.847 22.678 13.08 26.547-3.322 1.446-6.319 3.497-8.836 6.017-5.18 5.175-8.397 12.367-8.395 20.27-.002 7.903 3.215 15.095 8.395 20.27 4.185 4.19 9.689 7.094 15.822 8.051 1.064 3.893 2.518 7.696 4.346 11.349 3.476 6.942 8.22 13.378 13.89 19.042-.621.12-1.251.256-1.892.411-4.008.973-8.426 2.625-13.066 4.953-4.638 2.328-9.491 5.335-14.306 9.034-1.905 1.463-2.263 4.194-.8 6.099s4.194 2.263 6.099.8c3.6-2.767 7.216-5.095 10.682-6.988l61.231 77.508c1.441 1.824 4.042 2.167 5.917.839l-76.13 105.488v-92.57c0-2.402-1.947-4.35-4.349-4.35s-4.349 1.947-4.349 4.35v104.622l-1.134 1.572c-1.405 1.948-.966 4.667.981 6.073.049.036.104.056.153.089v54.183 6.182s0 12.981 0 26.581c0 3.505.135 8.933.368 15.827.817 24.103 2.853 65.978 4.686 101.857 1.444 28.264 2.761 52.782 3.255 61.921-.516.118-1.056.247-1.648.402-5.016 1.324-12.627 4.042-19.664 9.729-3.512 2.843-6.868 6.443-9.583 10.948-2.717 4.502-4.777 9.901-5.754 16.233l-.051.329v5.524c-.002 2.933 1.201 5.628 3.125 7.545 1.917 1.924 4.612 3.127 7.544 3.125h39.826 9.026.005s.003 0 .005 0h27.789 16.9c2.402 0 4.349-1.948 4.349-4.35s-1.947-4.35-4.349-4.35h-6.418c.056-.303.104-.611.135-.922v.005l4.022-40.204.001-.007.261-2.651c.327-.61.529-1.297.529-2.038 0-.438-.084-.853-.205-1.252l13.351-135.519 17.948 181.665c.031.312.078.619.135.922h-8.827c-2.402 0-4.349 1.948-4.349 4.35s1.947 4.35 4.349 4.35h19.306 25.38.005s.003 0 .005 0h9.026 42.234c2.932.002 5.627-1.201 7.543-3.125 1.924-1.917 3.127-4.612 3.125-7.545v-5.523l-.051-.329c-1.298-8.444-4.54-15.221-8.665-20.441-3.09-3.921-6.652-6.974-10.222-9.344-5.36-3.553-10.737-5.589-14.806-6.765-1.087-.313-2.077-.563-2.955-.764.585-10.807 2.316-43.07 4.048-77.593 1.064-21.204 2.128-43.26 2.926-61.725.399-9.233.732-17.569.966-24.458.11-3.251.197-6.162.259-8.714 3.676 1.462 7.539 2.193 11.376 2.193 8.428.002 16.766-3.459 22.779-10.035l3.645-3.988c5.299-5.798 8.081-13.262 8.08-20.824 0-4.131-.831-8.297-2.53-12.231zm-193.8-289.937c-2.023-5.396-3.112-10.963-3.112-16.535 0-2.293-1.859-4.151-4.151-4.151s-4.151 1.859-4.151 4.151c0 1.788.118 3.565.301 5.333-3.161-.994-5.985-2.735-8.281-5.028-3.691-3.698-5.961-8.763-5.963-14.399.002-5.636 2.272-10.701 5.963-14.399 1.089-1.087 2.308-2.033 3.613-2.852v13.579h.764c6.944 0 12.573-5.63 12.573-12.575l22.021-21.799c3.363-3.328 9.041-.574 8.508 4.128v.001c-.636 5.616 4.653 10.055 10.077 8.467 7.844-2.294 18.501-6.863 27.712-15.878 6.9-6.753 10.79-13.129 13.254-18.935 1.608-3.788 6.9-4.096 8.932-.516 8.852 15.591 25.658 31.477 40.068 38.713v5.819c0 6.945 5.63 12.575 12.573 12.575h.764v-14.807c2.192 1.013 4.184 2.388 5.878 4.08 3.691 3.698 5.961 8.763 5.963 14.399-.002 5.636-2.272 10.701-5.963 14.399-2.844 2.839-6.5 4.825-10.597 5.598.223-1.955.351-3.924.351-5.903 0-2.293-1.859-4.151-4.151-4.151s-4.151 1.859-4.151 4.151c0 7.427-1.938 14.856-5.44 21.862-5.246 10.506-14.035 20.009-24.707 26.816-10.671 6.816-23.177 10.924-35.807 10.919-8.424.001-16.783-1.819-24.589-5.058-11.708-4.851-22.143-12.913-29.56-22.568-3.711-4.825-6.67-10.042-8.692-15.436zm63.565 114.507-59.947-75.882c1.906-.723 3.7-1.281 5.331-1.676 2.149-.523 4.02-.756 5.439-.754 1.003 0 1.915-.353 2.651-.924 1.787 1.359 3.627 2.657 5.527 3.871 11.861 7.57 25.839 12.219 40.275 12.224 9.621-.001 19.047-2.073 27.769-5.691 7.796-3.238 15.032-7.712 21.38-13.089.353 2.048 2.126 3.61 4.275 3.61 1.676-.005 3.981.331 6.635 1.068l-58.587 81.18c.39-1.312.164-2.783-.748-3.937zm-103.458 443.192c-.558-.002-1.024-.214-1.394-.577-.363-.371-.575-.836-.577-1.394v-4.796c1.116-6.868 3.649-12.04 6.848-16.112 2.435-3.09 5.275-5.539 8.201-7.48 3.686-2.45 7.5-4.069 10.674-5.115 3.526 1.227 6.455 3.132 8.973 5.586 4.187 4.08 7.187 9.768 9.085 15.929 1.428 4.612 2.234 9.465 2.545 13.959h-4.53zm53.055 0c-.184-3.017-.544-6.161-1.155-9.357-1.373-7.145-3.894-14.505-8.182-20.841-2.145-3.163-4.743-6.064-7.859-8.482-.26-.203-.53-.396-.798-.591l-.133-2.442c.438.148.899.247 1.387.247h46.267l-3.97 39.683v.005c-.053.514-.281.939-.638 1.267-.362.323-.807.509-1.323.51h-23.596zm79.413-.51c-.357-.328-.586-.753-.638-1.267l-3.921-39.689h42.212c2.402 0 4.349-1.948 4.349-4.35s-1.947-4.35-4.349-4.35h-43.072l-16.313-165.112c-.237-2.391-2.366-4.137-4.755-3.9-.262.026-.513.083-.758.153-.246-.07-.499-.128-.762-.153-2.39-.236-4.519 1.512-4.754 3.903l-16.266 165.11h-47.125c-.653 0-1.266.154-1.822.412-.791-14.697-2.548-47.678-4.222-81.39-.993-20.001-1.957-40.26-2.672-57.1-.357-8.42-.653-15.985-.858-22.23-.206-6.241-.321-11.178-.321-14.266 0-13.599 0-21.79 0-26.581 0-.095 0-.18 0-.272l9.499 2.959c5.369 1.671 10.893 2.492 16.384 2.492 11.823 0 23.495-3.806 33.173-11.097l9.776-7.365c2.174-1.637 4.743-2.451 7.329-2.452 2.585.001 5.154.814 7.328 2.452l9.777 7.365c9.676 7.29 21.348 11.097 33.172 11.097 5.49 0 11.014-.82 16.385-2.492l14.778-4.603v1.916 26.581c0 3.294-.131 8.69-.363 15.532-.812 23.975-2.847 65.853-4.679 101.708-.916 17.929-1.781 34.357-2.417 46.303-.318 5.972-.579 10.824-.76 14.183-.182 3.358-.283 5.218-.283 5.223l-.047.862c-2.309 1.376-4.392 3.006-6.244 4.819-5.559 5.447-9.105 12.444-11.316 19.582-1.72 5.578-2.623 11.261-2.943 16.528h-21.179c-.517-.003-.962-.189-1.323-.511zm75.488-18.887c2.048 3.449 3.638 7.574 4.455 12.617v4.809c-.002.558-.214 1.023-.577 1.394-.37.363-.835.575-1.393.577h-42.234-4.513c.172-2.502.479-5.101.981-7.721 1.196-6.28 3.427-12.58 6.837-17.593 1.704-2.512 3.691-4.707 5.991-6.491 2.3-1.781 4.908-3.161 7.957-4.054 4.249 1.272 9.999 3.647 15.053 7.832 2.778 2.295 5.354 5.118 7.443 8.63zm16.035-215.93-3.644 3.987c-4.324 4.727-10.296 7.203-16.36 7.206-3.866-.001-7.748-1.005-11.267-3.087 0-12.126 0-19.608 0-24.1 0-4.791 0-6.176 0-6.182 0-2.402-1.947-4.35-4.349-4.35-.994 0-1.899.347-2.631.908-1.084-.832-2.537-1.148-3.94-.711l-15.141 4.716c-4.525 1.409-9.175 2.099-13.799 2.099-9.96 0-19.789-3.206-27.938-9.346l-9.777-7.365c-3.714-2.8-8.147-4.204-12.562-4.203-4.417-.001-8.849 1.404-12.563 4.203l-9.775 7.364c-8.151 6.141-17.981 9.346-27.94 9.346-4.624 0-9.275-.691-13.799-2.099l-12.085-3.765v-55.903l144.092-199.658c.239-.332.406-.69.54-1.056 3.081 1.437 6.347 3.241 9.664 5.432 9.502 6.268 19.392 15.604 26.858 27.962 7.468 12.369 12.565 27.737 12.571 46.401v44.825 101.48c0 9.255 1.892 18.412 5.563 26.908l2.268 5.25c1.221 2.83 1.816 5.815 1.816 8.781-.001 5.438-1.996 10.793-5.802 14.957z"/><path d="m471.765 431.378h-20.929c-2.402 0-4.349 1.948-4.349 4.35s1.947 4.35 4.349 4.35h20.929c2.402 0 4.349-1.948 4.349-4.35s-1.947-4.35-4.349-4.35z"/><path d="m219.762 690.394c4.137-.001 7.97-1.678 10.768-4.431 2.801-2.745 4.596-6.648 4.591-10.981v-2.852c0-6.031-3.518-11.507-9.003-14.011l-.174-.079-70.077-24.298v-164.561l39.602-51.383c7.293-2.825 13.873-6.297 19.797-10.35 7.623-5.211 14.192-11.338 19.982-18.105 8.687-10.155 15.63-21.738 21.888-33.982 6.256-12.247 11.83-25.167 17.715-38.063.997-2.185.034-4.766-2.151-5.763s-4.765-.034-5.762 2.152c-5.272 11.557-10.229 22.965-15.539 33.715-7.961 16.135-16.711 30.747-28.346 42.318-4.314 4.292-9.025 8.173-14.262 11.588 2.393-5.464 3.408-11.171 3.408-16.638 0-1.835-.112-3.644-.322-5.412-.861-7.157-3.269-13.648-6.597-18.621-1.674-2.485-3.583-4.605-5.794-6.205-.351-.253-.714-.487-1.081-.712 2.706-2.803 5.568-6.096 8.576-9.989 2.627-3.403 5.206-7.489 7.804-12.111 4.541-8.084 9.131-17.812 13.784-28.198 6.973-15.572 14.077-32.623 21.125-47.554 3.522-7.463 7.029-14.394 10.466-20.311 3.431-5.915 6.815-10.817 9.932-14.166 1.634-1.76 1.532-4.512-.228-6.147s-4.511-1.533-6.146.228c-2.908 3.136-5.703 6.992-8.483 11.412-4.856 7.733-9.652 17.208-14.432 27.455-7.162 15.363-14.269 32.46-21.158 47.72-3.442 7.627-6.829 14.792-10.115 21.02-3.281 6.225-6.479 11.519-9.432 15.334-8.495 10.997-15.433 16.536-20.251 19.307-3.386 1.942-5.718 2.546-6.934 2.737.216-1.064.333-2.111.333-3.133.003-2.171-.497-4.21-1.377-5.968-1.322-2.647-3.435-4.623-5.782-5.938-2.356-1.317-4.969-2.02-7.577-2.12l-.066-.002h-3.003c.263-.532.425-1.123.425-1.757v-152.948h74.462c3.732.002 7.147-1.525 9.588-3.974 2.447-2.442 3.973-5.857 3.971-9.589v-31.236c.002-3.732-1.524-7.148-3.971-9.59-2.441-2.448-5.856-3.976-9.588-3.974-3.733-.002-7.147 1.525-9.588 3.974-2.447 2.442-3.973 5.857-3.971 9.59v17.673h-137.668c-3.203-2.892-7.031-5.11-11.255-6.397v-11.276c.002-3.732-1.524-7.148-3.971-9.59-2.441-2.448-5.856-3.976-9.588-3.974-3.733-.002-7.147 1.525-9.588 3.974-2.447 2.442-3.973 5.857-3.971 9.59v16.86c-.204.121-.404.256-.589.418-6.195 5.393-10.123 13.377-10.121 22.242 0 2.597.341 5.121.979 7.521l-.001-.003c.039.15.055.286.056.418.001.405-.171.822-.497 1.15-.332.324-.736.514-1.25.517h-5.394c-6.591-.002-12.594 2.683-16.908 7.004-4.321 4.315-7.005 10.319-7.003 16.91v68.54c0 7.507 3.524 14.578 9.519 19.097l33.866 25.525c3.457 2.606 7.517 4.241 11.772 4.807v59.53c0 26.143 7.822 51.682 22.447 73.343l.02.039.166.245c4.693 6.916 10.819 12.164 17.637 15.657 6.82 3.495 14.325 5.247 21.837 5.248 3.857 0 7.715-.48 11.487-1.409v146.292l-70.079 24.297-.174.079c-5.485 2.504-9.003 7.98-9.003 14.011v2.852c-.005 4.333 1.789 8.236 4.59 10.982 2.797 2.753 6.631 4.429 10.768 4.43 1.335 0 2.692-.177 4.034-.538l.006-.002c16.903-4.573 44.71-12.15 61.211-16.95 3.994-1.163 8.099-1.743 12.205-1.743 4.105 0 8.209.58 12.202 1.743 16.501 4.8 44.308 12.378 61.212 16.95 1.35.367 2.709.541 4.039.54zm-83.11-260.712h11.809c-.353.595-.569 1.282-.569 2.024v33.556c-3.218 4.094-7.016 7.314-11.167 9.708v-44.571c0-.246-.03-.484-.073-.717zm47.534-64.424c2.001-1.152 4.194-2.633 6.555-4.511.427-.241.722-.306 1.084-.315.28 0 .621.053 1.056.214.755.275 1.78.918 2.856 1.986 1.621 1.592 3.319 4.093 4.668 7.157 1.357 3.062 2.382 6.677 2.834 10.495.17 1.438.261 2.906.261 4.386 0 4.668-.899 9.43-2.984 13.868-2.031 4.31-5.173 8.339-9.881 11.81-4.29 1.567-8.872 2.9-13.797 3.966-2.348.508-3.839 2.824-3.331 5.172s2.823 3.839 5.171 3.331c.81-.175 1.585-.382 2.38-.571l-25.192 32.686v-23.226c0-.743-.216-1.429-.57-2.024h3.153l.062-.002c1.739-.065 3.478-.403 5.144-1.007 2.493-.908 4.851-2.421 6.649-4.627.895-1.101 1.64-2.376 2.152-3.793.514-1.416.792-2.971.791-4.598 0-2.999-.931-6.194-2.805-9.5.328-.271.643-.556.942-.856 2.374-2.369 3.864-5.677 3.863-9.3.001-3.623-1.489-6.931-3.863-9.3-.073-.073-.155-.138-.23-.209.075-.072.157-.136.23-.209 2.374-2.369 3.864-5.677 3.863-9.3.001-2.895-.962-5.58-2.555-7.755 2.136-.126 6.145-.882 11.494-3.968zm-23.023-14.084c1.421.514 2.655 1.354 3.471 2.365.412.508.729 1.057.952 1.672.222.616.353 1.3.354 2.111 0 1.518-.48 3.539-1.962 6.097-.096.166-.165.339-.232.513-.545-.069-1.096-.117-1.659-.117h-14.143c-2.018 0-3.654 1.636-3.654 3.655 0 2.018 1.636 3.655 3.654 3.655h14.143c1.607.001 3.053.65 4.131 1.723 1.073 1.078 1.722 2.525 1.723 4.132-.001 1.607-.65 3.054-1.723 4.132-1.077 1.073-2.524 1.722-4.131 1.723h-14.143c-2.018 0-3.654 1.636-3.654 3.655 0 2.018 1.636 3.655 3.654 3.655h14.143c1.607.001 3.053.65 4.131 1.723 1.073 1.078 1.722 2.525 1.723 4.132-.001 1.607-.65 3.054-1.723 4.132-1.077 1.073-2.524 1.722-4.131 1.723h-14.143c-2.018 0-3.654 1.636-3.654 3.655 0 2.018 1.636 3.655 3.654 3.655h14.143c.562 0 1.113-.048 1.658-.117.068.174.137.348.234.515 1.482 2.555 1.962 4.574 1.961 6.095-.003 1.08-.23 1.938-.609 2.704-.566 1.137-1.538 2.107-2.819 2.827-1.263.714-2.807 1.135-4.243 1.188h-28.571c-3.055-.002-5.788-1.228-7.794-3.229-2-2.007-3.227-4.74-3.228-7.795v-49.719c.001-3.056 1.228-5.789 3.228-7.796 2.006-2.001 4.739-3.228 7.794-3.229h5.751 22.827c.953.032 1.954.226 2.887.565zm63.582-181.732v-25.65c.002-1.554.619-2.926 1.636-3.95 1.023-1.018 2.394-1.635 3.947-1.636 1.553.002 2.923.619 3.947 1.636 1.017 1.024 1.634 2.396 1.636 3.95v31.236c-.002 1.553-.619 2.925-1.636 3.949-1.023 1.018-2.394 1.634-3.947 1.636h-82.438v160.924c0 .634.161 1.225.424 1.757h-12.014c.263-.532.425-1.123.425-1.757v-160.924h-47.866c-.384-3.992-1.599-7.776-3.454-11.172zm-176.041-25.65c.002-1.554.619-2.926 1.636-3.95 1.023-1.018 2.394-1.635 3.947-1.636 1.552.002 2.923.619 3.947 1.636 1.017 1.024 1.634 2.396 1.636 3.95v13.676c-.001.007-.004.012-.005.019-.08.452-.064.896.005 1.325v9.05l1.177 1.155v.001c.055.062.275.453.425 1.032.157.579.264 1.339.263 2.157 0 .917-.131 1.906-.414 2.835-.427 1.404-1.156 2.641-2.263 3.598-1.084.923-2.574 1.678-4.958 1.964-1.475-.05-2.779-.651-3.76-1.627-1.017-1.024-1.634-2.396-1.636-3.949zm-34.384 154.303c-3.995-3.011-6.344-7.723-6.344-12.726v-68.54c.002-4.414 1.777-8.373 4.667-11.27 2.897-2.89 6.855-4.666 11.268-4.668h5.394c2.704.003 5.167-1.116 6.898-2.862 1.737-1.741 2.823-4.152 2.825-6.783 0-.812-.104-1.641-.321-2.458l-.001-.003c-.463-1.745-.711-3.575-.712-5.474.001-3.82.996-7.391 2.735-10.494v2.211c-.002 3.732 1.524 7.148 3.971 9.589 2.35 2.357 5.605 3.846 9.175 3.953.008.001.017 0 .025.001.13.004.257.019.388.019.067 0 .129-.016.195-.02.069-.003.136.007.206 0 2.603-.261 4.924-.966 6.898-2.04 2.973-1.605 5.08-4.029 6.344-6.586 1.274-2.566 1.778-5.253 1.781-7.738-.002-1.689-.233-3.291-.695-4.773-.233-.742-.526-1.455-.904-2.14-.084-.151-.173-.3-.266-.449v-1.272c3.066 1.345 5.81 3.387 7.981 5.941 3.244 3.818 5.191 8.679 5.19 13.832 0 .239-.004.477-.012.713v-.005c-.055 1.6-.286 3.15-.675 4.639l.003-.014c-.222.84-.326 1.684-.325 2.504.001 2.607 1.041 5.027 2.77 6.797.865.887 1.909 1.617 3.086 2.124 1.176.508 2.487.789 3.843.788h5.392c4.412.002 8.371 1.778 11.267 4.668 2.89 2.897 4.665 6.855 4.667 11.269v68.541c0 5.002-2.349 9.715-6.344 12.726l-33.866 25.525c-2.96 2.232-6.567 3.439-10.274 3.439h-2.091c-3.707 0-7.314-1.207-10.274-3.439zm102.942 182.065c-6.16 0-12.31-1.439-17.87-4.29-5.561-2.853-10.535-7.102-14.406-12.798l-.003-.004c-13.769-20.278-21.129-44.226-21.129-68.739v-59.53c4.254-.567 8.314-2.202 11.771-4.807l33.866-25.525c5.994-4.518 9.519-11.589 9.519-19.097v-68.541c.002-6.591-2.682-12.595-7.003-16.91-4.314-4.321-10.317-7.006-16.907-7.004h-5.394c-.271-.001-.486-.052-.686-.137-.595-.249-1.045-.904-1.037-1.595 0-.155.019-.305.06-.462l.003-.014c.181-.694.328-1.402.459-2.116h40.243v152.947c0 .644.167 1.244.438 1.783-4.848.133-9.258 2.145-12.45 5.344-3.311 3.306-5.371 7.913-5.369 12.964v49.719c-.002 5.051 2.057 9.657 5.369 12.963 3.113 3.119 7.385 5.104 12.089 5.326-.048.247-.076.5-.076.761v48.035c-3.735 1.143-7.609 1.727-11.487 1.727zm25.047 183.025c-4.857 0-9.714.687-14.433 2.06-16.374 4.763-44.186 12.344-61.065 16.909l.006-.002c-.676.182-1.331.264-1.963.265-1.959.001-3.811-.799-5.175-2.14-1.36-1.349-2.203-3.157-2.208-5.295v-2.852c0-2.871 1.659-5.475 4.245-6.701l75.009-26.008v-154.706c.365-.163.735-.313 1.096-.485 3.56-1.696 6.944-3.883 10.071-6.518v161.709l75.009 26.008c2.587 1.226 4.245 3.831 4.245 6.701v2.852c-.005 2.136-.849 3.944-2.209 5.294-1.364 1.341-3.216 2.142-5.175 2.141-.638 0-1.291-.083-1.957-.262-16.879-4.566-44.691-12.146-61.065-16.91-4.718-1.373-9.575-2.06-14.431-2.06z"/><path d="m60.494 691.753c-3.886-.002-7.444 1.587-9.985 4.136-2.549 2.542-4.138 6.1-4.136 9.987-.002 3.886 1.588 7.444 4.136 9.986 2.542 2.549 6.099 4.139 9.985 4.137 3.885.002 7.443-1.588 9.985-4.137 2.549-2.542 4.138-6.1 4.136-9.986.002-3.887-1.588-7.445-4.136-9.987-2.542-2.549-6.1-4.138-9.985-4.136z"/><path d="m224.123 691.753c-3.886-.002-7.444 1.587-9.985 4.136-2.549 2.542-4.139 6.1-4.137 9.987-.002 3.886 1.588 7.444 4.137 9.986 2.542 2.549 6.099 4.139 9.985 4.137 3.885.002 7.443-1.588 9.985-4.137 2.549-2.542 4.138-6.1 4.136-9.986.002-3.887-1.587-7.445-4.136-9.987-2.542-2.549-6.1-4.138-9.985-4.136z"/><path d="m84.796 221.559c0-2.203-1.786-3.989-3.988-3.989h-43.645c-2.203 0-3.988 1.786-3.988 3.989s1.785 3.989 3.988 3.989h43.645c2.202 0 3.988-1.786 3.988-3.989z"/></g></svg>