<!--?xml version="1.0" encoding="utf-8"?-->
<!-- Generator: Adobe Illustrator 22.1.0, SVG Export Plug-In . SVG Version: 6.00 Build 0)  -->
<svg version="1.1" id="_x31_9" xmlns="http://www.w3.org/2000/svg" xmlns:xlink="http://www.w3.org/1999/xlink" x="0px" y="0px" viewBox="0 0 284 720" style="enable-background:new 0 0 284 720;" xml:space="preserve">
<style type="text/css">
	.st0{fill:#6C859B;}
	.st1{fill:#768FA5;}
	.st2{fill:#FFD7C5;}
	.st3{fill:#FFFFFF;}
	.st4{fill:#8AA3B9;}
	.st5{fill:#231815;}
</style>
<g>
	<polygon class="st0" points="51.946,453.122 58.744,668.54 115.05,668.54 134.47,495.244 152.696,677.31 210.452,677.31 
		214.185,453.122 130.649,383.177 	" style="opacity: 1; stroke: none; stroke-width: 7px;"></polygon>
	<path class="st1" d="M226.234,447.641l-10.871,3.294c-18.341,14.071-50.398,9.424-68.968-4.337l-15.258-7.818l-21.695,12.026
		c-9.1,6.651-17.516,12.107-28.239,12.107c-10.594,0-21.189-3.241-30.22-9.733v-18.607H11.256
		c1.294-5.096,1.952-10.351,1.952-15.646V317.453c0,0,0-7.978,0-44.834c0-21.291,6.392-38.671,15.453-52.213
		c0,0,16.529-18.507,20.631-22.028c4.879-4.188,9.967-7.329,14.796-9.563c6.771-3.142,13.004-4.518,17.365-4.518
		c30.937-17.444,68.637-17.815,99.911-0.984l1.829,0.984c18.62,0,44.726,10.886,44.726,70.208c0,36.856,0,83.893,0,83.893v79.656
		C227.919,423.351,226.234,447.641,226.234,447.641z" style="opacity: 1; stroke: none; stroke-width: 7px;"></path>
	<path class="st2" d="M11.251,437.569c-0.825,3.251-1.905,6.44-3.24,9.535l-2.265,5.251c-4.132,9.578-2.268,20.694,4.762,28.395
		l3.639,3.987c8.454,9.261,22.234,11.317,33.016,4.924l2.125-1.259h1.699v-50.831H11.251z" style="opacity: 1; stroke: none; stroke-width: 7px;"></path>
	<path class="st2" d="M12.21,434.523c-0.825,3.251-1.905,6.44-3.24,9.535l-2.265,5.25c-4.132,9.579-2.268,20.695,4.762,28.396
		l3.639,3.987c8.454,9.261,22.235,11.317,33.016,4.924l2.124-1.259h1.699v-50.831H12.21z" style="opacity: 1; stroke: none; stroke-width: 7px;"></path>
	<path class="st3" d="M85.003,181.996c0,0-18.016,6.157-18.673,8.29c-0.657,2.133,55.502,75.111,55.502,75.111
		s5.997,4.679,10.268,4.203c4.272-0.476,10.007-7.776,10.007-7.776l59.916-78.161l-34.001-13.083
		c-21.076-14.842-49.559-13.305-68.922,3.719L85.003,181.996z" style="opacity: 1; stroke: none; stroke-width: 7px;"></path>
	<path class="st4" d="M76.995,198.324c-40.754,12.813-49.606,53.38-49.606,73.802c0,27.603,0,162.393,0,162.393H12.215
		c1.294-5.096,1.952-10.351,1.952-15.646V317.398c0,0,0-7.978,0-44.834c0-21.291,6.392-38.671,15.453-52.213
		c0,0,16.529-18.507,20.631-22.028c4.879-4.188,9.967-7.329,14.796-9.563L76.995,198.324z" style="opacity: 1;"></path>
	<path class="st2" d="M200.625,98.457L200.625,98.457v-7.238c0-32.613-33.971-63.749-70.012-63.749S60.601,58.605,60.601,91.218
		v7.347c-12.458,1.144-22.216,11.631-22.216,24.406c0,13.16,10.354,23.896,23.348,24.487c6.171,28.534,36.699,53.357,68.879,53.357
		c32.17,0,62.688-24.807,68.873-53.328h1.139c13.519,0,24.478-10.976,24.478-24.516C225.103,109.433,214.143,98.457,200.625,98.457z
		" style="opacity: 1; stroke: none; stroke-width: 7px;"></path>
	<path class="st1" d="M231.891,204.86c9.405,11.733,26.888,38.76,37.208,82.943c10.321,44.184,14.077,58.382,5.114,68.736
		c-8.963,10.354-19.399,19.752-46.294,19.536c-16.677-0.133-43.441,0-43.441,0l17.544-151.142L231.891,204.86z" style="opacity: 1; stroke: none; stroke-width: 7px;"></path>
	<path class="st3" d="M226.234,199.532l13.42,176.546l-109.195-0.004c0,0-0.211,9.912-19.325,6.612
		c-19.113-3.3-24.219-18.122-21.666-27.542c2.553-9.421,12.94-22.82,12.94-22.82L65.047,188.761c0,0,20.256-5.176,21.967-3.314
		c1.712,1.861,72.453,126.192,72.453,126.192l35.307-130.765L226.234,199.532z" style="opacity: 1; stroke: none; stroke-width: 7px;"></path>
	<path class="st5" d="M240.126,683.037c-3.086-3.92-6.643-6.974-10.208-9.344c-5.353-3.554-10.723-5.589-14.787-6.765
		c-1.086-0.313-2.075-0.563-2.951-0.765c0.584-10.807,2.313-43.07,4.043-77.593c1.062-21.205,2.125-43.26,2.922-61.726
		c0.399-9.233,0.731-17.569,0.965-24.458c0.233-6.894,0.367-12.323,0.368-15.827c0-13.599,0-21.79,0-26.58c0-2.191,0-3.663,0-4.623
		l7.049-2.198c2.29-0.714,3.569-3.152,2.856-5.446c-0.713-2.294-3.148-3.574-5.437-2.86l0,0l-30.493,9.507
		c-4.52,1.409-9.165,2.1-13.782,2.1c-9.946,0-19.761-3.205-27.9-9.346l-9.763-7.366c-2.493-1.882-5.313-3.118-8.231-3.736
		c0.006-0.095,0.029-0.186,0.029-0.283v-22.385c0-2.402-1.945-4.35-4.343-4.35c-2.399,0-4.344,1.947-4.344,4.35v22.385
		c0,0.097,0.022,0.188,0.029,0.283c-2.919,0.618-5.738,1.854-8.231,3.736l-9.763,7.366c-8.141,6.142-17.956,9.346-27.901,9.346
		c-4.618,0-9.263-0.691-13.781-2.1l-12.069-3.764V287.259c0-2.402-1.945-4.35-4.343-4.35c-2.399,0-4.343,1.947-4.343,4.35l0,144.12
		H27.201c-2.399,0-4.344,1.947-4.344,4.35c0,2.402,1.945,4.35,4.344,4.35h18.512v13.72l0,0c0,0.006,0,1.391,0,6.182
		c0,4.492,0,11.974,0,24.101c-3.518,2.082-7.393,3.086-11.253,3.087c-6.057-0.003-12.021-2.478-16.338-7.207l-3.64-3.986
		c-3.803-4.165-5.795-9.52-5.796-14.954c0-2.966,0.594-5.95,1.815-8.781l2.265-5.251c3.664-8.496,5.556-17.653,5.556-26.908V318.6
		c0,0,0-7.971,0-44.825c0.009-20.411,6.092-36.888,14.712-49.796c1.335-1.996,0.801-4.698-1.192-6.034
		c-1.993-1.337-4.691-0.803-6.025,1.193l0,0c-9.491,14.174-16.19,32.466-16.182,54.637c0,36.854,0,44.825,0,44.825V420.08
		c0,8.068-1.648,16.051-4.843,23.458l-2.265,5.251C0.83,452.724,0,456.889,0,461.02c-0.001,7.561,2.779,15.026,8.072,20.824
		l3.639,3.986c6.004,6.579,14.332,10.04,22.749,10.037c3.832,0.001,7.69-0.731,11.361-2.193c0.062,2.551,0.149,5.462,0.259,8.713
		c0.816,24.103,2.85,65.978,4.68,101.857c1.442,28.264,2.757,52.783,3.251,61.921c-0.515,0.118-1.055,0.247-1.646,0.402
		c-5.009,1.324-12.611,4.043-19.638,9.73c-3.507,2.843-6.859,6.443-9.57,10.948c-2.713,4.502-4.771,9.901-5.746,16.232l-0.051,0.332
		v5.52c-0.002,2.933,1.199,5.628,3.121,7.545c1.915,1.924,4.606,3.128,7.534,3.125h76.548c2.729,0.001,5.265-1.045,7.153-2.763
		c1.893-1.713,3.183-4.138,3.449-6.858l0,0.005l4.047-40.514L133.1,528.712l17.925,181.667c0.266,2.72,1.556,5.145,3.448,6.858
		c1.889,1.718,4.425,2.764,7.154,2.763h76.548c2.928,0.002,5.619-1.201,7.533-3.125c1.921-1.917,3.123-4.612,3.121-7.545v-5.52
		l-0.051-0.332C247.482,695.034,244.244,688.256,240.126,683.037z M138.602,496.022c-0.236-2.39-2.362-4.137-4.749-3.9
		c-0.262,0.026-0.512,0.083-0.757,0.153c-0.246-0.07-0.498-0.127-0.761-0.153c-2.387-0.236-4.513,1.511-4.748,3.902l-16.673,169.461
		H62.673c-0.639-11.839-2.584-48.133-4.428-85.328c-0.991-20.001-1.954-40.26-2.668-57.1c-0.357-8.42-0.652-15.985-0.857-22.23
		c-0.206-6.241-0.321-11.178-0.32-14.266c0-13.599,0-21.79,0-26.58c0-0.095,0-0.18,0-0.272l9.487,2.958
		c5.363,1.673,10.88,2.494,16.363,2.494c11.807,0,23.463-3.806,33.127-11.097l9.763-7.366c2.17-1.637,4.736-2.451,7.318-2.452
		c2.581,0.002,5.147,0.815,7.318,2.452l9.763,7.366c9.664,7.291,21.32,11.098,33.127,11.097c5.483,0,11-0.821,16.364-2.494
		l14.758-4.601c0,0.57,0,1.2,0,1.915c0,4.791,0,12.981,0,26.58c0,3.295-0.131,8.69-0.363,15.533
		c-0.811,23.975-2.844,65.853-4.673,101.708c-0.915,17.929-1.778,34.357-2.414,46.303c-0.317,5.973-0.578,10.825-0.759,14.183
		c-0.023,0.424-0.044,0.823-0.065,1.198h-48.194L138.602,496.022z" style="opacity: 1;"></path>
	<path class="st5" d="M135.168,394.495c0-3.149-2.549-5.703-5.693-5.703s-5.693,2.553-5.693,5.703c0,3.148,2.549,5.702,5.693,5.702
		S135.168,397.644,135.168,394.495z" style="opacity: 1;"></path>
	<path class="st5" d="M103.803,122.972c4.246,0,7.72-3.479,7.72-7.731v-0.001c0-4.253-3.474-7.732-7.72-7.732
		c-4.247,0-7.721,3.479-7.721,7.732v0.001C96.082,119.492,99.556,122.972,103.803,122.972z" style="opacity: 1;"></path>
	<path class="st5" d="M157.422,122.972c4.246,0,7.72-3.479,7.72-7.731v-0.001c0-4.253-3.474-7.732-7.72-7.732
		c-4.247,0-7.721,3.479-7.721,7.732v0.001C149.701,119.492,153.175,122.972,157.422,122.972z" style="opacity: 1;"></path>
	<path class="st5" d="M126.611,142.883h8.672c1.095,0,1.983-0.889,1.983-1.987c0-1.097-0.888-1.986-1.983-1.986h-5.796
		c-1.364,0-2.613-0.765-3.235-1.981l-0.52-1.017c-0.449-0.878-1.773-0.558-1.773,0.428v3.886
		C123.959,141.694,125.146,142.883,126.611,142.883z" style="opacity: 1;"></path>
	<path class="st5" d="M153.2,90.61h8.445c1.924,0,3.498-1.578,3.498-3.504c0-1.927-1.574-3.505-3.498-3.505H153.2
		c-1.924,0-3.499,1.578-3.499,3.505C149.701,89.032,151.276,90.61,153.2,90.61z" style="opacity: 1;"></path>
	<path class="st5" d="M118.863,167.461c1.117,0,2.062-0.75,2.36-1.777h18.778c0.297,1.025,1.243,1.777,2.361,1.777
		c1.355,0,2.458-1.104,2.458-2.462v-4.247c0-1.357-1.103-2.461-2.458-2.461c-1.116,0-2.061,0.75-2.36,1.778h-18.777
		c-0.297-1.026-1.243-1.778-2.362-1.778c-1.355,0-2.457,1.104-2.457,2.461V165C116.405,166.357,117.508,167.461,118.863,167.461z" style="opacity: 1;"></path>
	<path class="st5" d="M277.623,304.412c-1.71-6.855-3.676-15.416-6.124-24.778c-3.677-14.048-8.436-29.909-15.172-44.758
		c-6.737-14.824-15.434-28.698-27.268-38.646c-0.004-0.003-0.008-0.006-0.011-0.01c-0.009-0.008-0.018-0.016-0.027-0.024
		l-0.036-0.03l-0.012-0.01c-0.133-0.107-4.454-3.615-11.572-7.721c-7.121-4.101-17.036-8.819-28.451-11.243
		c-0.065-0.014-0.128-0.01-0.193-0.021c0.86-1.007,1.701-2.027,2.503-3.071c4.166-5.425,7.535-11.345,9.872-17.582
		c0.612-1.634,1.149-3.292,1.614-4.966c7.05-0.519,13.419-3.598,18.118-8.31c5.173-5.175,8.386-12.368,8.384-20.271
		c0.002-7.903-3.211-15.096-8.384-20.27c-3.23-3.239-7.248-5.71-11.733-7.107v-0.812c9.559-1.279,18.908-10.9,18.276-15.353
		c-0.726-5.111-16.286-7.383-22.498-20.086h-0.018c-0.562-1.618-1.157-3.221-1.822-4.788c-5.853-13.791-15.596-25.524-27.843-33.83
		c-6.124-4.152-12.878-7.448-20.085-9.706c-7.205-2.257-14.864-3.475-22.775-3.474c-0.098-0.238-0.386-0.225-0.832,0h-2.676
		c-3.302,0-6.552,0.235-9.75,0.646C101.734,8.669,71.156,8.19,51.38,0.398c-3.413-1.344-7.266,0.853-7.786,4.488
		c-1.271,8.891,2.18,19.614,5.148,26.775c1.324,3.195-1.601,6.513-4.933,5.602l-5.273-1.441c-3.941-1.077-7.743,2.163-7.28,6.229
		c0.794,6.978,2.675,17.461,7.129,28.087c5.357,12.781,10.833,22.678,13.062,26.546c-3.317,1.446-6.31,3.497-8.824,6.018
		c-5.173,5.174-8.386,12.367-8.384,20.27c-0.002,7.903,3.21,15.096,8.384,20.271c4.179,4.191,9.676,7.094,15.801,8.051
		c1.063,3.893,2.515,7.695,4.34,11.349c3.471,6.942,8.209,13.378,13.872,19.042c-0.62,0.12-1.249,0.256-1.89,0.411
		c-4.003,0.973-8.415,2.625-13.049,4.953c-4.631,2.328-9.478,5.335-14.287,9.034c-1.902,1.463-2.26,4.194-0.799,6.099
		c1.461,1.905,4.188,2.263,6.09,0.8l0,0c3.527-2.714,7.068-5.002,10.47-6.876c1.415,5.9,4.09,16.571,7.371,29.511
		c9.995,39.415,25.546,99.616,27.463,107.037l-5.778,6.375c-4.825,5.321-7.278,12.095-7.276,18.868
		c-0.002,5.948,1.889,11.936,5.702,16.964l2.046,2.701c4.705,6.209,12.011,9.878,19.784,9.957c0.009,0,0.017,0,0.026,0.001
		c0.077,0.001,0.153,0.007,0.229,0.007c5.375,0,10.609-1.724,14.934-4.92l2.953-2.182h92.948v59.13c0,2.402,1.945,4.35,4.344,4.35
		c2.398,0,4.343-1.947,4.343-4.35v-59.13h7.317c0.268,0,0.534-0.012,0.801-0.016c0.046-0.002,0.089,0.007,0.136,0.003
		c0.012-0.001,0.023-0.005,0.035-0.006c19.433-0.419,36.439-13.338,42.021-32.062c1.042-3.514,1.424-7.332,1.428-11.24
		c-0.012-8.008-1.635-16.412-3.68-22.84C279.494,311.686,278.599,308.325,277.623,304.412z M220.798,200.904
		c0.483,0.341,0.9,0.644,1.259,0.908l13.415,169.913h-87.87l49.858-183.052c5.998,2.167,11.348,4.843,15.605,7.301
		C216.356,197.871,218.998,199.631,220.798,200.904z M158.791,297.59l-16.179-27.193l37.355-50.553L158.791,297.59z
		 M189.143,186.155l-3.92,14.391c-1.182,0.114-2.316,0.695-3.078,1.727l-40.229,54.443v-35.156h-22.915v9.154l-19.637-33.004
		c9.675,4.583,20.329,7.255,31.248,7.258c9.608-0.001,19.021-2.073,27.732-5.691c9.535-3.966,18.237-9.781,25.487-16.846
		c0.371,1.593,1.617,2.913,3.32,3.274C187.821,185.844,188.484,185.996,189.143,186.155z M67.854,153.602
		c-2.021-5.396-3.108-10.963-3.108-16.535c0-2.293-1.856-4.151-4.145-4.151c-2.289,0-4.145,1.859-4.145,4.151
		c0,1.788,0.118,3.565,0.3,5.333c-3.156-0.993-5.977-2.735-8.27-5.028c-3.686-3.698-5.953-8.763-5.955-14.4
		c0.002-5.636,2.269-10.701,5.955-14.399c1.087-1.087,2.305-2.032,3.608-2.851V119.3h0.763c6.935,0,12.557-5.631,12.557-12.576
		l21.991-21.798c3.359-3.329,9.029-0.574,8.497,4.128c-0.635,5.617,4.646,10.056,10.063,8.468
		c7.834-2.295,18.477-6.864,27.675-15.879c6.891-6.753,10.776-13.128,13.237-18.934c1.606-3.789,6.891-4.096,8.92-0.516
		c8.84,15.591,25.624,31.477,40.014,38.712v5.819c0,6.945,5.622,12.576,12.557,12.576h0.763v-14.808
		c2.189,1.013,4.178,2.388,5.871,4.08c3.686,3.698,5.953,8.763,5.955,14.399c-0.002,5.637-2.27,10.702-5.955,14.4
		c-2.84,2.839-6.491,4.825-10.583,5.598c0.223-1.955,0.351-3.924,0.351-5.903c0-2.293-1.856-4.151-4.145-4.151
		c-2.289,0-4.145,1.859-4.145,4.151h0c0,7.427-1.935,14.856-5.433,21.862c-5.239,10.506-14.016,20.009-24.674,26.816
		c-10.657,6.816-23.146,10.924-35.76,10.919c-8.413,0.001-16.761-1.819-24.556-5.058c-5.638-2.339-10.975-5.431-15.826-9.081
		c-0.335-0.37-0.732-0.659-1.157-0.889c-4.741-3.717-8.989-7.971-12.538-12.598C72.829,164.213,69.874,158.996,67.854,153.602z
		 M75.576,210.068c-1.517-6.038-2.771-11.086-3.643-14.686c-0.288-1.186-0.529-2.199-0.728-3.05
		c2.001-0.771,3.885-1.369,5.588-1.782c2.146-0.523,4.015-0.756,5.432-0.754c0.731,0,1.409-0.198,2.014-0.518l71.378,119.969
		l-3.681,13.514h-24.331h-9.623c-4.501,0-8.864,1.227-12.66,3.477c-3.028-11.726-10.916-42.299-18.418-71.61
		C82.696,238.187,78.61,222.145,75.576,210.068z M99.621,372.303l-2.047-2.701c-2.638-3.481-3.933-7.587-3.935-11.704
		c0.002-4.688,1.684-9.339,5.021-13.021l7.345-8.104c3.065-3.382,7.415-5.311,11.977-5.311h3.975l-12.465,47.018
		C105.596,377.693,102.068,375.532,99.621,372.303z M127.769,371.725l-5.251,3.881c-1.184,0.875-2.477,1.571-3.832,2.096
		l12.259-46.241h18.621l-10.967,40.263H127.769z M274.249,345.854c-4.132,13.864-16.035,23.787-30.085,25.578l-12.676-160.551
		c4.496,5.232,8.501,11.25,12.05,17.764c8.319,15.248,14.143,33.102,18.499,49.205c2.181,8.054,4.001,15.67,5.612,22.336
		c1.614,6.672,3.006,12.368,4.4,16.731c1.791,5.564,3.277,13.388,3.266,20.184C275.318,340.415,274.961,343.48,274.249,345.854z" style="opacity: 1;"></path>
</g>
</svg>
