<svg enable-background="new 0 0 720 491" viewBox="0 0 720 491" xmlns="http://www.w3.org/2000/svg"><path d="m406.98 283.141c3.863 0 2.243-9.783 2.395-13.802.073-1.945-.325-1.035.692-3.339.402-.911 1.962-2.145 2.726-2.784 18.088-15.117 29.594-37.848 29.594-63.267 0-45.512-36.886-82.407-82.388-82.407-45.501 0-82.388 36.895-82.388 82.407 0 25.419 11.507 48.151 29.594 63.267.764.639 2.324 1.872 2.726 2.784 1.018 2.304.619 1.395.693 3.339.152 4.019-1.469 13.802 2.395 13.802z" fill="#ffcd45"/><path d="m390.425 289.423v-45.274c.005-3.061-1.276-5.753-3.232-7.615-1.955-1.868-4.58-2.964-7.349-2.966-1.82-.002-3.699.484-5.421 1.52l-19.859 11.918c-3.328 1.996-5.138 5.517-5.132 9.074-.003 2.286.746 4.619 2.297 6.566l.604.76h.973v-2.014l-1.577 1.253c2.105 2.654 5.206 3.998 8.271 3.993 3.065.005 6.165-1.339 8.271-3.992 1.549-1.947 2.298-4.278 2.295-6.566.005-3.557-1.804-7.076-5.129-9.072l-19.861-11.919c-1.723-1.035-3.602-1.521-5.421-1.52-2.769.002-5.395 1.098-7.349 2.966-1.955 1.863-3.236 4.554-3.231 7.615v45.274h4.027l-.001-45.274c.005-1.943.777-3.535 1.989-4.705 1.213-1.164 2.871-1.851 4.564-1.848 1.116.002 2.25.287 3.35.946l19.86 11.919c2.066 1.241 3.171 3.401 3.175 5.618-.003 1.422-.454 2.84-1.421 4.059-1.319 1.656-3.202 2.466-5.119 2.471-1.917-.005-3.8-.815-5.117-2.47l-.605-.761h-.972v2.014l1.575-1.255c-.968-1.218-1.419-2.634-1.422-4.056.005-2.218 1.108-4.378 3.178-5.619l19.86-11.919c1.099-.658 2.232-.944 3.348-.945 1.692-.002 3.351.684 4.565 1.849 1.213 1.17 1.985 2.762 1.99 4.705v45.274h4.026z" fill="#00165f"/><path d="m406.978 283.138v25.472c0 24.008-19.452 43.464-43.454 43.464h-7.048c-11.209 0-21.438-4.243-29.144-11.225-8.793-7.949-14.31-19.443-14.31-32.239v-25.472z" fill="#002a73"/><path d="m406.978 283.138v25.472c0 24.008-19.452 43.464-43.454 43.464h-7.048c-11.209 0-21.438-4.243-29.144-11.225h51.616c8.631 0 16.122-16.945 16.122-16.945h-57.737v-7.599h59.617v-13.522h-59.617v-7.062h60.368l-.187-12.582h9.464z" fill="#00165f"/><path d="m277.292 448.453c14.712-12.268 26.936-29.625 32.406-48.16-1.026-.283-2.054-.566-3.081-.85-2.661 10.52-5.753 24.965-1.198 35.281 2.463 5.581 7.474 7.472 13.267 6 9.784-2.485 13.055-11.306 18.464-18.629 1.222-1.655-1.549-3.251-2.759-1.613-4.847 6.564-7.687 14.956-16.554 17.16-7.525 1.871-10.244-3.972-10.946-10.434-.962-8.858.635-18.324 2.808-26.916.505-1.996-2.498-2.823-3.081-.85-5.32 18.028-17.293 34.832-31.584 46.749-1.581 1.321.689 3.571 2.258 2.262z" fill="#00165f"/><path d="m434.144 403.226c-8.738-8.395-24.343 7.85-26.96 15.679-1.544 4.621.506 9.265 5.838 9.448 6.137.211 11.078-5.97 14.321-10.4 2.187-2.988 4.13-6.169 5.824-9.462.735-1.429 2.124-3.455 1.862-5.151-.107-.694-.897-1.158-1.54-1.172-1.744-.041-2.741 2.891-3.351 4.092-1.662 3.273-3.165 6.779-3.989 10.365-1.413 6.151.777 11.175 7.774 8.677 1.923-.687 1.094-3.775-.849-3.081-2.261.808-4.12 1.277-4.283-1.6-.118-2.09.713-4.382 1.376-6.329.749-2.202 1.678-4.345 2.73-6.419.324-.636 1.101-1.572 1.228-2.265.228-1.248 1.158-.205-.636-.245-.513-.391-1.026-.783-1.54-1.174-.185-1.201-.126-.077-.499.564-.549.943-.962 1.992-1.476 2.957-1.328 2.494-2.795 4.921-4.404 7.245-2.329 3.365-9.314 13.221-14.549 9.598-6.432-4.45 13.717-25.935 20.865-19.068 1.482 1.426 3.745-.831 2.258-2.259z" fill="#00165f"/><path d="m309.754 389.782c-.243.854-.486 1.709-.73 2.564-.229.802.28 1.774 1.116 1.966.85.193 1.721-.256 1.965-1.116.243-.855.486-1.71.73-2.564.228-.804-.279-1.775-1.116-1.966-.85-.194-1.72.256-1.965 1.116z" fill="#00165f"/><path d="m358.011 417.888c-5.423-8.565-15.306-4.881-21.517.796-4.103 3.749-11.625 14.242-2.763 17.239 15.286 5.173 25.364-17.354 29.535-27.822 5.148-12.916 8.794-26.662 11.174-40.363.349-2.008-2.414-2.824-3.081-.848-3.888 11.522-7.356 23.237-10.192 35.063-1.456 6.07-8.65 27.585.135 31.217 7.06 2.919 17.179-2.685 22.465-6.817 4.637-3.624 12.08-10.662 11.388-17.351-.54-5.21-6.408-5.945-10.427-4.104-5.716 2.62-9.708 9.865-10.066 15.982-.518 8.873 6.736 11.088 14.306 9.348 9.086-2.089 17.613-8.285 23.97-14.975 1.416-1.49-.839-3.754-2.259-2.259-4.782 5.033-32.396 24.829-32.866 8.923-.157-5.321 3.994-13.316 9.559-14.592 9.7-2.223.714 10.548-1.534 12.884-5.161 5.362-12.461 10.059-20.123 10.16-5.28.068-5.128-2.613-4.958-7.201.404-10.857 3.693-21.853 6.592-32.254 2.168-7.778 4.509-15.523 7.091-23.175-1.027-.283-2.054-.566-3.081-.848-1.262 7.262-2.991 14.472-4.96 21.571-3.635 13.113-8.024 28.157-17.312 38.476-2.642 2.933-11.186 9.449-15.463 5.444-2.425-2.27.815-6.606 2.379-8.551 4.229-5.261 14.191-12.319 19.25-4.33 1.097 1.732 3.863.131 2.758-1.613z" fill="#00165f"/><g fill="#fff08b"><path d="m254.32 142.644c-.265 0-.524-.075-.75-.217l-10.198-6.448c-.317-.201-.537-.513-.619-.879-.083-.366-.018-.742.183-1.061.259-.409.703-.655 1.189-.655.265 0 .525.076.75.218l10.199 6.449c.654.413.85 1.283.437 1.939-.261.409-.705.654-1.191.654z"/><path d="m237.553 132.04c-.273 0-.539-.079-.768-.229-6.609-4.321-13.447-8.56-20.061-12.659-1.821-1.127-3.641-2.256-5.461-3.388-.657-.41-.859-1.278-.451-1.937.258-.415.705-.663 1.194-.663.262 0 .518.073.741.213 1.826 1.136 3.653 2.268 5.482 3.402 6.615 4.099 13.454 8.337 20.094 12.679.315.205.53.521.606.888.077.367.006.743-.199 1.058-.261.398-.701.636-1.177.636z"/><path d="m204.304 111.143c-.266 0-.526-.076-.752-.22-3.049-1.936-5.828-3.734-8.496-5.5-.313-.207-.527-.523-.602-.891s-.002-.742.205-1.056c.26-.395.699-.63 1.173-.63.275 0 .543.08.774.235 2.564 1.697 5.329 3.486 8.452 5.469.654.416.848 1.287.433 1.941-.259.409-.704.652-1.187.652z"/><path d="m288.205 117.506c-.433 0-.835-.195-1.103-.535-5.449-6.895-11.186-13.773-16.733-20.424-4.269-5.119-8.684-10.411-12.952-15.693-.487-.603-.393-1.49.21-1.977.252-.204.557-.313.882-.313.428 0 .825.191 1.094.523 4.238 5.245 8.636 10.519 12.89 15.617 5.567 6.674 11.322 13.574 16.815 20.525.233.293.337.662.293 1.035-.045.373-.23.706-.525.939-.251.198-.552.303-.871.303z"/><path d="m252.58 74.118c-.423 0-.819-.188-1.088-.515l-15.235-18.554c-.239-.29-.349-.655-.313-1.029s.217-.711.507-.949c.251-.207.567-.32.891-.32.423 0 .818.187 1.087.513l15.235 18.556c.239.29.35.655.313 1.028-.036.375-.216.712-.506.95-.251.207-.568.32-.891.32z"/><path d="m325.435 97.745c-.599 0-1.133-.381-1.328-.948-3.167-9.193-6.524-18.616-9.77-27.729-4.037-11.333-8.212-23.051-12.035-34.363-.247-.735.148-1.532.882-1.781.146-.05.297-.075.45-.075.603 0 1.138.385 1.331.955 3.813 11.284 7.985 22.997 12.02 34.324 3.247 9.118 6.606 18.543 9.779 27.753.253.733-.139 1.535-.871 1.787-.149.05-.302.077-.458.077z"/><path d="m299.816 24.304c-.597 0-1.131-.379-1.328-.944l-3.239-9.287c-.124-.353-.102-.735.061-1.073.164-.338.449-.592.803-.716.15-.052.306-.078.464-.078.596 0 1.129.378 1.326.941l3.24 9.288c.254.73-.134 1.534-.865 1.79-.15.052-.305.079-.462.079z"/><path d="m367.043 101.47-.181-.012c-.372-.048-.704-.237-.934-.535-.229-.298-.329-.665-.281-1.038 1.17-9.157 2.321-18.318 3.473-27.48l1.791-14.22c.089-.701.687-1.229 1.391-1.229l.179.012c.768.096 1.315.8 1.218 1.569l-1.76 13.985c-1.162 9.24-2.323 18.481-3.504 27.72-.09.7-.688 1.228-1.392 1.228z"/><path d="m373.24 52.383-.177-.012c-.769-.098-1.315-.803-1.218-1.572 1.365-10.752 2.511-19.609 3.603-27.873.092-.696.69-1.221 1.391-1.221l.186.012c.768.102 1.31.811 1.209 1.577-1.106 8.366-2.249 17.217-3.599 27.857-.09.703-.689 1.232-1.395 1.232z"/><path d="m378.522 14.974-.179-.012c-.769-.098-1.314-.803-1.216-1.571l1.549-12.162c.089-.7.687-1.229 1.392-1.229l.179.012c.769.099 1.314.804 1.217 1.573l-1.549 12.161c-.09.699-.689 1.228-1.393 1.228z"/><path d="m407.9 100.417c-.218 0-.428-.05-.625-.148-.336-.166-.587-.455-.706-.812-.12-.356-.092-.737.075-1.073 2.243-4.505 4.513-8.997 6.785-13.494 4.84-9.577 9.843-19.48 14.55-29.465.231-.49.73-.805 1.271-.805.208 0 .409.045.598.134.34.16.596.441.723.793.127.354.11.736-.051 1.076-4.726 10.028-9.733 19.938-14.576 29.521-2.275 4.503-4.544 8.994-6.785 13.493-.239.481-.721.78-1.259.78z"/><path d="m433.741 48.264c-.211 0-.414-.047-.605-.138-.339-.162-.594-.447-.719-.801s-.104-.735.058-1.073l.592-1.24c3.521-7.362 7.16-14.976 11.155-22.295.246-.452.719-.733 1.234-.733.234 0 .466.06.672.173.33.179.569.477.675.837s.065.74-.115 1.071c-3.972 7.274-7.624 14.916-11.155 22.306l-.523 1.094c-.232.485-.73.799-1.269.799z"/><path d="m442.43 122.881c-.362 0-.706-.138-.968-.388-.562-.535-.584-1.426-.05-1.987l9.779-10.272c.268-.28.629-.436 1.018-.436.362 0 .707.137.969.388.561.534.582 1.426.048 1.987l-9.778 10.271c-.268.282-.629.437-1.018.437z"/><path d="m461.572 102.801c-.365 0-.711-.139-.974-.392-.271-.261-.424-.61-.431-.986-.008-.375.132-.731.392-1.001 3.349-3.484 6.707-6.957 10.067-10.426l1.237-1.277c11.112-11.474 22.603-23.338 33.482-35.367.267-.295.647-.463 1.043-.463.349 0 .683.129.942.363.278.252.442.598.461.972.019.375-.11.736-.361 1.013-10.915 12.07-22.406 23.934-33.519 35.409l-1.265 1.306c-3.36 3.469-6.716 6.94-10.06 10.419-.268.277-.628.43-1.014.43z"/><path d="m458.308 141.817c-.524 0-1.001-.287-1.245-.749-.175-.334-.211-.714-.1-1.072.111-.36.355-.653.687-.828 8.815-4.652 18.038-9.243 26.956-13.681 5.706-2.84 11.607-5.776 17.267-8.664.2-.102.415-.153.637-.153.531 0 1.012.293 1.252.766.171.335.201.715.085 1.073-.115.356-.363.647-.698.817-5.689 2.903-11.606 5.847-17.327 8.696-8.898 4.429-18.099 9.008-26.862 13.634-.2.105-.426.161-.652.161z"/><path d="m511.693 114.996c-.536 0-1.018-.298-1.258-.777-.168-.336-.196-.717-.077-1.073.118-.356.369-.646.705-.813 1.823-.912 3.668-1.9 5.452-2.854l2.029-1.08c.205-.11.426-.164.657-.164.522 0 .998.286 1.242.747.363.685.101 1.538-.583 1.901l-2.033 1.085c-1.79.956-3.641 1.948-5.506 2.879-.197.099-.409.149-.628.149z"/></g><path d="m245.542 162.851c-1.007 2.43-2.712 4.579-5.034 6.069l-9.343 6.042-1.101.712-1.154 1.531-13.867 18.368-.98 1.303-.711 2.148v.013l-9.223 28.063-5.625 29.728s0 0-.013.013l-1.302 6.848-.121.631-1.208 45.035c-.443 16.784-5.961 33.031-15.801 46.633l-13.653 18.812-58.582 116.2h-107.824l57.885-99.979c10.081-14.891 20.257-40.98 18.566-58.704-3.772-39.892-10.041-114.521-7.679-150.077 2.873-43.182 48.193-105.552 60.315-121.517 1.342-1.786 4.094-1.504 5.061.497l.537 1.115 2.631 5.425c1.96 4.042 1.732 8.808-.617 12.635l-17.049 27.781-1.946 3.169-.376 1.262-14.565 50.124-.725 2.471 3.396 41.087c.148 1.813 1.611 3.236 3.41 3.33l.242.014c1.718.107 3.275-1.034 3.705-2.699l14.163-54.34 22.19-47.13 41.938-43.518c1.369-1.41 3.705-1.141 4.712.537l3.114 5.156c2.779 4.619 2.457 10.473-.792 14.756l-26.15 34.401-2.094 2.753-1.141 2.605-17.827 40.94-.362.806-.121 5.008-1.061 41.893 1.732.926 21.774-59.671 19.613-31.796 2.417-3.988 27.64-23.712c1.705-1.464 4.377-.591 4.873 1.611l1.557 6.982c.994 4.431-.362 9.063-3.598 12.245l-16.914 16.703-.899.9-1.437 3.411-16.055 38.039-1.624 3.827-.295 2.175-5.075 36.496 1.289.524 22.056-37.382 14.995-12.568 3.101-2.592 17.29-9.882c1.745-.994 3.96-.027 4.404 1.947.6 2.685.332 5.425-.662 7.855z" fill="#ff855f"/><path d="m154.254 345.533c2.133-4.262 1.938-9.315-.531-13.391-5.855-9.665-11.241-20.678-11.037-28.964.376-15.274 8.094-47.642 1.789-57.804-6.304-10.162-25.124-18.366-33.776-21.791s-17.06-19.986-17.06-19.986c-1.376-6.775-2.505-34.49-3.257-42.274-.753-7.784 14.67-50.691 20.317-58.595s18.441-33.417 21.075-32.704 6.021 2.971 0 9.746-20.338 33.963-24.092 42.387-10.059 30.454-10.857 43.715 4.846 44.873 7.48 48.45 11.289 7.827 17.309 4.197c6.021-3.63 8.981-45.836 13.521-55.784 4.541-9.948 27.128-59.253 27.128-59.253s26.706-29.734 30.469-30.863 3.98.376-1.585 7.151-19.208 22.248-24.616 32.013-19.515 44.267-22.057 57.126-3.983 41.463-1.569 47.485 14.407 8.185 18.194 4.657 5.102-8.898 7.643-22.021 19.474-59.04 19.474-59.04 11.815-20.507 21.147-27.379 13.848-15.528 13.848-11.012-2.634 7.193-4.892 10.183-14.299 18.179-17.309 22.629c-3.01 4.449-15.803 30.927-17.873 40.271s-6.74 44.423-4.781 48.901 9.496 0 9.496 0 13.157-32.407 16.356-34.288 21.457-22.382 24.181-23.423 13.637-10.665 14.013-7.735.376 5.389-3.01 7.735c-3.387 2.346-7.984 6.403-13.775 11.337-5.792 4.935-13.319 14.502-17.161 21.821-4.248 8.091-9.827 26.95-12.891 47.573-4.803 32.326-2.832 50.334-7.348 68.4-3.669 14.679-12.086 34.914-18.081 37.545-3.184 1.397-5.912 3.647-7.354 6.811-13.015 28.551-56.3 123.006-60.023 124.584-4.387 1.86-20.502 1.86-18.642 0 1.611-1.612 55.709-109.586 70.137-138.41z" fill="#ff946e"/><path d="m115.603 239.059c3.042-5.089 8.264-5.379 12.303-2.099 4.04 3.28 8.502 8.448 7.23 13.58s-10.267 19.048-10.448 22.173-2.133 6.207-2.133 6.207l5.174 23.075s10.043 9.424 12.287 24.344c2.244 14.919-11.986 31.396-33.6 36.983s-1.355-29.803-1.355-29.803z" fill="#f77b55"/><path d="m128.471 246.937c.493 2.2.466 4.525-.152 6.778-.31 1.176-.788 2.332-1.433 3.435l-9.703 16.647 3.601 34.148 4.2 8.391c9.268 18.537-.108 40.987-19.81 47.422l-13.877 4.531-4.748 1.549.732-30.13 4.771-65.861 19.136-33.619c1.892-3.325 6.03-4.638 9.49-3.014 4.141 1.947 6.873 5.619 7.793 9.723z" fill="#ff855f"/><path d="m128.471 246.937c.493 2.2.466 4.525-.152 6.778-2.241-6.815-8.097-16.055-9.659-14.508-2.011 1.992-22.442 35.426-22.442 35.426s-3.849 69.645-4.921 93.656c-2.318.756-4.686-1.008-4.627-3.446l.611-25.136 4.771-65.861 19.136-33.619c1.892-3.325 6.03-4.638 9.49-3.014 4.141 1.948 6.873 5.62 7.793 9.724z" fill="#e86c46"/><path d="m119.649 108.174-1.944 3.165-.371 1.271-6.635-5.296z" fill="#f57b55"/><path d="m102.759 162.734-.715 2.471.033 3.803-8.437-5.04z" fill="#f57b55"/><path d="m171.964 116.793-2.094 2.756-1.135 2.607-7.635-10.374z" fill="#f57b55"/><path d="m150.896 163.096-.353.8-.13 5.011-12.359-7.585z" fill="#f57b55"/><path d="m208.456 130.109-.898.889-1.439 3.412-6.683-9.931z" fill="#f57b55"/><path d="m190.056 172.453-1.617 3.821-.299 2.173c-4.413-3.205-9.783-7.532-9.783-7.532z" fill="#f57b55"/><path d="m215.041 195.577-.978 1.301-.714 2.151c-2.062-3.864-3.985-7.98-3.985-7.98z" fill="#f57b55"/><path d="m231.163 174.966-1.094.712-1.156 1.53c-1.784-3.426-3.295-6.66-3.295-6.66z" fill="#f57b55"/><path d="m197.191 261.132.002 2.56c-15.258-1.404-55.36-5.281-56.856-7.461-1.837-2.678 55.874 4.842 56.854 4.901z" fill="#f57b55"/><path d="m87.24 208.988c12.454-2.79 18.839-2.755 18.426-1.679s-.517.609-.517.609-16.253 2.62-17.581 2.531c-1.329-.088-.328-1.461-.328-1.461z" fill="#f57b55"/><path d="m132.888 206.274c6.329.283 15.933 2.455 14.138 3.196-1.796.741-14.83-1.241-16.682-1.48s-1.859-1.912 2.544-1.716z" fill="#f57b55"/><path d="m165.875 209.679c6.492.906 17.171 3.66 16.03 4.407-1.141.746-7.148-.523-7.148-.523s-9.155-.726-11.528-1.829-.583-2.506 2.646-2.055z" fill="#f57b55"/><path d="m199.988 223.276c-5.46-1.405-11.922-5.985-7.21-4.446 3.881 1.268 6.745 1.081 10.204 3.12s-1.329 1.754-2.994 1.326z" fill="#f57b55"/><path d="m118.347 255.654c-3.822 6.244-7.648 19.612-7.648 19.612s-.831 32.076 0 35.348 8.166 23.314 0 38.039c-3.258 8.18 3.833 6.953 7.648 0s2.266-32.026-3.173-39.266l-1.106-34.121s8.658-18.642 9.194-21.505-.288-5.666-4.915 1.893z" fill="#ff946e"/><path d="m134.685 62.334c-1.504 1.396-3.329 2.901-5.517 4.512-14.364 10.581-51.68 94.476-51.68 110.362 0 8.384 14.565 96.638 14.565 96.638s.692 66.913-5.175 82.461c-5.034 13.347-62.634 108.913-77.32 134.693h-9.558l57.885-99.979c10.081-14.891 20.257-40.98 18.566-58.704-3.772-39.892-10.041-114.521-7.679-150.077 2.873-43.182 48.193-105.552 60.315-121.517 1.342-1.786 4.094-1.504 5.061.497z" fill="#e86c46"/><path d="m474.458 162.851c1.007 2.43 2.712 4.579 5.034 6.069l9.343 6.042 1.101.712 1.154 1.531 13.867 18.368.98 1.303.711 2.148v.013l9.223 28.063 5.625 29.728s0 0 .013.013l1.302 6.848.121.631 1.208 45.035c.443 16.784 5.961 33.031 15.801 46.633l13.652 18.811 58.583 116.201h107.824l-57.885-99.979c-10.081-14.891-20.257-40.98-18.566-58.704 3.772-39.892 10.041-114.521 7.679-150.077-2.873-43.182-48.193-105.552-60.315-121.517-1.342-1.786-4.094-1.504-5.061.497l-.537 1.115-2.631 5.425c-1.96 4.042-1.732 8.808.617 12.635l17.049 27.781 1.946 3.169.376 1.262 14.565 50.124.725 2.471-3.396 41.087c-.148 1.813-1.611 3.236-3.41 3.33l-.242.014c-1.718.107-3.275-1.034-3.705-2.699l-14.163-54.34-22.19-47.13-41.938-43.518c-1.369-1.41-3.705-1.141-4.712.537l-3.114 5.156c-2.779 4.619-2.457 10.473.792 14.756l26.15 34.401 2.094 2.753 1.141 2.605 17.827 40.94.362.806.121 5.008 1.061 41.893-1.732.926-21.774-59.671-19.613-31.796-2.417-3.988-27.64-23.712c-1.705-1.464-4.377-.591-4.874 1.611l-1.557 6.982c-.994 4.431.362 9.063 3.598 12.245l16.914 16.703.899.9 1.437 3.411 16.055 38.039 1.624 3.827.295 2.175 5.075 36.496-1.289.524-22.056-37.382-14.995-12.568-3.101-2.592-17.29-9.882c-1.745-.994-3.96-.027-4.404 1.947-.599 2.685-.331 5.425.663 7.855z" fill="#ff855f"/><path d="m565.746 345.533c-2.133-4.262-1.938-9.315.531-13.391 5.855-9.665 11.241-20.678 11.037-28.964-.376-15.274-8.093-47.642-1.789-57.804 6.305-10.162 25.124-18.366 33.776-21.791s17.06-19.986 17.06-19.986c1.376-6.775 2.505-34.49 3.257-42.274s-14.67-50.691-20.317-58.595-18.441-33.417-21.075-32.704-6.021 2.971 0 9.746 20.338 33.963 24.092 42.387 10.059 30.454 10.857 43.715-4.846 44.873-7.48 48.45-11.289 7.827-17.309 4.197-8.981-45.836-13.521-55.784-27.128-59.253-27.128-59.253-26.706-29.734-30.469-30.863-3.98.376 1.584 7.151c5.565 6.775 19.208 22.248 24.616 32.013s19.515 44.267 22.057 57.126 3.983 41.463 1.569 47.485-14.407 8.185-18.194 4.657-5.102-8.898-7.643-22.021-19.474-59.04-19.474-59.04-11.815-20.507-21.147-27.379-13.848-15.528-13.848-11.012 2.634 7.193 4.892 10.183 14.299 18.179 17.309 22.629 15.803 30.927 17.873 40.271 6.74 44.423 4.781 48.901-9.496 0-9.496 0-13.157-32.407-16.356-34.288-21.457-22.382-24.181-23.423-13.637-10.665-14.013-7.735-.376 5.389 3.01 7.735c3.387 2.346 7.984 6.403 13.775 11.337 5.792 4.935 13.319 14.502 17.161 21.821 4.248 8.091 9.827 26.95 12.891 47.573 4.803 32.326 2.832 50.334 7.348 68.4 3.669 14.679 12.086 34.914 18.081 37.545 3.184 1.397 5.912 3.647 7.354 6.811 13.015 28.551 56.3 123.006 60.023 124.584 4.387 1.86 20.502 1.86 18.642 0-1.61-1.612-55.708-109.586-70.136-138.41z" fill="#ff946e"/><path d="m604.397 239.059c-3.042-5.089-8.264-5.379-12.303-2.099s-8.502 8.448-7.23 13.58 10.267 19.048 10.448 22.173 2.133 6.207 2.133 6.207l-5.174 23.075s-10.043 9.424-12.287 24.344c-2.244 14.919 11.986 31.396 33.6 36.983s1.355-29.803 1.355-29.803z" fill="#f77b55"/><path d="m591.529 246.937c-.493 2.2-.466 4.525.151 6.778.31 1.176.788 2.332 1.433 3.435l9.703 16.647-3.601 34.148-4.2 8.391c-9.268 18.537.108 40.987 19.81 47.422l13.877 4.531 4.748 1.549-.732-30.13-4.771-65.861-19.136-33.619c-1.892-3.325-6.03-4.638-9.49-3.014-4.14 1.947-6.872 5.619-7.792 9.723z" fill="#ff855f"/><path d="m591.529 246.937c-.493 2.2-.466 4.525.151 6.778 2.241-6.815 8.097-16.055 9.659-14.508 2.011 1.992 22.442 35.426 22.442 35.426s3.849 69.645 4.921 93.656c2.318.756 4.686-1.008 4.627-3.446l-.611-25.136-4.771-65.861-19.136-33.619c-1.892-3.325-6.03-4.638-9.49-3.014-4.14 1.948-6.872 5.62-7.792 9.724z" fill="#e86c46"/><path d="m600.351 108.174 1.944 3.165.371 1.271 6.635-5.296z" fill="#f57b55"/><path d="m617.241 162.734.715 2.471-.033 3.803 8.437-5.04z" fill="#f57b55"/><path d="m548.036 116.793 2.094 2.756 1.135 2.607 7.635-10.374z" fill="#f57b55"/><path d="m569.104 163.096.353.8.13 5.011 12.359-7.585z" fill="#f57b55"/><path d="m511.544 130.109.898.889 1.439 3.412 6.683-9.931z" fill="#f57b55"/><path d="m529.944 172.453 1.617 3.821.299 2.173c4.413-3.205 9.783-7.532 9.783-7.532z" fill="#f57b55"/><path d="m504.959 195.577.978 1.301.714 2.151c2.062-3.864 3.985-7.98 3.985-7.98z" fill="#f57b55"/><path d="m488.837 174.966 1.094.712 1.156 1.53c1.784-3.426 3.295-6.66 3.295-6.66z" fill="#f57b55"/><path d="m522.809 261.132-.002 2.56c15.258-1.404 55.359-5.281 56.856-7.461 1.837-2.678-55.874 4.842-56.854 4.901z" fill="#f57b55"/><path d="m632.76 208.988c-12.454-2.79-18.839-2.755-18.426-1.679s.517.609.517.609 16.253 2.62 17.581 2.531.328-1.461.328-1.461z" fill="#f57b55"/><path d="m587.112 206.274c-6.329.283-15.933 2.455-14.138 3.196 1.796.741 14.83-1.241 16.682-1.48 1.853-.239 1.859-1.912-2.544-1.716z" fill="#f57b55"/><path d="m554.125 209.679c-6.492.906-17.171 3.66-16.03 4.407 1.141.746 7.148-.523 7.148-.523s9.155-.726 11.528-1.829.583-2.506-2.646-2.055z" fill="#f57b55"/><path d="m520.012 223.276c5.46-1.405 11.922-5.985 7.21-4.446-3.881 1.268-6.745 1.081-10.204 3.12s1.329 1.754 2.994 1.326z" fill="#f57b55"/><path d="m601.653 255.654c3.822 6.244 7.648 19.612 7.648 19.612s.831 32.076 0 35.348-8.166 23.314 0 38.039c3.258 8.18-3.833 6.953-7.648 0s-2.266-32.026 3.173-39.266l1.106-34.121s-8.658-18.642-9.194-21.505.288-5.666 4.915 1.893z" fill="#ff946e"/><path d="m585.315 62.334c1.504 1.396 3.329 2.901 5.517 4.512 14.364 10.581 51.68 94.476 51.68 110.362 0 8.384-14.565 96.638-14.565 96.638s-.692 66.913 5.175 82.461c5.034 13.347 62.634 108.912 77.32 134.692h9.558l-57.885-99.979c-10.081-14.891-20.257-40.98-18.566-58.704 3.772-39.892 10.041-114.521 7.679-150.077-2.873-43.182-48.193-105.552-60.315-121.517-1.342-1.786-4.094-1.504-5.061.497z" fill="#e86c46"/></svg>