<!--?xml version="1.0" encoding="utf-8"?-->
<!-- Generator: Adobe Illustrator 22.1.0, SVG Export Plug-In . SVG Version: 6.00 Build 0)  -->
<svg version="1.1" id="_x31_5" xmlns="http://www.w3.org/2000/svg" xmlns:xlink="http://www.w3.org/1999/xlink" x="0px" y="0px" viewBox="0 0 527 720" style="enable-background:new 0 0 527 720;" xml:space="preserve">
<style type="text/css">
	.st0{fill:#768FA5;}
	.st1{fill:#FFFFFF;}
	.st2{fill:#FFD7C5;}
	.st3{fill:none;}
	.st4{fill:#231815;}
</style>
<g>
	<path class="st0" d="M512.072,563.793c-10.741,8.732-45.088,20.788-55.703,21.71c-10.616,0.909-59.698-17.309-59.698-17.309V720
		H120.849V571.449c0,0-41.289,14.418-50.48,14.04c-9.191-0.377-42.126-8.816-53.399-19.223
		c-11.272-10.409-16.063-37.274-11.16-41.004c4.833-3.66,90.008-137.905,92.662-142.096c0.042-0.07,0.07-0.098,0.07-0.098
		l50.242,30.736l-50.242,85.166l165.546-50.812l164.121,50.812l-48.37-87.052c0,0,49.558-28.933,52.365-24.449
		c2.807,4.485,79.295,120.833,83.848,134.119C520.607,534.873,522.827,555.047,512.072,563.793z" style="opacity: 1; stroke: none; stroke-width: 7px;"></path>
	<path class="st1" d="M172.402,472.345c0,0,0.93,9.205,0.008,12.193c-0.922,2.989,77.858,105.231,77.858,105.231
		s8.411,6.557,14.404,5.888c5.992-0.667,14.038-10.893,14.038-10.893l77.055-110.325l-39.331-14.366l-51.761-38.583L172.402,472.345
		z" style="opacity: 1;"></path>
	<path class="st2" d="M379.839,411.915l15.321-6.572c-3.304-15.518-17.074-27.164-33.574-27.164v-10.141
		c0-45.691-47.655-89.313-98.214-89.313c-50.557,0-98.213,43.622-98.213,89.313v10.294c-14.946,1.371-27.092,12.329-30.303,26.667
		l13.925,8.805c0,0-3.634,6.156-9.766,16.544c5.769,9.471,15.966,15.948,27.734,16.484c8.657,39.975,51.481,74.753,96.624,74.753
		c45.129,0,87.94-34.755,96.616-74.713h1.597c12.006,0,22.557-6.174,28.695-15.507L379.839,411.915z" style="opacity: 1;"></path>
	<path class="st2" d="M423.449,385.372l-38.216,20.844L373.5,386.267v-25.539c0-2.85,0.056-5.644-0.056-8.438
		c-0.614-17.603-5.587-35.095-14.526-50.295c-2.459-4.135-5.141-8.159-8.214-11.96c1.509,0.224,2.849,0.951,3.744,2.236
		c7.319-8.83,16.873-6.594,33.243,6.37c11.901,9.501,25.478,48.395,26.93,57.727C416.074,365.645,423.449,385.372,423.449,385.372z" style="opacity: 1;"></path>
	<path class="st2" d="M175.885,290.035c-6.426,8.271-11.622,17.436-15.42,27.216c-5.085,13.133-7.264,26.88-7.264,40.851v28.22
		l-11.733,19.895l-38.159-20.844c0,0,7.374-19.727,8.827-29.003c1.453-9.332,15.03-48.226,26.93-57.727
		c16.37-12.964,25.924-15.2,33.243-6.37C173.147,291.042,174.432,290.315,175.885,290.035z" style="opacity: 1;"></path>
	<line class="st3" x1="396.67" y1="720" x2="396.67" y2="577.652" style="opacity: 1; stroke: none; stroke-width: 7px;"></line>
	<path class="st2" d="M372.139,383.956c-25.863-4.495-43.319-46.118-39.409-63.897c-10.363-9.213-8.383-17.871-0.46-19.307
		c3.231-0.584,5.854-2.529,7.529-5.355c3.206-5.404,11.678-7.553,14.653-3.133c7.32-8.809,16.875-6.562,33.221,6.403
		c11.922,9.456,25.474,48.371,26.942,57.688c1.468,9.318,8.807,29.033,8.807,29.033l-38.164,20.821L372.139,383.956z" style="opacity: 1;"></path>
	<line class="st2" x1="379.839" y1="413.806" x2="447.099" y2="532.239" style="opacity: 1;"></line>
	<line class="st2" x1="353.244" y1="474.439" x2="428.203" y2="498.967" style="opacity: 1;"></line>
	<path class="st2" d="M154.606,383.956c25.863-4.495,43.319-46.118,39.409-63.897c10.363-9.213,8.383-17.871,0.46-19.307
		c-3.231-0.584-5.854-2.529-7.529-5.355c-3.206-5.404-11.678-7.553-14.653-3.133c-7.32-8.809-16.875-6.562-33.221,6.403
		c-11.922,9.456-25.473,48.371-26.942,57.688c-1.468,9.318-8.807,29.033-8.807,29.033l38.164,20.821L154.606,383.956z" style="opacity: 1;"></path>
	<line class="st2" x1="146.906" y1="413.806" x2="79.645" y2="532.239" style="opacity: 1;"></line>
	<line class="st2" x1="173.5" y1="474.439" x2="98.541" y2="498.967" style="opacity: 1;"></line>
	<path class="st2" d="M368.166,311.11c0,0-6.108-13.396-16.334-17.582" style="opacity: 1;"></path>
	<path class="st2" d="M157.005,311.11c0,0,6.108-13.396,16.335-17.582" style="opacity: 1;"></path>
	<path class="st4" d="M126.939,595.702V720h-12.194V595.702c0-3.367,2.738-6.091,6.104-6.091
		C124.216,589.611,126.939,592.335,126.939,595.702z"></path>
	<path class="st4" d="M257.759,459.254h12.165c1.537,0,2.782-1.246,2.782-2.783c0-1.536-1.245-2.782-2.782-2.782h-8.132
		c-1.913,0-3.665-1.071-4.537-2.774l-0.73-1.426c-0.63-1.229-2.487-0.782-2.487,0.6v5.442
		C254.038,457.588,255.704,459.254,257.759,459.254z"></path>
	<path class="st4" d="M215.98,428.228L215.98,428.228l10.414,2.583l-8.038,5.367c-1.796,1.199-2.281,3.628-1.082,5.426
		c1.199,1.797,3.628,2.281,5.425,1.082l15.404-10.285c1.285-0.858,1.946-2.403,1.681-3.926c-0.265-1.523-1.411-2.753-2.912-3.124
		l-19.009-4.716c-2.097-0.52-4.218,0.758-4.738,2.855C212.605,425.586,213.883,427.708,215.98,428.228z"></path>
	<path class="st4" d="M288.641,432.401l15.404,10.284c1.796,1.199,4.224,0.715,5.424-1.081c1.199-1.797,0.715-4.226-1.081-5.425
		v-0.001l-8.038-5.367l10.414-2.584c2.097-0.52,3.374-2.642,2.854-4.738c-0.52-2.096-2.641-3.375-4.737-2.854l-19.011,4.716
		c-1.5,0.372-2.646,1.602-2.912,3.124C286.694,429.998,287.356,431.542,288.641,432.401z"></path>
	<path class="st4" d="M243.409,492.695c8.835-4.472,19.963-3.558,19.963-3.558s11.129-0.914,19.963,3.558
		c2.938,1.487,6.125-1.403,4.86-4.442c-3.881-9.329-10.658-17.012-24.823-17.012c-12.072,0-20.943,7.683-24.823,17.012
		C237.284,491.293,240.47,494.182,243.409,492.695z"></path>
	<path class="st4" d="M263.372,646.207c4.411,0,7.987-3.577,7.987-7.988c0-4.412-3.576-7.99-7.987-7.99
		c-4.411,0-7.986,3.577-7.986,7.99C255.386,642.63,258.962,646.207,263.372,646.207z"></path>
	<path class="st4" d="M263.372,697.641c4.411,0,7.987-3.577,7.987-7.988c0-4.412-3.576-7.99-7.987-7.99
		c-4.411,0-7.986,3.577-7.986,7.99C255.386,694.064,258.962,697.641,263.372,697.641z"></path>
	<path class="st4" d="M295.837,397.02l11.209,3.834c2.553,0.875,5.358-0.502,6.231-3.056c0.874-2.554-0.501-5.359-3.055-6.232
		l-11.208-3.834c-2.554-0.875-5.359,0.501-6.232,3.056C291.907,393.342,293.283,396.147,295.837,397.02z"></path>
	<path class="st4" d="M219.699,400.854l11.208-3.834c2.554-0.873,3.93-3.678,3.056-6.232c-0.873-2.555-3.678-3.931-6.232-3.056
		l-11.208,3.834c-2.554,0.873-3.929,3.678-3.055,6.232C214.341,400.352,217.145,401.729,219.699,400.854z"></path>
	<polygon class="st4" points="427.272,390.553 427.271,390.552 427.271,390.552 	"></polygon>
	<path class="st4" d="M238.264,327.463c0,0-10.798,25.971-14.548,34.628c-3.75,8.657,25.874-1.019,41.609-10.694
		c15.735-9.676,37.117-24.443,40.681-29.026c3.564-4.583,6.931-0.482,6.931-0.482c3.017,3.352,5.922,6.706,8.716,10.226
		c2.555,3.237,5.049,6.59,7.319,10.078c0.197,0.685,0.398,1.371,0.615,2.061c1.947,6.148,4.699,12.449,8.19,18.373
		c0.126,1.459-0.56,2.961-0.871,4.414c-0.391,1.845-0.726,3.745-0.95,5.644c-0.893,7.489-0.615,15.032,2.347,22.018
		c4.749,11.122,14.247,18.833,23.075,26.602c1.62,1.452,3.296,3.744,5.419,4.358c2.626,0.727,5.531-0.726,6.425-3.296
		c0.335-0.951,0.279-1.956,0.279-2.962v-21.689l6.075,10.304c-0.889,0.04-1.781,0.259-2.608,0.729
		c-2.792,1.587-3.77,5.137-2.184,7.93l8.06,14.193c-2.36,3.154-5.352,5.816-8.792,7.768c-2.204,1.25-4.587,2.203-7.101,2.833
		c0.287-2.625,0.451-5.266,0.451-7.921c0-3.212-2.604-5.816-5.815-5.816c-3.212,0-5.815,2.604-5.815,5.816l0,0
		c0,10.405-2.714,20.814-7.622,30.629c-7.349,14.719-19.661,28.034-34.612,37.57c-14.949,9.549-32.468,15.304-50.164,15.298
		c-11.801,0.001-23.512-2.549-34.447-7.086c-16.403-6.797-31.021-18.092-41.412-31.618c-5.2-6.76-9.345-14.069-12.178-21.626
		c-2.835-7.56-4.361-15.36-4.361-23.166c0-3.212-2.604-5.816-5.815-5.816c-3.212,0-5.815,2.604-5.815,5.816
		c0,2.657,0.177,5.298,0.465,7.923c-2.519-0.629-4.906-1.583-7.114-2.835c-3.441-1.952-6.432-4.613-8.793-7.768l8.06-14.193
		c1.586-2.793,0.608-6.343-2.184-7.93c-0.827-0.47-1.719-0.69-2.608-0.729l6.031-10.231v22.51c0.056,1.9,0.782,3.577,2.402,4.639
		c2.515,1.675,5.14,0.782,7.096-1.173c3.576-3.521,7.599-6.595,11.286-10.059c4.47-4.191,8.716-8.774,11.901-14.027
		c3.632-6.036,5.308-12.518,5.364-19.503c0-5.831-0.838-11.624-2.516-17.197c1.725-2.899,3.293-5.881,4.662-8.9
		c0.04-0.089,0.074-0.18,0.115-0.269c0.22,0.008,0.436,0.045,0.644,0.156C198.397,356.237,226.068,341.341,238.264,327.463z
		 M245.498,574.924l-53.768-74.986c4.713,4.259,9.809,8.159,15.22,11.617c11.656,7.44,24.775,12.854,38.548,15.433V574.924z
		 M277.642,527.591c8.492-1.272,16.768-3.622,24.633-6.884c10.296-4.276,19.904-10.084,28.422-17.045l-53.055,71.707V527.591z
		 M110.481,382.668c0.643-1.827,1.412-4.054,2.214-6.474c1.027-3.102,2.105-6.51,3.034-9.787c0.928-3.288,1.709-6.408,2.144-9.148
		c0.124-0.806,0.457-2.306,0.959-4.151c1.76-6.521,5.563-17.547,10.11-27.682c2.271-5.071,4.737-9.939,7.17-13.901
		c1.215-1.98,2.42-3.731,3.553-5.15c1.128-1.42,2.193-2.502,3.019-3.152c4.711-3.742,8.741-6.459,12.027-8.141
		c1.642-0.844,3.092-1.429,4.327-1.789c1.238-0.362,2.253-0.501,3.081-0.5c1.113,0.01,1.9,0.212,2.772,0.657
		c0.096,0.05,0.198,0.12,0.297,0.179c-0.532,0.431-1.053,0.87-1.547,1.322c-3.417,3.142-5.965,6.687-7.715,9.474
		c-1.745,2.787-2.676,4.822-2.734,4.945c-0.96,2.106-0.032,4.592,2.074,5.553c2.105,0.96,4.591,0.032,5.552-2.074l-0.001-0.001l0,0
		c0.027-0.065,1.49-3.198,4.033-6.667c1.274-1.742,2.817-3.565,4.536-5.127c1.514-1.379,3.16-2.525,4.852-3.322
		c0.445-0.159,0.868-0.37,1.26-0.631c0.361-0.218,0.677-0.482,0.949-0.785c0.177-0.182,0.342-0.375,0.496-0.581
		c0.081-0.016,0.198-0.033,0.381-0.033c0.587-0.014,1.631,0.229,2.544,0.748c0.928,0.508,1.69,1.249,2.074,1.913
		c0.389,0.658,0.835,1.28,1.304,1.883c-0.426,0.336-0.859,0.684-1.307,1.064c-4.173,3.548-9.185,9.067-12.47,16.957
		c-0.889,2.137,0.122,4.591,2.259,5.48c2.137,0.889,4.59-0.122,5.479-2.259c2.64-6.354,6.72-10.868,10.159-13.791
		c1.027-0.873,1.979-1.585,2.823-2.173c1.04,0.419,2.124,0.748,3.249,0.95c0.528,0.095,0.91,0.237,1.166,0.368
		c0.389,0.205,0.49,0.347,0.557,0.445c0.057,0.105,0.127,0.218,0.135,0.636c0.004,0.497-0.169,1.475-0.941,2.845
		c-0.763,1.364-2.111,3.081-4.207,4.941c-1.567,1.393-2.266,3.548-1.816,5.596c0.258,1.164,0.413,2.65,0.411,4.358
		c0.009,4.114-0.9,9.475-2.679,15.088c-2.651,8.434-7.246,17.469-13.015,24.464c-2.879,3.503-6.039,6.495-9.323,8.719
		c-3.29,2.23-6.673,3.69-10.119,4.289c-1.679,0.291-3.148,1.308-4.014,2.776l-10.262,17.407L110.481,382.668z M111.024,488.763
		l26.776-47.148c2.684,2.795,5.758,5.214,9.155,7.143c4.578,2.6,9.737,4.31,15.208,4.933c1.486,5.382,3.502,10.639,6.03,15.693
		c0.096,0.192,0.203,0.381,0.3,0.573L111.024,488.763z M358.251,469.958c1.52-2.989,2.88-6.042,4.048-9.155
		c0.878-2.341,1.642-4.715,2.305-7.115c5.463-0.626,10.616-2.336,15.187-4.932c3.397-1.928,6.47-4.347,9.154-7.142l26.776,47.148
		L358.251,469.958z M387.41,398.409l-10.262-17.408c-0.866-1.468-2.335-2.485-4.014-2.776c-4.586-0.793-9.098-3.14-13.356-6.76
		c-6.382-5.4-11.984-13.624-15.831-22.176c-1.93-4.271-3.434-8.616-4.441-12.684c-1.009-4.064-1.513-7.858-1.509-10.941
		c-0.001-1.71,0.153-3.194,0.411-4.352c0.456-2.066-0.235-4.196-1.816-5.601c-2.097-1.861-3.444-3.577-4.207-4.941
		c-0.772-1.37-0.945-2.348-0.941-2.845c0.001-0.278,0.042-0.424,0.077-0.518c0.061-0.136,0.09-0.203,0.312-0.379
		c0.22-0.166,0.673-0.409,1.47-0.553c1.125-0.202,2.212-0.532,3.253-0.952c0.973,0.678,2.101,1.535,3.302,2.591
		c3.334,2.931,7.158,7.314,9.677,13.374c0.889,2.137,3.341,3.149,5.479,2.26c2.137-0.89,3.148-3.343,2.26-5.48
		c-3.285-7.891-8.297-13.409-12.47-16.957c-0.448-0.381-0.88-0.728-1.307-1.064c0.47-0.604,0.915-1.226,1.305-1.884
		c0.383-0.663,1.146-1.403,2.072-1.911c0.486-0.276,1.005-0.469,1.476-0.591c0.448,0.67,1.093,1.219,1.896,1.547
		c1.964,0.8,3.879,2.122,5.62,3.722c2.615,2.392,4.801,5.381,6.277,7.746c0.741,1.182,1.308,2.206,1.683,2.92
		c0.188,0.356,0.327,0.635,0.415,0.817l0.095,0.198l0.018,0.039l0,0v0.001h0.001c0.96,2.104,3.445,3.034,5.55,2.073
		c2.105-0.96,3.034-3.446,2.074-5.552v-0.001c-0.078-0.164-1.702-3.726-4.752-7.942c-1.528-2.108-3.416-4.383-5.696-6.477
		c-0.269-0.246-0.562-0.48-0.842-0.72c0.407-0.323,0.799-0.589,1.166-0.78c0.872-0.445,1.659-0.647,2.771-0.657
		c0.828-0.001,1.843,0.138,3.08,0.5c1.854,0.538,4.189,1.594,6.931,3.245c2.743,1.648,5.889,3.88,9.425,6.685
		c0.946,0.743,2.197,2.051,3.509,3.78c2.313,3.027,4.834,7.306,7.224,12.071c3.597,7.154,6.946,15.422,9.477,22.576
		c1.267,3.577,2.33,6.88,3.124,9.612c0.792,2.714,1.314,4.927,1.478,5.998c0.435,2.74,1.216,5.859,2.144,9.147
		c1.392,4.914,3.122,10.13,4.511,14.152c0.261,0.755,0.504,1.45,0.737,2.109L387.41,398.409z M522.534,521.043
		c-0.112-0.209-0.196-0.364-0.321-0.573L437.135,384.38c-1.704-2.724-5.294-3.549-8.017-1.844c-0.154,0.098-0.28,0.224-0.433,0.336
		c-0.531-1.481-2.235-6.147-3.967-11.471c-0.936-2.864-1.885-5.909-2.667-8.732c-0.797-2.808-1.411-5.42-1.69-7.223
		c-0.237-1.523-0.657-3.269-1.215-5.378c-1.983-7.293-5.895-18.595-10.727-29.394c-2.416-5.407-5.07-10.66-7.878-15.229
		c-1.397-2.291-2.849-4.414-4.372-6.328c-1.522-1.9-3.1-3.59-4.874-5.002c-5.084-4.038-9.638-7.167-13.954-9.388
		c-2.151-1.104-4.26-1.984-6.369-2.599c-2.109-0.615-4.218-0.964-6.341-0.964c-2.835-0.014-5.67,0.657-8.157,1.984
		c-0.936,0.475-1.788,1.062-2.626,1.69c-1.481-0.531-2.989-0.768-4.428-0.768c-1.146,0-2.249,0.168-3.324,0.405
		c-6.285-7.125-13.521-13.44-21.539-18.693c-14.917-9.78-32.182-15.703-49.948-17.156c-1.034-0.083-2.109-0.083-3.157-0.153
		c-8.171-1.117-17.124-0.265-27.083-0.293c-12.683-0.042-42.993-20.956-60.048-38.587c-4.092-4.233-11.244-1.369-11.509,4.527
		c-0.475,10.506,1.634,22.157,3.701,30.721c1.299,5.351-4.106,9.891-9.163,7.74c-8.744-3.702-16.3-7.726-21.608-10.785
		c-4.512-2.599-10.155,0.726-10.071,5.938c0.224,11.833,4.721,28.067,8.507,35.471c0.642,1.272,1.662,2.222,2.877,2.822
		c-0.308,0.182-0.615,0.349-0.936,0.545c-3.338,1.998-6.844,4.513-10.657,7.544c-2.039,1.621-3.813,3.59-5.531,5.84
		c-2.989,3.926-5.755,8.717-8.366,13.901c-3.897,7.753-7.389,16.373-10.057,23.917c-1.327,3.758-2.459,7.251-3.324,10.241
		c-0.866,3.018-1.481,5.448-1.802,7.432c-0.293,1.928-0.978,4.764-1.844,7.796c-1.285,4.555-2.961,9.626-4.316,13.51
		c-0.67,1.956-1.257,3.605-1.676,4.778c-0.209,0.573-0.376,1.021-0.488,1.342c-0.14-0.112-0.28-0.238-0.433-0.336
		c-2.724-1.705-6.3-0.88-8.004,1.844L4.54,520.47c-0.14,0.209-0.224,0.364-0.321,0.573C1.355,527.036,0,533.379,0,539.623
		c0,7.921,2.179,15.675,6.258,22.409c4.065,6.734,10.043,12.448,17.572,16.221c6.747,3.381,13.548,6.622,20.881,9.067
		c7.319,2.431,15.183,4.023,23.829,4.023c8.52,0,17.767-1.551,27.978-5.141h0.014l24.318-8.592l16.007-5.644
		c3.031-1.076,4.623-4.387,3.562-7.419c-1.076-3.032-4.4-4.624-7.431-3.548l-40.325,14.236v-0.014
		c-9.149,3.227-16.999,4.485-24.122,4.485c-7.221,0-13.744-1.299-20.169-3.422c-6.425-2.138-12.724-5.114-19.331-8.425
		c-2.766-1.397-5.224-3.129-7.361-5.127c-2.151-1.997-3.981-4.261-5.475-6.72c-2.975-4.918-4.582-10.604-4.582-16.388
		c0.014-4.47,0.964-8.997,2.989-13.328l84.868-135.739c0.111-0.196,0.181-0.392,0.279-0.587c0.252,0.196,0.503,0.378,0.782,0.531
		l38.16,20.816c0.81,0.447,1.676,0.643,2.543,0.685L74.588,529.369c-1.578,2.794-0.615,6.343,2.179,7.921
		c2.794,1.593,6.341,0.615,7.934-2.18l17.781-31.322l72.074-23.569c1.718,2.557,3.562,5.058,5.531,7.474
		c-1.131,0-2.277,0.321-3.269,1.034c-2.5,1.802-3.087,5.295-1.285,7.809l71.278,99.402l0.028,0.028
		c1.801,2.445,4.12,4.331,6.663,5.575c2.556,1.243,5.307,1.858,8.073,1.858c2.752,0,5.518-0.615,8.059-1.858
		c2.542-1.244,4.861-3.13,6.663-5.575l79.993-108.105c1.382-1.872,1.425-4.331,0.28-6.217l67.688,22.144l17.781,31.322
		c1.592,2.794,5.14,3.772,7.933,2.18c2.794-1.579,3.772-5.127,2.179-7.921l-66.654-117.368c0.865-0.042,1.732-0.238,2.542-0.685
		l38.174-20.816c0.279-0.154,0.531-0.336,0.768-0.531c0.098,0.196,0.168,0.392,0.293,0.587l84.868,135.739
		c2.011,4.331,2.975,8.858,2.975,13.328c0,5.784-1.606,11.47-4.582,16.388c-2.975,4.918-7.304,9.067-12.836,11.847
		c-6.592,3.311-12.906,6.287-19.331,8.425c-6.425,2.124-12.934,3.422-20.156,3.422c-7.137,0-14.987-1.257-24.136-4.485
		l-40.325-14.222c-3.031-1.076-6.355,0.516-7.417,3.548c-1.076,3.032,0.517,6.343,3.548,7.419l3.213,1.131
		c-1.355,1.062-2.235,2.697-2.235,4.555V720h11.621V577.652c0-0.447-0.056-0.881-0.153-1.299l27.893,9.849
		c5.112,1.802,9.973,3.088,14.625,3.912c4.651,0.838,9.093,1.229,13.367,1.229c8.632,0,16.496-1.593,23.829-4.023
		c7.333-2.445,14.136-5.686,20.868-9.067c7.529-3.772,13.507-9.486,17.586-16.221c4.064-6.734,6.243-14.488,6.258-22.409
		C526.752,533.379,525.384,527.036,522.534,521.043z"></path>
	<path class="st4" d="M15.071,360.918c2.777,0,5.028-2.252,5.028-5.029V138.949c0-2.778-2.251-5.03-5.028-5.03
		s-5.029,2.252-5.029,5.03v216.939C10.042,358.666,12.293,360.918,15.071,360.918z"></path>
	<path class="st4" d="M521.971,149.016c-2.777,0-5.029,2.252-5.029,5.03v216.939c0,2.777,2.251,5.029,5.029,5.029
		c2.776,0,5.029-2.252,5.029-5.029V154.046C527,151.268,524.748,149.016,521.971,149.016z"></path>
	<path class="st4" d="M81.544,287.42c2.777,0,5.028-2.252,5.028-5.029V44.792c0-2.778-2.251-5.03-5.028-5.03
		s-5.029,2.252-5.029,5.03v237.599C76.516,285.168,78.767,287.42,81.544,287.42z"></path>
	<path class="st4" d="M458.274,311.019c2.776,0,5.029-2.252,5.029-5.029V89.828c0-2.778-2.252-5.03-5.029-5.03
		c-2.777,0-5.029,2.252-5.029,5.03V305.99C453.245,308.767,455.496,311.019,458.274,311.019z"></path>
	<path class="st4" d="M256.672,227.947c2.777,0,5.028-2.252,5.028-5.029V5.03c0-2.778-2.251-5.03-5.028-5.03
		c-2.777,0-5.029,2.252-5.029,5.03v217.889C251.643,225.696,253.895,227.947,256.672,227.947z"></path>
	<path class="st4" d="M168.179,195.272c2.776,0,5.029-2.252,5.029-5.029V42.716c0-2.778-2.252-5.03-5.029-5.03
		c-2.777,0-5.029,2.252-5.029,5.03v147.526C163.151,193.02,165.402,195.272,168.179,195.272z"></path>
	<path class="st4" d="M385.533,242.383c2.776,0,5.029-2.252,5.029-5.029V89.828c0-2.778-2.252-5.03-5.029-5.03
		c-2.777,0-5.029,2.252-5.029,5.03v147.526C380.505,240.131,382.756,242.383,385.533,242.383z"></path>
	<path class="st4" d="M324.714,227.947c2.777,0,5.028-2.252,5.028-5.029V75.391c0-2.778-2.251-5.03-5.028-5.03
		c-2.777,0-5.029,2.252-5.029,5.03v147.528C319.686,225.696,321.937,227.947,324.714,227.947z"></path>
</g>
</svg>
