<!--?xml version="1.0" encoding="utf-8"?-->
<!-- Generator: Adobe Illustrator 22.1.0, SVG Export Plug-In . SVG Version: 6.00 Build 0)  -->
<svg version="1.1" id="_x31_9" xmlns="http://www.w3.org/2000/svg" xmlns:xlink="http://www.w3.org/1999/xlink" x="0px" y="0px" viewBox="0 0 720 631" style="enable-background:new 0 0 720 631;" xml:space="preserve">
<style type="text/css">
	.st0{fill:#EEEEEF;}
	.st1{fill:#FFD7C5;}
	.st2{fill:#768FA5;}
	.st3{fill:#FFFFFF;}
	.st4{fill:#04BF8A;}
	.st5{fill:#78BDC4;}
	.st6{fill:#FFF00F;}
	.st7{fill:#A0E5EC;}
	.st8{fill:#231815;}
</style>
<g>
	<path class="st0" d="M612.132,233.495c0-113.303-109.622-230.261-252.131-230.261S107.87,120.192,107.87,233.495l244.042,90.95
		L612.132,233.495z" style="opacity: 1;"></path>
	<path class="st1" d="M241.168,233.265h-3.183l0.069-1.205h3.114c4.039,0,7.344-3.306,7.344-7.346c0-4.04-3.305-7.346-7.344-7.346
		h-2.252l0.135-2.293h0.918c4.039,0,11.286-3.306,11.286-7.346s-7.247-7.346-11.286-7.346h-0.056l0.135-2.297
		c4.003-0.043,7.266-3.328,7.266-7.342c0-4.04-3.305-7.346-7.344-7.346h-28.23c-4.045,1.993-8.026,6.162-8.026,13.223v26.678
		c0.177,11.405,0.911,19.271,3.488,24.753c1.015,0.691,2.17,1.111,3.395,1.111l30.572-1.205c4.039,0,7.344-3.306,7.344-7.346
		C248.512,236.571,245.207,233.265,241.168,233.265z" style="opacity: 1;"></path>
	<path class="st1" d="M482.216,233.265h3.183l-0.07-1.205h-3.113c-4.04,0-7.344-3.306-7.344-7.346c0-4.04,3.305-7.346,7.344-7.346
		h2.252l-0.135-2.293h-0.917c-4.04,0-11.286-3.306-11.286-7.346s7.246-7.346,11.286-7.346h0.056l-0.135-2.297
		c-4.003-0.043-7.266-3.328-7.266-7.342c0-4.04,3.305-7.346,7.344-7.346h28.229c4.045,1.993,8.026,6.162,8.026,13.223v26.678
		c-0.176,11.405-0.91,19.271-3.487,24.753c-1.016,0.691-2.17,1.111-3.396,1.111l-30.571-1.205c-4.04,0-7.344-3.306-7.344-7.346
		C474.871,236.571,478.176,233.265,482.216,233.265z" style="opacity: 1;"></path>
	<path class="st2" d="M427.156,171.762c0,0-25.232-16.441-69.311-16.441c-44.077,0-70.713,23.399-70.713,25.409
		c0,2.01,0,51.328,0,51.328h144.195v-44.274L427.156,171.762z" style="opacity: 1;"></path>
	<path class="st3" d="M310.456,164.914c0,0,0.494,3.999,0.004,5.585c-0.489,1.585,41.313,55.84,41.313,55.84
		s4.464,3.479,7.643,3.125c3.18-0.355,7.449-5.781,7.449-5.781l43.977-59.315l-21.579-8.11h-0.001
		c-18.28-11.769-41.65-12.153-60.307-0.99L310.456,164.914z" style="opacity: 1;"></path>
	<path class="st2" d="M459.939,233.495c0,0-2.837-37.062-29.114-56.805c-26.277-19.743-40.323,31.412-52.141,39.203
		c-11.818,7.791-58.108,4.421-70.55-8.808s-21.003-26.355-21.003-26.355s-22.166,14.894-24.638,52.764
		C287.132,232.058,459.939,233.495,459.939,233.495z" style="opacity: 1;"></path>
	<path class="st4" d="M226.59,154.399c-4.61,0-8.347,3.738-8.347,8.349v19.201h16.695v-19.201
		C234.938,158.137,231.2,154.399,226.59,154.399z" style="opacity: 1;"></path>
	<path class="st4" d="M496.793,154.399c-4.61,0-8.348,3.738-8.348,8.349v19.201h16.695v-19.201
		C505.14,158.137,501.403,154.399,496.793,154.399z" style="opacity: 1;"></path>
	<path class="st5" d="M602.423,232.399c18.226,0.584,35.868,6.498,50.76,17.025l32.031,22.644
		c26.4,18.036,37.662,48.853,28.301,77.444l-6.689,20.429c-11.206,34.226-44.815,58.645-84.401,61.322l-176.602,11.945
		c-57.149,3.865-114.493,3.865-171.641,0L97.579,431.263c-39.586-2.677-73.195-27.096-84.402-61.322l-6.689-20.429
		c-9.362-28.591,1.9-59.408,28.301-77.444l29.869-20.681c17.101-11.841,37.24-18.489,58.028-19.134
		c38.168-1.184,112.066,1.242,236.042,1.242C487.878,233.495,565.121,231.205,602.423,232.399z" style="opacity: 1;"></path>
	<path class="st3" d="M174.318,110.516c20.641-23.918,55.115-54.526,90.847-69.59c9.356-3.944,18.703,5.712,14.535,14.972
		c-5.407,12.012-11.451,26.512-16.7,39.441c-8.464,20.844-27.917,35.152-50.333,37.006l-26.074,2.157
		C173.624,135.575,165.813,120.369,174.318,110.516z" style="opacity: 1;"></path>
	<path class="st6" d="M171.909,348.493c0,27.414-22.219,49.638-49.626,49.638c-27.408,0-49.626-22.224-49.626-49.638
		s22.218-49.637,49.626-49.637C149.69,298.856,171.909,321.079,171.909,348.493z" style="opacity: 1;"></path>
	<path class="st6" d="M645.813,348.493c0,27.414-22.218,49.638-49.625,49.638s-49.626-22.224-49.626-49.638
		s22.219-49.637,49.626-49.637S645.813,321.079,645.813,348.493z" style="opacity: 1;"></path>
	<path class="st3" d="M131.341,335.58c0,8.8-7.132,15.934-15.931,15.934c-8.797,0-15.929-7.134-15.929-15.934
		c0-8.8,7.132-15.934,15.929-15.934C124.209,319.647,131.341,326.781,131.341,335.58z" style="opacity: 1;"></path>
	<ellipse class="st3" cx="582.21" cy="335.58" rx="15.93" ry="15.934" style="opacity: 1;"></ellipse>
	<path class="st7" d="M284.765,246.197H149.51c-11.501,0-22.396,4.636-29.686,12.632c-1.964,2.154-0.601,5.411,2.455,5.868
		l215.731,32.293c3.028,0.453,5.485-2.181,4.461-4.781l-2.241-5.692c-0.494-1.255-1.715-2.165-3.178-2.371l-134.293-18.82
		c-4.758-0.667-4.442-6.918,0.364-7.193l81.899-4.699c1.422-0.082,2.691-0.833,3.337-1.976
		C289.719,249.049,287.771,246.197,284.765,246.197z" style="opacity: 1;"></path>
	<path class="st7" d="M360.541,363.284v-24.879c0-7.348,5.281-13.632,12.517-14.895l134.892-25.355
		c1.817-0.342,2.457,2.309,0.685,2.834L387.95,336.743c-7.766,2.206-13.944,8.098-16.518,15.751l-4.006,11.917
		C366.149,368.208,360.541,367.29,360.541,363.284z" style="opacity: 1;"></path>
	<path class="st1" d="M410.985,99.696L410.985,99.696v-5.382c0-24.246-25.288-47.393-52.116-47.393
		c-26.827,0-52.115,23.148-52.115,47.393v5.462c-9.273,0.851-16.537,8.648-16.537,18.145c0,9.783,7.707,17.764,17.38,18.204
		c4.593,21.212,27.318,39.667,51.271,39.667c23.947,0,46.664-18.442,51.268-39.646h0.848c10.063,0,18.221-8.16,18.221-18.225
		S421.048,99.696,410.985,99.696z" style="opacity: 1;"></path>
	<path class="st8" d="M456.76,224.646c0.326,1.756,2.014,2.915,3.77,2.589c1.755-0.327,2.914-2.014,2.588-3.77
		c-3.638-19.612-11.99-33.87-21.684-43.815c-9.698-9.954-20.665-15.616-29.643-18.373c-1.707-0.523-3.516,0.436-4.039,2.144
		c-0.523,1.707,0.436,3.516,2.144,4.039l-0.001,0c8.03,2.461,18.076,7.626,26.906,16.702
		C445.635,193.247,453.327,206.224,456.76,224.646z" style="opacity: 1;"></path>
	<path class="st8" d="M338.772,118.818c3.162,0,5.747-2.587,5.747-5.748v-0.001c0-3.161-2.585-5.748-5.747-5.748
		c-3.161,0-5.747,2.587-5.747,5.748v0.001C333.025,116.231,335.611,118.818,338.772,118.818z" style="opacity: 1;"></path>
	<path class="st8" d="M378.685,107.322c-3.162,0-5.748,2.587-5.748,5.748v0.001c0,3.162,2.586,5.748,5.748,5.748
		c3.16,0,5.746-2.587,5.746-5.748v-0.001C384.431,109.908,381.845,107.322,378.685,107.322z" style="opacity: 1;"></path>
	<path class="st8" d="M355.749,133.621h6.456c0.816,0,1.476-0.661,1.476-1.477c0-0.815-0.66-1.476-1.476-1.476h-4.315
		c-1.015,0-1.946-0.568-2.408-1.473l-0.387-0.756c-0.334-0.653-1.319-0.415-1.319,0.319v2.888
		C353.775,132.737,354.659,133.621,355.749,133.621z" style="opacity: 1;"></path>
	<path class="st8" d="M286.147,118.818c0.002,10.947,8.254,19.953,18.875,21.162c0.789,2.857,1.859,5.647,3.201,8.33
		c4.469,8.928,11.748,16.743,20.565,22.378c8.817,5.628,19.208,9.084,29.94,9.088c14.312-0.013,28.002-6.13,38.196-15.41
		c5.098-4.647,9.331-10.102,12.308-16.056c1.341-2.683,2.412-5.473,3.2-8.33c10.622-1.21,18.873-10.215,18.875-21.162
		c-0.001-9.249-5.9-17.097-14.132-20.047v-0.913c7.116-0.951,14.075-8.101,13.605-11.412c-0.54-3.799-12.123-5.488-16.747-14.932
		h-0.013c-0.418-1.203-0.861-2.395-1.356-3.56c-4.357-10.253-11.61-18.975-20.725-25.151c-4.559-3.087-9.586-5.537-14.951-7.215
		c-5.363-1.679-11.064-2.584-16.953-2.583c-0.073-0.177-0.287-0.167-0.62,0h-1.992c-2.456,0-4.874,0.174-7.254,0.48
		c-12.931,0.355-35.695,0.001-50.419-5.793c-2.541-0.999-5.409,0.635-5.796,3.338c-0.946,6.609,1.623,14.581,3.832,19.905
		c0.986,2.375-1.191,4.842-3.673,4.165l-3.924-1.071c-2.934-0.801-5.764,1.609-5.419,4.631c0.591,5.188,1.991,12.981,5.307,20.881
		c3.867,9.215,7.819,16.416,9.568,19.465C291.745,102.123,286.149,109.808,286.147,118.818z M300.28,105.486v10.602h0.568
		c5.162,0,9.347-4.185,9.347-9.349l16.37-16.206c2.5-2.475,6.721-0.426,6.325,3.069c-0.473,4.176,3.458,7.476,7.491,6.296
		c5.831-1.706,13.754-5.103,20.601-11.805c5.13-5.02,8.021-9.76,9.853-14.076c1.196-2.817,5.13-3.045,6.639-0.384
		c6.581,11.591,19.074,23.401,29.786,28.78v4.326c0,5.163,4.185,9.349,9.347,9.349h0.567v-10.602c1.3,0.702,2.487,1.588,3.528,2.627
		c2.744,2.749,4.431,6.515,4.433,10.705c-0.001,4.19-1.689,7.955-4.433,10.705c-1.912,1.909-4.323,3.29-7.019,3.965
		c0.151-1.389,0.245-2.786,0.245-4.191c0-1.705-1.382-3.086-3.086-3.086c-1.705,0-3.086,1.382-3.086,3.086h-0.001
		c0.001,5.521-1.44,11.045-4.044,16.253c-3.9,7.811-10.434,14.876-18.366,19.936c-7.933,5.067-17.229,8.121-26.619,8.118
		c-12.516,0.013-24.884-5.444-34.04-13.799c-4.577-4.17-8.343-9.048-10.945-14.254c-2.604-5.209-4.045-10.732-4.044-16.253
		c0-1.705-1.382-3.086-3.086-3.086c-1.705,0-3.086,1.382-3.086,3.086c0,1.405,0.094,2.802,0.245,4.191
		c-2.697-0.674-5.109-2.055-7.021-3.965c-2.744-2.749-4.431-6.515-4.433-10.705c0.001-4.191,1.689-7.956,4.433-10.705
		C297.793,107.074,298.981,106.188,300.28,105.486z" style="opacity: 1;"></path>
	<path class="st8" d="M346.218,148.752c1.099,0.683,2.324,0.656,2.928,0.093c6.055,2.866,13.107,2.866,19.162,0
		c0.601,0.559,1.827,0.594,2.928-0.093c1.345-0.833,1.831-2.305,1.184-3.075c-0.659-0.822-1.316-1.643-1.975-2.464
		c-0.651-0.776-1.878-0.825-2.802-0.254c-0.768,0.48-1.202,1.311-1.12,2.113c-4.926,2.333-10.666,2.333-15.593,0.001
		c0.082-0.805-0.351-1.636-1.121-2.114c-0.926-0.574-2.154-0.519-2.803,0.254c-0.658,0.821-1.315,1.643-1.973,2.464
		C344.387,146.447,344.875,147.917,346.218,148.752z" style="opacity: 1;"></path>
	<path class="st8" d="M375.353,93.09c2.113-0.95,4.55-0.95,6.663,0c1.378,0.578,3.176,0.772,4.257-0.173
		c1.091-0.925,0.35-3.474-2.122-4.581c-3.468-1.557-7.465-1.557-10.934,0c-2.473,1.106-3.212,3.659-2.122,4.581
		C372.177,93.865,373.972,93.669,375.353,93.09z" style="opacity: 1;"></path>
	<path class="st8" d="M107.87,236.729c1.786,0,3.233-1.448,3.233-3.234c-0.002-31.691,8.742-63.768,24.551-93.444
		c15.806-29.675,38.674-56.936,66.831-78.972c1.406-1.1,1.653-3.133,0.554-4.539c-1.1-1.407-3.132-1.654-4.538-0.554l-0.001-0.001
		c-28.856,22.585-52.301,50.517-68.553,81.024c-16.249,30.505-25.31,63.599-25.311,96.485
		C104.637,235.281,106.083,236.729,107.87,236.729z" style="opacity: 1;"></path>
	<path class="st8" d="M608.899,233.495c0,1.786,1.447,3.234,3.233,3.234c1.786,0,3.233-1.448,3.233-3.234h-0.001
		c-0.017-57.708-27.856-116.016-73.619-159.953C495.977,29.609,432.154,0.001,360.001,0c-50.304-0.001-96.576,14.397-135.482,38.004
		c-3.289,1.995-6.527,4.057-9.708,6.181c-1.486,0.991-1.886,2.999-0.895,4.486c0.991,1.486,2.999,1.886,4.485,0.895
		c3.104-2.073,6.262-4.085,9.471-6.032C265.84,20.501,310.939,6.468,360.001,6.467c70.356-0.001,132.598,28.87,177.267,71.741
		C581.944,121.077,608.915,177.899,608.899,233.495z" style="opacity: 1;"></path>
	<path class="st8" d="M10.104,370.947c5.832,17.811,17.478,33.021,32.731,44.101c15.256,11.083,34.132,18.06,54.525,19.44
		l176.602,11.945c28.638,1.937,57.338,2.905,86.039,2.905c28.698,0,57.398-0.968,86.038-2.905l176.602-11.945
		c20.392-1.38,39.269-8.357,54.525-19.44c15.253-11.08,26.899-26.291,32.73-44.101l6.689-20.429
		c2.297-7.023,3.413-14.186,3.413-21.274c0.004-23.181-11.93-45.489-32.963-59.847l-37.868-25.87
		c-1.475-1.007-3.487-0.628-4.493,0.847c-1.007,1.475-0.628,3.487,0.847,4.494l-0.001,0l37.868,25.87
		c19.398,13.264,30.14,33.566,30.144,54.507c0,6.409-1.008,12.886-3.093,19.262l-6.689,20.428
		c-5.375,16.415-16.136,30.527-30.386,40.882c-14.247,10.352-31.967,16.923-51.161,18.22l-176.602,11.945
		c-28.494,1.927-57.049,2.89-85.602,2.89c-28.555,0-57.111-0.964-85.603-2.89L97.797,428.036
		c-19.194-1.297-36.915-7.868-51.161-18.22c-14.25-10.355-25.012-24.467-30.387-40.882L9.56,348.505
		c-2.087-6.375-3.094-12.851-3.094-19.261C6.47,308.303,17.213,288,36.612,274.738l37.868-25.871
		c1.474-1.007,1.853-3.019,0.846-4.494c-1.008-1.475-3.019-1.854-4.493-0.846l-37.869,25.87C11.931,283.755-0.004,306.062,0,329.244
		c0,7.088,1.116,14.252,3.416,21.274L10.104,370.947z" style="opacity: 1;"></path>
	<path class="st8" d="M89.336,311.233c-1.267-1.258-3.314-1.251-4.572,0.017c-9.478,9.546-15.342,22.725-15.341,37.243
		c0.002,29.201,23.664,52.869,52.859,52.871c29.194-0.002,52.856-23.67,52.859-52.871c-0.002-29.201-23.665-52.869-52.859-52.871
		c-6.134,0-12.034,1.047-17.518,2.974c-1.685,0.591-2.571,2.437-1.98,4.123c0.591,1.685,2.437,2.571,4.122,1.98l-0.001,0
		c4.81-1.689,9.979-2.608,15.376-2.608c12.821,0.001,24.399,5.189,32.804,13.591c8.401,8.407,13.587,19.988,13.589,32.812
		c-0.001,12.824-5.188,24.405-13.589,32.812c-8.406,8.403-19.983,13.59-32.804,13.591c-12.822-0.001-24.4-5.189-32.806-13.591
		c-8.4-8.408-13.587-19.988-13.588-32.812c0.001-12.761,5.136-24.29,13.464-32.687C90.611,314.539,90.603,312.491,89.336,311.233z" style="opacity: 1;"></path>
	<path class="st8" d="M596.188,401.365c29.194-0.002,52.856-23.67,52.858-52.871c-0.002-29.201-23.664-52.869-52.858-52.871
		c-10.253-0.001-19.849,2.927-27.955,7.99c-1.515,0.946-1.977,2.941-1.031,4.456c0.946,1.515,2.941,1.976,4.456,1.031l-0.001,0
		c7.119-4.443,15.512-7.008,24.531-7.009c12.821,0.001,24.399,5.189,32.804,13.591c8.4,8.407,13.586,19.988,13.588,32.812
		c-0.001,12.824-5.188,24.405-13.588,32.812c-8.406,8.403-19.983,13.59-32.804,13.591c-12.821-0.001-24.399-5.189-32.805-13.591
		c-8.401-8.408-13.587-19.988-13.589-32.812c0.001-9.621,2.919-18.533,7.921-25.943c0.999-1.48,0.61-3.49-0.869-4.489
		c-1.48-1-3.489-0.611-4.488,0.87c-5.699,8.434-9.031,18.624-9.029,29.563C543.331,377.694,566.993,401.362,596.188,401.365z" style="opacity: 1;"></path>
	<path class="st8" d="M585.443,233.495c0-1.786-1.448-3.234-3.232-3.234h-58.8v-35.71c-0.001-8.461-6.856-15.317-15.315-15.319
		h-0.164c0.008-0.083,0.025-0.163,0.025-0.248h-0.001v-15.91c-0.002-5.724-4.637-10.359-10.358-10.36h-1.611
		c-5.722,0.002-10.357,4.636-10.359,10.36v15.91c0,0.085,0.017,0.165,0.025,0.248h-2.231l-0.045,0.002
		c-2.892,0.114-5.822,1.107-8.184,3.041c-1.175,0.969-2.2,2.188-2.926,3.643c-0.727,1.452-1.14,3.135-1.138,4.936
		c0,2.553,0.807,5.301,2.478,8.174c0.02,0.033,0.046,0.059,0.066,0.091c-2.581,1.99-4.253,5.102-4.259,8.61
		c0.006,3.256,1.448,6.169,3.717,8.164c-2.269,1.994-3.711,4.908-3.717,8.164c0.004,2.307,0.73,4.443,1.959,6.204H365.06
		c0.18-0.206,0.363-0.408,0.529-0.632l42.443-57.365c0.974-1.317,0.696-3.173-0.62-4.147c-1.316-0.974-3.172-0.697-4.146,0.619
		l-0.001,0l-36.965,49.962v-26.586h-8.529h-8.528v26.352l-32.306-45.056c-0.955-1.331-2.807-1.636-4.137-0.681
		c-1.33,0.955-1.635,2.807-0.68,4.138l37.807,52.729l0.025,0.034c0.166,0.225,0.35,0.428,0.531,0.634H263.78
		c0.982-0.429,1.734-1.328,1.909-2.467c3.023-19.573,10.743-33.294,19.753-42.86c9.008-9.557,19.391-14.944,27.646-17.474
		c1.707-0.523,2.666-2.332,2.143-4.039c-0.523-1.707-2.331-2.667-4.038-2.144l-0.001,0c-9.229,2.834-20.563,8.739-30.454,19.219
		c-9.889,10.471-18.25,25.534-21.44,46.314c-0.229,1.486,0.599,2.882,1.92,3.451h-9.207c1.228-1.761,1.955-3.896,1.959-6.204
		c-0.006-3.256-1.448-6.17-3.717-8.164c2.269-1.994,3.711-4.908,3.717-8.164c-0.006-3.509-1.678-6.621-4.26-8.611
		c0.021-0.033,0.048-0.06,0.068-0.094c1.664-2.871,2.472-5.617,2.473-8.171c0.002-1.801-0.411-3.483-1.138-4.935
		c-1.091-2.186-2.839-3.824-4.792-4.919c-1.96-1.096-4.142-1.683-6.314-1.765l-0.044-0.002h-2.232
		c0.008-0.083,0.025-0.163,0.025-0.248l-0.001-15.91c-0.002-5.724-4.637-10.359-10.358-10.36h-1.612
		c-5.722,0.002-10.356,4.637-10.358,10.36v15.91c0,0.085,0.017,0.165,0.025,0.248h-0.164c-8.46,0.002-15.313,6.857-15.315,15.319
		v35.71h-68.632c-1.786,0-3.233,1.448-3.233,3.234c0,1.786,1.448,3.234,3.233,3.234H582.21
		C583.995,236.728,585.443,235.28,585.443,233.495z M491.262,163.074c0.001-1.314,0.524-2.478,1.384-3.342
		c0.864-0.86,2.028-1.383,3.342-1.384h1.611c1.313,0.001,2.477,0.525,3.34,1.384c0.86,0.864,1.382,2.028,1.384,3.342v15.91
		c0,0.085,0.017,0.165,0.025,0.248h-11.111c0.008-0.083,0.025-0.163,0.025-0.248L491.262,163.074z M492.434,229.504l-12.141,0
		c-1.496-0.001-2.845-0.606-3.844-1.602c-0.996-1-1.602-2.349-1.603-3.844c0.001-1.496,0.607-2.845,1.603-3.845
		c1-0.996,2.348-1.602,3.844-1.603h12.141c1.5,0,2.716-1.217,2.716-2.717c0-1.5-1.216-2.717-2.716-2.717v0h-12.141
		c-1.496-0.001-2.845-0.606-3.844-1.602c-0.996-1-1.602-2.349-1.603-3.844c0.001-1.496,0.607-2.845,1.603-3.845
		c1-0.996,2.348-1.602,3.844-1.603h12.141c1.5,0,2.716-1.217,2.716-2.717c0-1.5-1.216-2.717-2.716-2.717l-12.141,0
		c-0.585,0.001-1.155,0.061-1.715,0.151c-0.061-0.24-0.143-0.477-0.274-0.702c-1.304-2.243-1.743-4.049-1.743-5.443
		c0.002-0.99,0.213-1.795,0.567-2.51c0.53-1.064,1.43-1.953,2.59-2.606c1.147-0.648,2.535-1.025,3.837-1.073h19.603h4.936
		c2.737,0.001,5.191,1.102,6.988,2.895c1.793,1.797,2.893,4.251,2.895,6.99v35.71h-23.671
		C493.819,229.794,493.162,229.504,492.434,229.504z M221.06,163.074c0.001-1.314,0.524-2.478,1.384-3.342
		c0.863-0.859,2.027-1.382,3.341-1.384h1.612c1.313,0.001,2.477,0.525,3.34,1.384c0.86,0.864,1.382,2.028,1.384,3.342v15.91
		c0,0.085,0.017,0.165,0.025,0.248h-11.11c0.008-0.083,0.025-0.163,0.025-0.248h-0.001V163.074z M205.405,194.551
		c0.001-2.738,1.102-5.192,2.894-6.99c1.796-1.793,4.25-2.894,6.988-2.895h4.936h19.6c1.742,0.058,3.619,0.725,4.907,1.801
		c0.652,0.538,1.165,1.165,1.52,1.877c0.354,0.715,0.565,1.519,0.567,2.51c0.001,1.393-0.441,3.201-1.741,5.446
		c-0.13,0.224-0.211,0.46-0.272,0.699c-0.559-0.09-1.129-0.15-1.714-0.151H230.95c-1.5,0-2.716,1.216-2.716,2.717
		c0,1.5,1.216,2.717,2.716,2.717l12.141,0c1.495,0.001,2.844,0.607,3.843,1.603c0.996,1,1.602,2.349,1.603,3.845
		c-0.001,1.496-0.607,2.844-1.603,3.844c-0.999,0.996-2.348,1.601-3.843,1.602H230.95c-1.5,0-2.716,1.216-2.716,2.717
		c0,1.5,1.216,2.717,2.716,2.717v0h12.141c1.495,0.001,2.844,0.607,3.843,1.603c0.996,1,1.602,2.349,1.603,3.845
		c-0.001,1.496-0.607,2.844-1.603,3.844c-0.999,0.996-2.348,1.601-3.843,1.602H230.95c-0.729,0-1.387,0.29-1.874,0.757h-23.671
		V194.551z" style="opacity: 1;"></path>
	<path class="st8" d="M228.78,297.554c0.282-1.474-0.683-2.898-2.155-3.18c-17.706-3.395-36.053-7.04-54.162-10.807
		c-1.469-0.306-2.908,0.638-3.213,2.107c-0.305,1.469,0.638,2.908,2.107,3.213l-0.001,0c18.143,3.774,36.515,7.424,54.245,10.824
		C227.074,299.993,228.497,299.027,228.78,297.554z" style="opacity: 1;"></path>
	<path class="st8" d="M538.301,285.673c-0.305-1.469-1.744-2.412-3.212-2.107l-0.001,0c-69.12,14.38-141.717,26.974-168.962,30.738
		c-5.256,0.726-9.682,3.748-12.352,7.962c-2.669-4.214-7.096-7.236-12.351-7.962c-15.041-2.077-43.952-6.853-78.444-13.134
		c-1.477-0.269-2.89,0.71-3.159,2.186c-0.269,1.476,0.709,2.89,2.186,3.159l-0.001,0c34.551,6.291,63.475,11.071,78.674,13.171
		c5.953,0.822,10.379,5.901,10.379,11.912v66.532c0,1.5,1.216,2.717,2.716,2.717c1.5,0,2.716-1.217,2.716-2.717l-0.001-66.525
		c0-0.003,0.001-0.005,0.001-0.007c-0.001-6.012,4.424-11.089,10.378-11.912c27.491-3.799,100.06-16.393,169.325-30.8
		C537.663,288.581,538.606,287.142,538.301,285.673z" style="opacity: 1;"></path>
	<path class="st8" d="M309.843,420.685c13.742,0.472,30.25,0.809,47.263,0.809c25.115-0.001,51.309-0.732,71.403-2.869
		c1.491-0.159,2.572-1.496,2.414-2.988c-0.159-1.492-1.496-2.573-2.987-2.415c-19.745,2.102-45.83,2.839-70.83,2.838
		c-19.361,0-38.085-0.439-52.764-1.014c-7.339-0.287-13.668-0.609-18.549-0.926c-2.441-0.158-4.519-0.316-6.174-0.466
		c-1.649-0.148-2.893-0.295-3.568-0.41c-1.479-0.249-2.881,0.748-3.13,2.228c-0.249,1.479,0.748,2.881,2.228,3.13l-0.001,0
		c0.948,0.159,2.255,0.307,3.981,0.464C285.138,419.61,296.095,420.213,309.843,420.685z" style="opacity: 1;"></path>
	<path class="st8" d="M601.278,579.234c-23.121-27.811-57.411-43.897-93.573-43.897h-294.41c-33.739,0-65.964,14.009-88.981,38.683
		l-10.984,11.775C97.304,602.974,109.482,631,132.971,631h454.062c22.765,0,35.212-26.547,20.657-44.054L601.278,579.234z" style="opacity: 1;"></path>
</g>
</svg>
