<!--?xml version="1.0" encoding="utf-8"?-->
<!-- Generator: Adobe Illustrator 22.1.0, SVG Export Plug-In . SVG Version: 6.00 Build 0)  -->
<svg version="1.1" id="_x31_9" xmlns="http://www.w3.org/2000/svg" xmlns:xlink="http://www.w3.org/1999/xlink" x="0px" y="0px" viewBox="0 0 499 720" style="enable-background:new 0 0 499 720;" xml:space="preserve">
<style type="text/css">
	.st0{fill:#9BCCD1;}
	.st1{fill:#F7F8F3;}
	.st2{fill:#FFD7C5;}
	.st3{fill:#FFFFFF;}
	.st4{fill:#E5E0D8;}
	.st5{fill:#FFF000;}
	.st6{fill:#231815;}
</style>
<g>
	<polygon class="st0" points="284.282,454.327 291.09,669.746 347.471,669.746 366.917,496.45 385.167,678.515 443,678.515 
		446.738,454.327 363.09,384.382 	" style="opacity: 1;"></polygon>
	<path class="st1" d="M350.059,665.484l-4.022,44.466c-0.32,3.234-3.04,5.7-6.289,5.7h-76.65c-3.49,0-6.32-2.83-6.32-6.321v-5.188
		c4.779-30.907,36.9-38.658,36.9-38.658H350.059z" style="opacity: 1;"></path>
	<path class="st1" d="M383.988,665.484l4.023,44.466c0.319,3.234,3.039,5.7,6.289,5.7h76.65c3.49,0,6.32-2.83,6.32-6.321v-5.188
		c-4.779-30.907-36.9-38.658-36.9-38.658H383.988z" style="opacity: 1;"></path>
	<path class="st0" d="M485.001,420.078V318.604c0,0,0-7.978,0-44.834c0-59.323-49.692-88.321-68.336-88.321l-52.122-18.527
		l-49.754,18.527c-4.367,0-10.609,1.376-17.389,4.518c-4.835,2.234-9.93,5.374-14.816,9.563c-0.49,0.421-1.165,1.065-1.961,1.854
		v234.34h3.656v18.608c9.043,6.491,19.651,9.732,30.26,9.732c10.738,0,21.476-3.321,30.588-9.972l19.412-14.159l13.281,9.812
		c18.595,13.76,52.693,16.413,71.058,2.343v-16.364h38.087C485.669,430.629,485.001,425.373,485.001,420.078z" style="opacity: 1;"></path>
	<path class="st2" d="M484.066,482.895l3.644-3.987c7.039-7.701,8.906-18.816,4.768-28.396l-2.268-5.25
		c-1.337-3.095-2.418-6.284-3.245-9.535h-38.087l1.286,51.592l0.841,0.499C461.802,494.212,475.601,492.156,484.066,482.895z" style="opacity: 1;"></path>
	<path class="st3" d="M321.245,180.523c0,0-21.901,8.835-22.56,10.968c-0.658,2.134,55.576,75.11,55.576,75.11
		s6.005,4.679,10.282,4.203c4.277-0.476,10.02-7.776,10.02-7.776l55.002-75.64l-30.898-15.047
		c-24.104-5.419-39.992-11.257-67.783,0.605L321.245,180.523z" style="opacity: 1;"></path>
	<path class="st4" d="M87.296,184.603h45.441v451.979l-72.582,25.166c-4.064,1.855-6.672,5.913-6.672,10.382v2.852
		c0,7.516,7.116,12.985,14.369,11.023c16.891-4.569,44.701-12.148,61.138-16.93c8.712-2.535,17.925-2.535,26.635,0
		c16.437,4.781,44.247,12.361,61.138,16.93c7.254,1.962,14.369-3.507,14.369-11.023v-2.852c0-4.469-2.607-8.527-6.672-10.382
		l-72.582-25.166V184.603h78.45c5.285,0,9.571-4.289,9.571-9.575v-31.236c0-5.286-4.286-9.575-9.571-9.575s-9.571,4.289-9.571,9.575
		v21.662H77.507" style="opacity: 1;"></path>
	<path class="st3" d="M42.759,164.077c-5.364,4.675-8.753,11.559-8.753,19.235c0,2.248,0.295,4.425,0.845,6.497
		c0.955,3.597-1.826,7.094-5.546,7.094h-5.394c-11.003,0-19.923,8.921-19.923,19.926v68.54c0,6.255,2.937,12.146,7.931,15.911
		l33.866,25.525c3.652,2.753,8.101,4.242,12.674,4.242h2.091c4.573,0,9.022-1.489,12.674-4.242l33.866-25.525
		c4.994-3.765,7.931-9.656,7.931-15.911v-68.541c0-11.004-8.92-19.925-19.922-19.925h-5.394c-3.768,0-6.469-3.557-5.518-7.203
		c0.462-1.768,0.737-3.612,0.802-5.51c0.436-12.684-9.015-23.851-21.199-26.008" style="opacity: 1;"></path>
	<path class="st4" d="M54.287,184.603c12.902-1.303,12.902-15.149,9.571-18.415v-22.396c0-5.286-4.286-9.575-9.571-9.575
		s-9.571,4.289-9.571,9.575v31.236C44.716,180.314,49.002,184.603,54.287,184.603" style="opacity: 1;"></path>
	<path class="st0" d="M171.595,364.883c0,0,12.448,1.423,31.945-23.813c19.497-25.236,42.244-99.89,63.365-122.64
		c8.246-14.452,22.498-21.919,22.498-21.919l19.962,48.104l-38.473,70.877c-21.005,46.04-37.539,91.038-93.135,103.073
		c0,0-20.018,1.267-26.805-18.418C144.167,380.462,171.595,364.883,171.595,364.883z" style="opacity: 1;"></path>
	<path class="st0" d="M284.282,671.26c19.136,5.574,25.084,28.422,25.084,44.39c0,0-44.843,4.013-48.857,0
		c-4.013-4.014-8.362-14.168-3.203-22.195C266.905,678.515,284.282,671.26,284.282,671.26z" style="opacity: 1;"></path>
	<path class="st0" d="M444.769,671.26c-19.136,5.574-25.084,28.422-25.084,44.39c0,0,47.059,0,51.266,0s7.562-12.849,4.321-19.547
		C472.03,689.403,457.316,670.611,444.769,671.26z" style="opacity: 1;"></path>
	<path class="st2" d="M433.35,98.457L433.35,98.457v-7.239c0-32.613-34.017-63.749-70.105-63.749s-70.105,31.136-70.105,63.749
		v7.347c-12.475,1.144-22.245,11.632-22.245,24.407c0,13.159,10.368,23.895,23.38,24.487c6.179,28.533,36.748,53.356,68.971,53.356
		c32.213,0,62.771-24.807,68.965-53.328h1.141c13.537,0,24.511-10.976,24.511-24.515C457.86,109.432,446.886,98.457,433.35,98.457z" style="opacity: 1;"></path>
	<path class="st2" d="M159.846,406.724h-3.708l0.082-1.403h3.626c4.705,0,8.556-3.851,8.556-8.557c0-4.706-3.85-8.557-8.556-8.557
		h-2.623l0.156-2.671h1.069c4.706,0,13.146-3.85,13.146-8.557s-8.441-8.557-13.146-8.557h-0.066l0.157-2.676
		c4.664-0.05,8.465-3.876,8.465-8.552c0-4.706-3.85-8.557-8.556-8.557h-32.884c-4.712,2.323-9.349,7.178-9.349,15.403v31.074
		c0.205,13.286,1.06,22.446,4.063,28.833c1.183,0.805,2.528,1.294,3.955,1.294l35.613-1.403c4.705,0,8.556-3.851,8.556-8.557
		C168.402,410.575,164.551,406.724,159.846,406.724z" style="opacity: 1;"></path>
	<path class="st5" d="M21.622,284.77c0,2.162,1.028,4.228,2.753,5.526l29.459,22.206c1.365,1.026,3.055,1.592,4.763,1.592h1.819
		c1.704,0,3.398-0.566,4.763-1.595l29.456-22.2c1.724-1.301,2.754-3.367,2.754-5.529v-37.323H21.622V284.77z" style="opacity: 1;"></path>
	<path class="st6" d="M336.399,122.972c4.252,0,7.73-3.479,7.73-7.732s-3.478-7.732-7.73-7.732c-4.252,0-7.731,3.479-7.731,7.732
		S332.146,122.972,336.399,122.972z" style="opacity: 1;"></path>
	<path class="st6" d="M390.089,122.972c4.251,0,7.73-3.479,7.73-7.732s-3.479-7.732-7.73-7.732c-4.252,0-7.731,3.479-7.731,7.732
		S385.837,122.972,390.089,122.972z" style="opacity: 1;"></path>
	<path class="st6" d="M359.237,142.883h8.684c1.097,0,1.986-0.889,1.986-1.987c0-1.097-0.889-1.986-1.986-1.986h-5.804
		c-1.366,0-2.616-0.764-3.239-1.98l-0.521-1.018c-0.45-0.877-1.775-0.558-1.775,0.428v3.886
		C356.581,141.694,357.77,142.883,359.237,142.883z" style="opacity: 1;"></path>
	<path class="st6" d="M385.861,90.609h8.456c1.926,0,3.502-1.577,3.502-3.504c0-1.927-1.576-3.504-3.502-3.504h-8.456
		c-1.926,0-3.503,1.577-3.503,3.504C382.358,89.032,383.935,90.609,385.861,90.609z" style="opacity: 1;"></path>
	<path class="st6" d="M351.478,167.461c1.119,0,2.065-0.75,2.363-1.777h18.803c0.297,1.025,1.244,1.777,2.364,1.777
		c1.357,0,2.461-1.103,2.461-2.461v-4.247c0-1.357-1.104-2.462-2.461-2.462c-1.118,0-2.064,0.75-2.363,1.778h-18.802
		c-0.297-1.025-1.245-1.778-2.365-1.778c-1.357,0-2.46,1.104-2.46,2.462V165C349.018,166.357,350.122,167.461,351.478,167.461z" style="opacity: 1;"></path>
	<path class="st6" d="M453.228,418.565V287.258c0-2.402-1.947-4.35-4.349-4.35c-2.402,0-4.349,1.947-4.349,4.35v131.307
		c0,2.402,1.947,4.35,4.349,4.35C451.28,422.915,453.228,420.967,453.228,418.565z" style="opacity: 1;"></path>
	<path class="st6" d="M494.202,443.538c-3.199-7.408-4.849-15.39-4.849-23.459v-101.48c0,0,0-7.971,0-44.825
		c0.002-15.44-3.244-29.012-8.436-40.606c-7.793-17.403-19.892-30.333-31.901-38.951c-6.011-4.311-12.004-7.551-17.512-9.744
		c-2.756-1.096-5.391-1.931-7.869-2.5c-2.044-0.468-3.974-0.747-5.805-0.835c2.195-2.237,4.254-4.584,6.143-7.038
		c4.172-5.425,7.545-11.344,9.885-17.582c0.613-1.634,1.15-3.291,1.616-4.966c7.06-0.519,13.436-3.598,18.142-8.31
		c5.18-5.175,8.397-12.367,8.395-20.27c0.002-7.903-3.215-15.096-8.395-20.27c-3.234-3.239-7.257-5.71-11.749-7.107v-0.812
		c9.572-1.279,18.933-10.9,18.3-15.353c-0.726-5.112-16.308-7.382-22.528-20.086h-0.018c-0.563-1.618-1.158-3.221-1.824-4.788
		c-5.86-13.792-15.617-25.525-27.88-33.831c-6.133-4.152-12.895-7.448-20.111-9.705c-7.215-2.257-14.884-3.475-22.806-3.475
		c-0.098-0.238-0.386-0.224-0.833,0h-2.68c-3.306,0-6.561,0.235-9.763,0.647c-17.397,0.477-48.016-0.001-67.818-7.792
		c-3.417-1.345-7.276,0.853-7.796,4.488c-1.273,8.89,2.183,19.613,5.155,26.774c1.326,3.195-1.603,6.514-4.94,5.603l-5.28-1.441
		c-3.947-1.077-7.753,2.163-7.29,6.228c0.796,6.978,2.679,17.461,7.139,28.087c5.364,12.781,10.847,22.678,13.08,26.547
		c-3.322,1.446-6.319,3.497-8.836,6.017c-5.18,5.175-8.397,12.367-8.395,20.27c-0.002,7.903,3.215,15.095,8.395,20.27
		c4.185,4.19,9.689,7.094,15.822,8.051c1.064,3.893,2.518,7.696,4.346,11.349c3.476,6.942,8.22,13.378,13.89,19.042
		c-0.621,0.12-1.251,0.256-1.892,0.411c-4.008,0.973-8.426,2.625-13.066,4.953c-4.638,2.328-9.491,5.335-14.306,9.034
		c-1.905,1.463-2.263,4.194-0.8,6.099c1.463,1.905,4.194,2.263,6.099,0.8l0,0c3.6-2.767,7.216-5.095,10.682-6.988l61.231,77.508
		c1.441,1.824,4.042,2.167,5.917,0.839l-76.13,105.488l0-92.57c0-2.402-1.947-4.35-4.349-4.35c-2.402,0-4.349,1.947-4.349,4.35
		l0,104.622l-1.134,1.572c-1.405,1.948-0.966,4.667,0.981,6.073c0.049,0.036,0.104,0.056,0.153,0.089v54.183l0,0
		c0,0.006,0,1.391,0,6.182s0,12.981,0,26.581c0,3.505,0.135,8.933,0.368,15.827c0.817,24.103,2.853,65.978,4.686,101.857
		c1.444,28.264,2.761,52.782,3.255,61.921c-0.516,0.118-1.056,0.247-1.648,0.402c-5.016,1.324-12.627,4.042-19.664,9.729
		c-3.512,2.843-6.868,6.443-9.583,10.948c-2.717,4.502-4.777,9.901-5.754,16.233l-0.051,0.329v5.524
		c-0.002,2.933,1.201,5.628,3.125,7.545c1.917,1.924,4.612,3.127,7.544,3.125h39.826h9.026c0.001,0,0.003,0,0.005,0s0.003,0,0.005,0
		h27.789h16.9c2.402,0,4.349-1.948,4.349-4.35c0-2.402-1.947-4.35-4.349-4.35h-6.418c0.056-0.303,0.104-0.611,0.135-0.922l0,0.005
		l4.022-40.204l0.001-0.007l0.261-2.651c0.327-0.61,0.529-1.297,0.529-2.038c0-0.438-0.084-0.853-0.205-1.252l13.351-135.519
		l17.948,181.665c0.031,0.312,0.078,0.619,0.135,0.922h-8.827c-2.402,0-4.349,1.948-4.349,4.35c0,2.402,1.947,4.35,4.349,4.35H394.3
		h25.38c0.001,0,0.003,0,0.005,0s0.003,0,0.005,0h9.026h42.234c2.932,0.002,5.627-1.201,7.543-3.125
		c1.924-1.917,3.127-4.612,3.125-7.545v-5.523l-0.051-0.329c-1.298-8.444-4.54-15.221-8.665-20.441
		c-3.09-3.921-6.652-6.974-10.222-9.344c-5.36-3.553-10.737-5.589-14.806-6.765c-1.087-0.313-2.077-0.563-2.955-0.764
		c0.585-10.807,2.316-43.07,4.048-77.593c1.064-21.204,2.128-43.26,2.926-61.725c0.399-9.233,0.732-17.569,0.966-24.458
		c0.11-3.251,0.197-6.162,0.259-8.714c3.676,1.462,7.539,2.193,11.376,2.193c8.428,0.002,16.766-3.459,22.779-10.035l3.645-3.988
		c5.299-5.798,8.081-13.262,8.08-20.824c0-4.131-0.831-8.297-2.53-12.231L494.202,443.538z M300.402,153.601
		c-2.023-5.396-3.112-10.963-3.112-16.535c0-2.293-1.859-4.151-4.151-4.151c-2.292,0-4.151,1.859-4.151,4.151
		c0,1.788,0.118,3.565,0.301,5.333c-3.161-0.994-5.985-2.735-8.281-5.028c-3.691-3.698-5.961-8.763-5.963-14.399
		c0.002-5.636,2.272-10.701,5.963-14.399c1.089-1.087,2.308-2.033,3.613-2.852V119.3h0.764c6.944,0,12.573-5.63,12.573-12.575
		l22.021-21.799c3.363-3.328,9.041-0.574,8.508,4.128v0.001c-0.636,5.616,4.653,10.055,10.077,8.467
		c7.844-2.294,18.501-6.863,27.712-15.878c6.9-6.753,10.79-13.129,13.254-18.935c1.608-3.788,6.9-4.096,8.932-0.516
		c8.852,15.591,25.658,31.477,40.068,38.713v5.819c0,6.945,5.63,12.575,12.573,12.575h0.764v-14.807
		c2.192,1.013,4.184,2.388,5.878,4.08c3.691,3.698,5.961,8.763,5.963,14.399c-0.002,5.636-2.272,10.701-5.963,14.399
		c-2.844,2.839-6.5,4.825-10.597,5.598c0.223-1.955,0.351-3.924,0.351-5.903c0-2.293-1.859-4.151-4.151-4.151
		c-2.292,0-4.151,1.859-4.151,4.151h0c0,7.427-1.938,14.856-5.44,21.862c-5.246,10.506-14.035,20.009-24.707,26.816
		c-10.671,6.816-23.177,10.924-35.807,10.919c-8.424,0.001-16.783-1.819-24.589-5.058c-11.708-4.851-22.143-12.913-29.56-22.568
		C305.383,164.212,302.424,158.995,300.402,153.601z M363.967,268.108l-59.947-75.882c1.906-0.723,3.7-1.281,5.331-1.676
		c2.149-0.523,4.02-0.756,5.439-0.754c1.003,0,1.915-0.353,2.651-0.924c1.787,1.359,3.627,2.657,5.527,3.871
		c11.861,7.57,25.839,12.219,40.275,12.224c9.621-0.001,19.047-2.073,27.769-5.691c7.796-3.238,15.032-7.712,21.38-13.089
		c0.353,2.048,2.126,3.61,4.275,3.61c1.676-0.005,3.981,0.331,6.635,1.068l-58.587,81.18
		C365.105,270.733,364.879,269.262,363.967,268.108z M260.509,711.3c-0.558-0.002-1.024-0.214-1.394-0.577
		c-0.363-0.371-0.575-0.836-0.577-1.394v-4.796c1.116-6.868,3.649-12.04,6.848-16.112c2.435-3.09,5.275-5.539,8.201-7.48
		c3.686-2.45,7.5-4.069,10.674-5.115c3.526,1.227,6.455,3.132,8.973,5.586c4.187,4.08,7.187,9.768,9.085,15.929
		c1.428,4.612,2.234,9.465,2.545,13.959h-4.53H260.509z M313.564,711.3c-0.184-3.017-0.544-6.161-1.155-9.357
		c-1.373-7.145-3.894-14.505-8.182-20.841c-2.145-3.163-4.743-6.064-7.859-8.482c-0.26-0.203-0.53-0.396-0.798-0.591l-0.133-2.442
		c0.438,0.148,0.899,0.247,1.387,0.247h46.267l-3.97,39.683l0,0.005c-0.053,0.514-0.281,0.939-0.638,1.267
		c-0.362,0.323-0.807,0.509-1.323,0.51H313.564z M392.977,710.79c-0.357-0.328-0.586-0.753-0.638-1.267l-3.921-39.689h42.212
		c2.402,0,4.349-1.948,4.349-4.35c0-2.402-1.947-4.35-4.349-4.35h-43.072l-16.313-165.112c-0.237-2.391-2.366-4.137-4.755-3.9
		c-0.262,0.026-0.513,0.083-0.758,0.153c-0.246-0.07-0.499-0.128-0.762-0.153c-2.39-0.236-4.519,1.512-4.754,3.903l-16.266,165.11
		h-47.125c-0.653,0-1.266,0.154-1.822,0.412c-0.791-14.697-2.548-47.678-4.222-81.39c-0.993-20.001-1.957-40.26-2.672-57.1
		c-0.357-8.42-0.653-15.985-0.858-22.23c-0.206-6.241-0.321-11.178-0.321-14.266c0-13.599,0-21.79,0-26.581c0-0.095,0-0.18,0-0.272
		l9.499,2.959c5.369,1.671,10.893,2.492,16.384,2.492c11.823,0,23.495-3.806,33.173-11.097l9.776-7.365
		c2.174-1.637,4.743-2.451,7.329-2.452c2.585,0.001,5.154,0.814,7.328,2.452l9.777,7.365c9.676,7.29,21.348,11.097,33.172,11.097
		c5.49,0,11.014-0.82,16.385-2.492l14.778-4.603c0,0.57,0,1.201,0,1.916c0,4.791,0,12.981,0,26.581c0,3.294-0.131,8.69-0.363,15.532
		c-0.812,23.975-2.847,65.853-4.679,101.708c-0.916,17.929-1.781,34.357-2.417,46.303c-0.318,5.972-0.579,10.824-0.76,14.183
		c-0.182,3.358-0.283,5.218-0.283,5.223l-0.047,0.862c-2.309,1.376-4.392,3.006-6.244,4.819
		c-5.559,5.447-9.105,12.444-11.316,19.582c-1.72,5.578-2.623,11.261-2.943,16.528H394.3
		C393.783,711.298,393.338,711.112,392.977,710.79z M468.465,691.903c2.048,3.449,3.638,7.574,4.455,12.617v4.809
		c-0.002,0.558-0.214,1.023-0.577,1.394c-0.37,0.363-0.835,0.575-1.393,0.577h-42.234h-4.513c0.172-2.502,0.479-5.101,0.981-7.721
		c1.196-6.28,3.427-12.58,6.837-17.593c1.704-2.512,3.691-4.707,5.991-6.491c2.3-1.781,4.908-3.161,7.957-4.054
		c4.249,1.272,9.999,3.647,15.053,7.832C463.8,685.568,466.376,688.391,468.465,691.903z M484.5,475.973l-3.644,3.987
		c-4.324,4.727-10.296,7.203-16.36,7.206c-3.866-0.001-7.748-1.005-11.267-3.087c0-12.126,0-19.608,0-24.1c0-4.791,0-6.176,0-6.182
		c0-2.402-1.947-4.35-4.349-4.35c-0.994,0-1.899,0.347-2.631,0.908c-1.084-0.832-2.537-1.148-3.94-0.711l0,0l-15.141,4.716
		c-4.525,1.409-9.175,2.099-13.799,2.099c-9.96,0-19.789-3.206-27.938-9.346l-9.777-7.365c-3.714-2.8-8.147-4.204-12.562-4.203
		c-4.417-0.001-8.849,1.404-12.563,4.203l-9.775,7.364c-8.151,6.141-17.981,9.346-27.94,9.346c-4.624,0-9.275-0.691-13.799-2.099
		l-12.085-3.765v-55.903l144.092-199.658c0.239-0.332,0.406-0.69,0.54-1.056c3.081,1.437,6.347,3.241,9.664,5.432
		c9.502,6.268,19.392,15.604,26.858,27.962c7.468,12.369,12.565,27.737,12.571,46.401c0,36.854,0,44.824,0,44.825v101.48
		c0,9.255,1.892,18.412,5.563,26.908l2.268,5.25c1.221,2.83,1.816,5.815,1.816,8.781C490.301,466.454,488.306,471.809,484.5,475.973
		z" style="opacity: 1;"></path>
	<path class="st6" d="M471.765,431.378h-20.929c-2.402,0-4.349,1.948-4.349,4.35c0,2.402,1.947,4.35,4.349,4.35h20.929
		c2.402,0,4.349-1.948,4.349-4.35C476.114,433.326,474.167,431.378,471.765,431.378z" style="opacity: 1;"></path>
	<path class="st6" d="M219.762,690.394c4.137-0.001,7.97-1.678,10.768-4.431c2.801-2.745,4.596-6.648,4.591-10.981v-2.852
		c0-6.031-3.518-11.507-9.003-14.011l-0.174-0.079l-70.077-24.298V469.181l39.602-51.383c7.293-2.825,13.873-6.297,19.797-10.35
		c7.623-5.211,14.192-11.338,19.982-18.105c8.687-10.155,15.63-21.738,21.888-33.982c6.256-12.247,11.83-25.167,17.715-38.063
		c0.997-2.185,0.034-4.766-2.151-5.763c-2.185-0.997-4.765-0.034-5.762,2.152l0,0c-5.272,11.557-10.229,22.965-15.539,33.715
		c-7.961,16.135-16.711,30.747-28.346,42.318c-4.314,4.292-9.025,8.173-14.262,11.588c2.393-5.464,3.408-11.171,3.408-16.638
		c0-1.835-0.112-3.644-0.322-5.412c-0.861-7.157-3.269-13.648-6.597-18.621c-1.674-2.485-3.583-4.605-5.794-6.205
		c-0.351-0.253-0.714-0.487-1.081-0.712c2.706-2.803,5.568-6.096,8.576-9.989c2.627-3.403,5.206-7.489,7.804-12.111
		c4.541-8.084,9.131-17.812,13.784-28.198c6.973-15.572,14.077-32.623,21.125-47.554c3.522-7.463,7.029-14.394,10.466-20.311
		c3.431-5.915,6.815-10.817,9.932-14.166c1.634-1.76,1.532-4.512-0.228-6.147c-1.76-1.635-4.511-1.533-6.146,0.228l0,0
		c-2.908,3.136-5.703,6.992-8.483,11.412c-4.856,7.733-9.652,17.208-14.432,27.455c-7.162,15.363-14.269,32.46-21.158,47.72
		c-3.442,7.627-6.829,14.792-10.115,21.02c-3.281,6.225-6.479,11.519-9.432,15.334c-8.495,10.997-15.433,16.536-20.251,19.307
		c-3.386,1.942-5.718,2.546-6.934,2.737c0.216-1.064,0.333-2.111,0.333-3.133c0.003-2.171-0.497-4.21-1.377-5.968
		c-1.322-2.647-3.435-4.623-5.782-5.938c-2.356-1.317-4.969-2.02-7.577-2.12l-0.066-0.002h-3.003
		c0.263-0.532,0.425-1.123,0.425-1.757h0V188.591h74.462c3.732,0.002,7.147-1.525,9.588-3.974c2.447-2.442,3.973-5.857,3.971-9.589
		v-31.236c0.002-3.732-1.524-7.148-3.971-9.59c-2.441-2.448-5.856-3.976-9.588-3.974c-3.733-0.002-7.147,1.525-9.588,3.974
		c-2.447,2.442-3.973,5.857-3.971,9.59v17.673H79.101c-3.203-2.892-7.031-5.11-11.255-6.397v-11.276
		c0.002-3.732-1.524-7.148-3.971-9.59c-2.441-2.448-5.856-3.976-9.588-3.974c-3.733-0.002-7.147,1.525-9.588,3.974
		c-2.447,2.442-3.973,5.857-3.971,9.59v16.86c-0.204,0.121-0.404,0.256-0.589,0.418l0,0c-6.195,5.393-10.123,13.377-10.121,22.242
		c0,2.597,0.341,5.121,0.979,7.521l-0.001-0.003c0.039,0.15,0.055,0.286,0.056,0.418c0.001,0.405-0.171,0.822-0.497,1.15
		c-0.332,0.324-0.736,0.514-1.25,0.517h-5.394c-6.591-0.002-12.594,2.683-16.908,7.004C2.682,204.234-0.002,210.238,0,216.829v68.54
		c0,7.507,3.524,14.578,9.519,19.097l33.866,25.525c3.457,2.606,7.517,4.241,11.772,4.807l0,59.53
		c0,26.143,7.822,51.682,22.447,73.343l0.02,0.039l0.166,0.245c4.693,6.916,10.819,12.164,17.637,15.657
		c6.82,3.495,14.325,5.247,21.837,5.248c3.857,0,7.715-0.48,11.487-1.409v146.292L58.672,658.04l-0.174,0.079
		c-5.485,2.504-9.003,7.98-9.003,14.011v2.852c-0.005,4.333,1.789,8.236,4.59,10.982c2.797,2.753,6.631,4.429,10.768,4.43
		c1.335,0,2.692-0.177,4.034-0.538l0.006-0.002c16.903-4.573,44.71-12.15,61.211-16.95c3.994-1.163,8.099-1.743,12.205-1.743
		c4.105,0,8.209,0.58,12.202,1.743c16.501,4.8,44.308,12.378,61.212,16.95C217.073,690.221,218.432,690.395,219.762,690.394z
		 M136.652,429.682h11.809c-0.353,0.595-0.569,1.282-0.569,2.024v33.556c-3.218,4.094-7.016,7.314-11.167,9.708v-44.571
		C136.725,430.153,136.695,429.915,136.652,429.682z M184.186,365.258c2.001-1.152,4.194-2.633,6.555-4.511
		c0.427-0.241,0.722-0.306,1.084-0.315c0.28,0,0.621,0.053,1.056,0.214c0.755,0.275,1.78,0.918,2.856,1.986
		c1.621,1.592,3.319,4.093,4.668,7.157c1.357,3.062,2.382,6.677,2.834,10.495c0.17,1.438,0.261,2.906,0.261,4.386
		c0,4.668-0.899,9.43-2.984,13.868c-2.031,4.31-5.173,8.339-9.881,11.81c-4.29,1.567-8.872,2.9-13.797,3.966
		c-2.348,0.508-3.839,2.824-3.331,5.172c0.508,2.348,2.823,3.839,5.171,3.331c0.81-0.175,1.585-0.382,2.38-0.571l-25.192,32.686
		v-23.226c0-0.743-0.216-1.429-0.57-2.024h3.153l0.062-0.002c1.739-0.065,3.478-0.403,5.144-1.007
		c2.493-0.908,4.851-2.421,6.649-4.627c0.895-1.101,1.64-2.376,2.152-3.793c0.514-1.416,0.792-2.971,0.791-4.598
		c0-2.999-0.931-6.194-2.805-9.5c0.328-0.271,0.643-0.556,0.942-0.856c2.374-2.369,3.864-5.677,3.863-9.3
		c0.001-3.623-1.489-6.931-3.863-9.3c-0.073-0.073-0.155-0.138-0.23-0.209c0.075-0.072,0.157-0.136,0.23-0.209
		c2.374-2.369,3.864-5.677,3.863-9.3c0.001-2.895-0.962-5.58-2.555-7.755C174.828,369.1,178.837,368.344,184.186,365.258z
		 M161.163,351.174c1.421,0.514,2.655,1.354,3.471,2.365c0.412,0.508,0.729,1.057,0.952,1.672c0.222,0.616,0.353,1.3,0.354,2.111
		c0,1.518-0.48,3.539-1.962,6.097c-0.096,0.166-0.165,0.339-0.232,0.513c-0.545-0.069-1.096-0.117-1.659-0.117h-14.143
		c-2.018,0-3.654,1.636-3.654,3.655c0,2.018,1.636,3.655,3.654,3.655l14.143,0c1.607,0.001,3.053,0.65,4.131,1.723
		c1.073,1.078,1.722,2.525,1.723,4.132c-0.001,1.607-0.65,3.054-1.723,4.132c-1.077,1.073-2.524,1.722-4.131,1.723h-14.143
		c-2.018,0-3.654,1.636-3.654,3.655c0,2.018,1.636,3.655,3.654,3.655v0h14.143c1.607,0.001,3.053,0.65,4.131,1.723
		c1.073,1.078,1.722,2.525,1.723,4.132c-0.001,1.607-0.65,3.054-1.723,4.132c-1.077,1.073-2.524,1.722-4.131,1.723h-14.143
		c-2.018,0-3.654,1.636-3.654,3.655c0,2.018,1.636,3.655,3.654,3.655l14.143,0c0.562,0,1.113-0.048,1.658-0.117
		c0.068,0.174,0.137,0.348,0.234,0.515l0,0c1.482,2.555,1.962,4.574,1.961,6.095c-0.003,1.08-0.23,1.938-0.609,2.704
		c-0.566,1.137-1.538,2.107-2.819,2.827c-1.263,0.714-2.807,1.135-4.243,1.188h-28.571c-3.055-0.002-5.788-1.228-7.794-3.229
		c-2-2.007-3.227-4.74-3.228-7.795v-49.719c0.001-3.056,1.228-5.789,3.228-7.796c2.006-2.001,4.739-3.228,7.794-3.229h5.751h22.827
		C159.229,350.641,160.23,350.835,161.163,351.174z M224.745,169.442v-25.65c0.002-1.554,0.619-2.926,1.636-3.95
		c1.023-1.018,2.394-1.635,3.947-1.636c1.553,0.002,2.923,0.619,3.947,1.636c1.017,1.024,1.634,2.396,1.636,3.95v31.236
		c-0.002,1.553-0.619,2.925-1.636,3.949c-1.023,1.018-2.394,1.634-3.947,1.636h-82.438v160.924c0,0.634,0.161,1.225,0.424,1.757
		h-12.014c0.263-0.532,0.425-1.123,0.425-1.757l0-160.924H88.859c-0.384-3.992-1.599-7.776-3.454-11.172L224.745,169.442z
		 M48.704,143.792c0.002-1.554,0.619-2.926,1.636-3.95c1.023-1.018,2.394-1.635,3.947-1.636c1.552,0.002,2.923,0.619,3.947,1.636
		c1.017,1.024,1.634,2.396,1.636,3.95v13.676c-0.001,0.007-0.004,0.012-0.005,0.019c-0.08,0.452-0.064,0.896,0.005,1.325v9.05
		l1.177,1.155l0,0.001c0.055,0.062,0.275,0.453,0.425,1.032c0.157,0.579,0.264,1.339,0.263,2.157c0,0.917-0.131,1.906-0.414,2.835
		c-0.427,1.404-1.156,2.641-2.263,3.598c-1.084,0.923-2.574,1.678-4.958,1.964c-1.475-0.05-2.779-0.651-3.76-1.627
		c-1.017-1.024-1.634-2.396-1.636-3.949V143.792z M14.32,298.095c-3.995-3.011-6.344-7.723-6.344-12.726v-68.54
		c0.002-4.414,1.777-8.373,4.667-11.27c2.897-2.89,6.855-4.666,11.268-4.668h5.394c2.704,0.003,5.167-1.116,6.898-2.862
		c1.737-1.741,2.823-4.152,2.825-6.783c0-0.812-0.104-1.641-0.321-2.458l-0.001-0.003c-0.463-1.745-0.711-3.575-0.712-5.474
		c0.001-3.82,0.996-7.391,2.735-10.494v2.211c-0.002,3.732,1.524,7.148,3.971,9.589c2.35,2.357,5.605,3.846,9.175,3.953
		c0.008,0.001,0.017,0,0.025,0.001c0.13,0.004,0.257,0.019,0.388,0.019c0.067,0,0.129-0.016,0.195-0.02
		c0.069-0.003,0.136,0.007,0.206,0l0,0c2.603-0.261,4.924-0.966,6.898-2.04c2.973-1.605,5.08-4.029,6.344-6.586
		c1.274-2.566,1.778-5.253,1.781-7.738c-0.002-1.689-0.233-3.291-0.695-4.773c-0.233-0.742-0.526-1.455-0.904-2.14
		c-0.084-0.151-0.173-0.3-0.266-0.449v-1.272c3.066,1.345,5.81,3.387,7.981,5.941c3.244,3.818,5.191,8.679,5.19,13.832
		c0,0.239-0.004,0.477-0.012,0.713v-0.005c-0.055,1.6-0.286,3.15-0.675,4.639l0.003-0.014c-0.222,0.84-0.326,1.684-0.325,2.504
		c0.001,2.607,1.041,5.027,2.77,6.797c0.865,0.887,1.909,1.617,3.086,2.124c1.176,0.508,2.487,0.789,3.843,0.788H95.1
		c4.412,0.002,8.371,1.778,11.267,4.668c2.89,2.897,4.665,6.855,4.667,11.269v68.541c0,5.002-2.349,9.715-6.344,12.726
		L70.824,323.62c-2.96,2.232-6.567,3.439-10.274,3.439h-2.091c-3.707,0-7.314-1.207-10.274-3.439L14.32,298.095z M117.262,480.16
		c-6.16,0-12.31-1.439-17.87-4.29c-5.561-2.853-10.535-7.102-14.406-12.798l-0.003-0.004
		c-13.769-20.278-21.129-44.226-21.129-68.739v-59.53c4.254-0.567,8.314-2.202,11.771-4.807l33.866-25.525
		c5.994-4.518,9.519-11.589,9.519-19.097v-68.541c0.002-6.591-2.682-12.595-7.003-16.91c-4.314-4.321-10.317-7.006-16.907-7.004
		h-5.394c-0.271-0.001-0.486-0.052-0.686-0.137c-0.595-0.249-1.045-0.904-1.037-1.595c0-0.155,0.019-0.305,0.06-0.462l0.003-0.014
		c0.181-0.694,0.328-1.402,0.459-2.116h40.243v152.947c0,0.644,0.167,1.244,0.438,1.783c-4.848,0.133-9.258,2.145-12.45,5.344
		c-3.311,3.306-5.371,7.913-5.369,12.964v49.719c-0.002,5.051,2.057,9.657,5.369,12.963c3.113,3.119,7.385,5.104,12.089,5.326
		c-0.048,0.247-0.076,0.5-0.076,0.761h0v48.035C125.014,479.576,121.14,480.16,117.262,480.16z M142.309,663.185
		c-4.857,0-9.714,0.687-14.433,2.06c-16.374,4.763-44.186,12.344-61.065,16.909l0.006-0.002c-0.676,0.182-1.331,0.264-1.963,0.265
		c-1.959,0.001-3.811-0.799-5.175-2.14c-1.36-1.349-2.203-3.157-2.208-5.295v-2.852c0-2.871,1.659-5.475,4.245-6.701l75.009-26.008
		V484.715c0.365-0.163,0.735-0.313,1.096-0.485c3.56-1.696,6.944-3.883,10.071-6.518l0,161.709l75.009,26.008
		c2.587,1.226,4.245,3.831,4.245,6.701v2.852c-0.005,2.136-0.849,3.944-2.209,5.294c-1.364,1.341-3.216,2.142-5.175,2.141
		c-0.638,0-1.291-0.083-1.957-0.262c-16.879-4.566-44.691-12.146-61.065-16.91C152.022,663.872,147.165,663.185,142.309,663.185z" style="opacity: 1;"></path>
	<path class="st6" d="M60.494,691.753c-3.886-0.002-7.444,1.587-9.985,4.136c-2.549,2.542-4.138,6.1-4.136,9.987
		c-0.002,3.886,1.588,7.444,4.136,9.986c2.542,2.549,6.099,4.139,9.985,4.137c3.885,0.002,7.443-1.588,9.985-4.137
		c2.549-2.542,4.138-6.1,4.136-9.986c0.002-3.887-1.588-7.445-4.136-9.987C67.937,693.34,64.379,691.751,60.494,691.753z" style="opacity: 1;"></path>
	<path class="st6" d="M224.123,691.753c-3.886-0.002-7.444,1.587-9.985,4.136c-2.549,2.542-4.139,6.1-4.137,9.987
		c-0.002,3.886,1.588,7.444,4.137,9.986c2.542,2.549,6.099,4.139,9.985,4.137c3.885,0.002,7.443-1.588,9.985-4.137
		c2.549-2.542,4.138-6.1,4.136-9.986c0.002-3.887-1.587-7.445-4.136-9.987C231.566,693.34,228.008,691.751,224.123,691.753z" style="opacity: 1;"></path>
	<path class="st6" d="M84.796,221.559c0-2.203-1.786-3.989-3.988-3.989H37.163c-2.203,0-3.988,1.786-3.988,3.989
		c0,2.203,1.785,3.989,3.988,3.989h43.645C83.01,225.548,84.796,223.762,84.796,221.559z" style="opacity: 1;"></path>
</g>
</svg>
