<svg enable-background="new 0 0 527 720" viewBox="0 0 527 720" xmlns="http://www.w3.org/2000/svg"><path d="m512.072 563.793c-10.741 8.732-45.088 20.788-55.703 21.71-10.616.909-59.698-17.309-59.698-17.309v151.806h-275.822v-148.551s-41.289 14.418-50.48 14.04c-9.191-.377-42.126-8.816-53.399-19.223-11.272-10.409-16.063-37.274-11.16-41.004 4.833-3.66 90.008-137.905 92.662-142.096.042-.07.07-.098.07-.098l50.242 30.736-50.242 85.166 165.546-50.812 164.121 50.812-48.37-87.052s49.558-28.933 52.365-24.449c2.807 4.485 79.295 120.833 83.848 134.119 4.555 13.285 6.775 33.459-3.98 42.205z" fill="#768fa5"/><path d="m172.402 472.345s.93 9.205.008 12.193c-.922 2.989 77.858 105.231 77.858 105.231s8.411 6.557 14.404 5.888c5.992-.667 14.038-10.893 14.038-10.893l77.055-110.325-39.331-14.366-51.761-38.583z" fill="#fff"/><path d="m379.839 411.915 15.321-6.572c-3.304-15.518-17.074-27.164-33.574-27.164v-10.141c0-45.691-47.655-89.313-98.214-89.313-50.557 0-98.213 43.622-98.213 89.313v10.294c-14.946 1.371-27.092 12.329-30.303 26.667l13.925 8.805s-3.634 6.156-9.766 16.544c5.769 9.471 15.966 15.948 27.734 16.484 8.657 39.975 51.481 74.753 96.624 74.753 45.129 0 87.94-34.755 96.616-74.713h1.597c12.006 0 22.557-6.174 28.695-15.507z" fill="#ffd7c5"/><path d="m423.449 385.372-38.216 20.844-11.733-19.949v-25.539c0-2.85.056-5.644-.056-8.438-.614-17.603-5.587-35.095-14.526-50.295-2.459-4.135-5.141-8.159-8.214-11.96 1.509.224 2.849.951 3.744 2.236 7.319-8.83 16.873-6.594 33.243 6.37 11.901 9.501 25.478 48.395 26.93 57.727 1.453 9.277 8.828 29.004 8.828 29.004z" fill="#ffd7c5"/><path d="m175.885 290.035c-6.426 8.271-11.622 17.436-15.42 27.216-5.085 13.133-7.264 26.88-7.264 40.851v28.22l-11.733 19.895-38.159-20.844s7.374-19.727 8.827-29.003c1.453-9.332 15.03-48.226 26.93-57.727 16.37-12.964 25.924-15.2 33.243-6.37.838-1.231 2.123-1.958 3.576-2.238z" fill="#ffd7c5"/><path d="m396.67 720v-142.348" fill="none"/><path d="m372.139 383.956c-25.863-4.495-43.319-46.118-39.409-63.897-10.363-9.213-8.383-17.871-.46-19.307 3.231-.584 5.854-2.529 7.529-5.355 3.206-5.404 11.678-7.553 14.653-3.133 7.32-8.809 16.875-6.562 33.221 6.403 11.922 9.456 25.474 48.371 26.942 57.688 1.468 9.318 8.807 29.033 8.807 29.033l-38.164 20.821z" fill="#ffd7c5"/><path d="m379.839 413.806 67.26 118.433" fill="#ffd7c5"/><path d="m353.244 474.439 74.959 24.528" fill="#ffd7c5"/><path d="m154.606 383.956c25.863-4.495 43.319-46.118 39.409-63.897 10.363-9.213 8.383-17.871.46-19.307-3.231-.584-5.854-2.529-7.529-5.355-3.206-5.404-11.678-7.553-14.653-3.133-7.32-8.809-16.875-6.562-33.221 6.403-11.922 9.456-25.473 48.371-26.942 57.688-1.468 9.318-8.807 29.033-8.807 29.033l38.164 20.821z" fill="#ffd7c5"/><path d="m146.906 413.806-67.261 118.433" fill="#ffd7c5"/><path d="m173.5 474.439-74.959 24.528" fill="#ffd7c5"/><path d="m368.166 311.11s-6.108-13.396-16.334-17.582" fill="#ffd7c5"/><path d="m157.005 311.11s6.108-13.396 16.335-17.582" fill="#ffd7c5"/><g fill="#231815"><path d="m126.939 595.702v124.298h-12.194v-124.298c0-3.367 2.738-6.091 6.104-6.091 3.367 0 6.09 2.724 6.09 6.091z"/><path d="m257.759 459.254h12.165c1.537 0 2.782-1.246 2.782-2.783 0-1.536-1.245-2.782-2.782-2.782h-8.132c-1.913 0-3.665-1.071-4.537-2.774l-.73-1.426c-.63-1.229-2.487-.782-2.487.6v5.442c0 2.057 1.666 3.723 3.721 3.723z"/><path d="m215.98 428.228 10.414 2.583-8.038 5.367c-1.796 1.199-2.281 3.628-1.082 5.426 1.199 1.797 3.628 2.281 5.425 1.082l15.404-10.285c1.285-.858 1.946-2.403 1.681-3.926s-1.411-2.753-2.912-3.124l-19.009-4.716c-2.097-.52-4.218.758-4.738 2.855-.52 2.096.758 4.218 2.855 4.738z"/><path d="m288.641 432.401 15.404 10.284c1.796 1.199 4.224.715 5.424-1.081 1.199-1.797.715-4.226-1.081-5.425v-.001l-8.038-5.367 10.414-2.584c2.097-.52 3.374-2.642 2.854-4.738s-2.641-3.375-4.737-2.854l-19.011 4.716c-1.5.372-2.646 1.602-2.912 3.124-.264 1.523.398 3.067 1.683 3.926z"/><path d="m243.409 492.695c8.835-4.472 19.963-3.558 19.963-3.558s11.129-.914 19.963 3.558c2.938 1.487 6.125-1.403 4.86-4.442-3.881-9.329-10.658-17.012-24.823-17.012-12.072 0-20.943 7.683-24.823 17.012-1.265 3.04 1.921 5.929 4.86 4.442z"/><path d="m263.372 646.207c4.411 0 7.987-3.577 7.987-7.988 0-4.412-3.576-7.99-7.987-7.99s-7.986 3.577-7.986 7.99c0 4.411 3.576 7.988 7.986 7.988z"/><path d="m263.372 697.641c4.411 0 7.987-3.577 7.987-7.988 0-4.412-3.576-7.99-7.987-7.99s-7.986 3.577-7.986 7.99c0 4.411 3.576 7.988 7.986 7.988z"/><path d="m295.837 397.02 11.209 3.834c2.553.875 5.358-.502 6.231-3.056.874-2.554-.501-5.359-3.055-6.232l-11.208-3.834c-2.554-.875-5.359.501-6.232 3.056-.875 2.554.501 5.359 3.055 6.232z"/><path d="m219.699 400.854 11.208-3.834c2.554-.873 3.93-3.678 3.056-6.232-.873-2.555-3.678-3.931-6.232-3.056l-11.208 3.834c-2.554.873-3.929 3.678-3.055 6.232.873 2.554 3.677 3.931 6.231 3.056z"/><path d="m427.272 390.553-.001-.001z"/><path d="m238.264 327.463s-10.798 25.971-14.548 34.628 25.874-1.019 41.609-10.694c15.735-9.676 37.117-24.443 40.681-29.026s6.931-.482 6.931-.482c3.017 3.352 5.922 6.706 8.716 10.226 2.555 3.237 5.049 6.59 7.319 10.078.197.685.398 1.371.615 2.061 1.947 6.148 4.699 12.449 8.19 18.373.126 1.459-.56 2.961-.871 4.414-.391 1.845-.726 3.745-.95 5.644-.893 7.489-.615 15.032 2.347 22.018 4.749 11.122 14.247 18.833 23.075 26.602 1.62 1.452 3.296 3.744 5.419 4.358 2.626.727 5.531-.726 6.425-3.296.335-.951.279-1.956.279-2.962v-21.689l6.075 10.304c-.889.04-1.781.259-2.608.729-2.792 1.587-3.77 5.137-2.184 7.93l8.06 14.193c-2.36 3.154-5.352 5.816-8.792 7.768-2.204 1.25-4.587 2.203-7.101 2.833.287-2.625.451-5.266.451-7.921 0-3.212-2.604-5.816-5.815-5.816-3.212 0-5.815 2.604-5.815 5.816 0 10.405-2.714 20.814-7.622 30.629-7.349 14.719-19.661 28.034-34.612 37.57-14.949 9.549-32.468 15.304-50.164 15.298-11.801.001-23.512-2.549-34.447-7.086-16.403-6.797-31.021-18.092-41.412-31.618-5.2-6.76-9.345-14.069-12.178-21.626-2.835-7.56-4.361-15.36-4.361-23.166 0-3.212-2.604-5.816-5.815-5.816-3.212 0-5.815 2.604-5.815 5.816 0 2.657.177 5.298.465 7.923-2.519-.629-4.906-1.583-7.114-2.835-3.441-1.952-6.432-4.613-8.793-7.768l8.06-14.193c1.586-2.793.608-6.343-2.184-7.93-.827-.47-1.719-.69-2.608-.729l6.031-10.231v22.51c.056 1.9.782 3.577 2.402 4.639 2.515 1.675 5.14.782 7.096-1.173 3.576-3.521 7.599-6.595 11.286-10.059 4.47-4.191 8.716-8.774 11.901-14.027 3.632-6.036 5.308-12.518 5.364-19.503 0-5.831-.838-11.624-2.516-17.197 1.725-2.899 3.293-5.881 4.662-8.9.04-.089.074-.18.115-.269.22.008.436.045.644.156 4.24 2.27 31.911-12.626 44.107-26.504zm7.234 247.461-53.768-74.986c4.713 4.259 9.809 8.159 15.22 11.617 11.656 7.44 24.775 12.854 38.548 15.433zm32.144-47.333c8.492-1.272 16.768-3.622 24.633-6.884 10.296-4.276 19.904-10.084 28.422-17.045l-53.055 71.707zm-167.161-144.923c.643-1.827 1.412-4.054 2.214-6.474 1.027-3.102 2.105-6.51 3.034-9.787.928-3.288 1.709-6.408 2.144-9.148.124-.806.457-2.306.959-4.151 1.76-6.521 5.563-17.547 10.11-27.682 2.271-5.071 4.737-9.939 7.17-13.901 1.215-1.98 2.42-3.731 3.553-5.15 1.128-1.42 2.193-2.502 3.019-3.152 4.711-3.742 8.741-6.459 12.027-8.141 1.642-.844 3.092-1.429 4.327-1.789 1.238-.362 2.253-.501 3.081-.5 1.113.01 1.9.212 2.772.657.096.05.198.12.297.179-.532.431-1.053.87-1.547 1.322-3.417 3.142-5.965 6.687-7.715 9.474-1.745 2.787-2.676 4.822-2.734 4.945-.96 2.106-.032 4.592 2.074 5.553 2.105.96 4.591.032 5.552-2.074l-.001-.001c.027-.065 1.49-3.198 4.033-6.667 1.274-1.742 2.817-3.565 4.536-5.127 1.514-1.379 3.16-2.525 4.852-3.322.445-.159.868-.37 1.26-.631.361-.218.677-.482.949-.785.177-.182.342-.375.496-.581.081-.016.198-.033.381-.033.587-.014 1.631.229 2.544.748.928.508 1.69 1.249 2.074 1.913.389.658.835 1.28 1.304 1.883-.426.336-.859.684-1.307 1.064-4.173 3.548-9.185 9.067-12.47 16.957-.889 2.137.122 4.591 2.259 5.48s4.59-.122 5.479-2.259c2.64-6.354 6.72-10.868 10.159-13.791 1.027-.873 1.979-1.585 2.823-2.173 1.04.419 2.124.748 3.249.95.528.095.91.237 1.166.368.389.205.49.347.557.445.057.105.127.218.135.636.004.497-.169 1.475-.941 2.845-.763 1.364-2.111 3.081-4.207 4.941-1.567 1.393-2.266 3.548-1.816 5.596.258 1.164.413 2.65.411 4.358.009 4.114-.9 9.475-2.679 15.088-2.651 8.434-7.246 17.469-13.015 24.464-2.879 3.503-6.039 6.495-9.323 8.719-3.29 2.23-6.673 3.69-10.119 4.289-1.679.291-3.148 1.308-4.014 2.776l-10.262 17.407zm.543 106.095 26.776-47.148c2.684 2.795 5.758 5.214 9.155 7.143 4.578 2.6 9.737 4.31 15.208 4.933 1.486 5.382 3.502 10.639 6.03 15.693.096.192.203.381.3.573zm247.227-18.805c1.52-2.989 2.88-6.042 4.048-9.155.878-2.341 1.642-4.715 2.305-7.115 5.463-.626 10.616-2.336 15.187-4.932 3.397-1.928 6.47-4.347 9.154-7.142l26.776 47.148zm29.159-71.549-10.262-17.408c-.866-1.468-2.335-2.485-4.014-2.776-4.586-.793-9.098-3.14-13.356-6.76-6.382-5.4-11.984-13.624-15.831-22.176-1.93-4.271-3.434-8.616-4.441-12.684-1.009-4.064-1.513-7.858-1.509-10.941-.001-1.71.153-3.194.411-4.352.456-2.066-.235-4.196-1.816-5.601-2.097-1.861-3.444-3.577-4.207-4.941-.772-1.37-.945-2.348-.941-2.845.001-.278.042-.424.077-.518.061-.136.09-.203.312-.379.22-.166.673-.409 1.47-.553 1.125-.202 2.212-.532 3.253-.952.973.678 2.101 1.535 3.302 2.591 3.334 2.931 7.158 7.314 9.677 13.374.889 2.137 3.341 3.149 5.479 2.26 2.137-.89 3.148-3.343 2.26-5.48-3.285-7.891-8.297-13.409-12.47-16.957-.448-.381-.88-.728-1.307-1.064.47-.604.915-1.226 1.305-1.884.383-.663 1.146-1.403 2.072-1.911.486-.276 1.005-.469 1.476-.591.448.67 1.093 1.219 1.896 1.547 1.964.8 3.879 2.122 5.62 3.722 2.615 2.392 4.801 5.381 6.277 7.746.741 1.182 1.308 2.206 1.683 2.92.188.356.327.635.415.817l.095.198.018.039v.001h.001c.96 2.104 3.445 3.034 5.55 2.073 2.105-.96 3.034-3.446 2.074-5.552v-.001c-.078-.164-1.702-3.726-4.752-7.942-1.528-2.108-3.416-4.383-5.696-6.477-.269-.246-.562-.48-.842-.72.407-.323.799-.589 1.166-.78.872-.445 1.659-.647 2.771-.657.828-.001 1.843.138 3.08.5 1.854.538 4.189 1.594 6.931 3.245 2.743 1.648 5.889 3.88 9.425 6.685.946.743 2.197 2.051 3.509 3.78 2.313 3.027 4.834 7.306 7.224 12.071 3.597 7.154 6.946 15.422 9.477 22.576 1.267 3.577 2.33 6.88 3.124 9.612.792 2.714 1.314 4.927 1.478 5.998.435 2.74 1.216 5.859 2.144 9.147 1.392 4.914 3.122 10.13 4.511 14.152.261.755.504 1.45.737 2.109zm135.124 122.634c-.112-.209-.196-.364-.321-.573l-85.078-136.09c-1.704-2.724-5.294-3.549-8.017-1.844-.154.098-.28.224-.433.336-.531-1.481-2.235-6.147-3.967-11.471-.936-2.864-1.885-5.909-2.667-8.732-.797-2.808-1.411-5.42-1.69-7.223-.237-1.523-.657-3.269-1.215-5.378-1.983-7.293-5.895-18.595-10.727-29.394-2.416-5.407-5.07-10.66-7.878-15.229-1.397-2.291-2.849-4.414-4.372-6.328-1.522-1.9-3.1-3.59-4.874-5.002-5.084-4.038-9.638-7.167-13.954-9.388-2.151-1.104-4.26-1.984-6.369-2.599s-4.218-.964-6.341-.964c-2.835-.014-5.67.657-8.157 1.984-.936.475-1.788 1.062-2.626 1.69-1.481-.531-2.989-.768-4.428-.768-1.146 0-2.249.168-3.324.405-6.285-7.125-13.521-13.44-21.539-18.693-14.917-9.78-32.182-15.703-49.948-17.156-1.034-.083-2.109-.083-3.157-.153-8.171-1.117-17.124-.265-27.083-.293-12.683-.042-42.993-20.956-60.048-38.587-4.092-4.233-11.244-1.369-11.509 4.527-.475 10.506 1.634 22.157 3.701 30.721 1.299 5.351-4.106 9.891-9.163 7.74-8.744-3.702-16.3-7.726-21.608-10.785-4.512-2.599-10.155.726-10.071 5.938.224 11.833 4.721 28.067 8.507 35.471.642 1.272 1.662 2.222 2.877 2.822-.308.182-.615.349-.936.545-3.338 1.998-6.844 4.513-10.657 7.544-2.039 1.621-3.813 3.59-5.531 5.84-2.989 3.926-5.755 8.717-8.366 13.901-3.897 7.753-7.389 16.373-10.057 23.917-1.327 3.758-2.459 7.251-3.324 10.241-.866 3.018-1.481 5.448-1.802 7.432-.293 1.928-.978 4.764-1.844 7.796-1.285 4.555-2.961 9.626-4.316 13.51-.67 1.956-1.257 3.605-1.676 4.778-.209.573-.376 1.021-.488 1.342-.14-.112-.28-.238-.433-.336-2.724-1.705-6.3-.88-8.004 1.844l-85.081 136.089c-.14.209-.224.364-.321.573-2.864 5.993-4.219 12.336-4.219 18.58 0 7.921 2.179 15.675 6.258 22.409 4.065 6.734 10.043 12.448 17.572 16.221 6.747 3.381 13.548 6.622 20.881 9.067 7.319 2.431 15.183 4.023 23.829 4.023 8.52 0 17.767-1.551 27.978-5.141h.014l24.318-8.592 16.007-5.644c3.031-1.076 4.623-4.387 3.562-7.419-1.076-3.032-4.4-4.624-7.431-3.548l-40.325 14.236v-.014c-9.149 3.227-16.999 4.485-24.122 4.485-7.221 0-13.744-1.299-20.169-3.422-6.425-2.138-12.724-5.114-19.331-8.425-2.766-1.397-5.224-3.129-7.361-5.127-2.151-1.997-3.981-4.261-5.475-6.72-2.975-4.918-4.582-10.604-4.582-16.388.014-4.47.964-8.997 2.989-13.328l84.868-135.739c.111-.196.181-.392.279-.587.252.196.503.378.782.531l38.16 20.816c.81.447 1.676.643 2.543.685l-66.656 117.367c-1.578 2.794-.615 6.343 2.179 7.921 2.794 1.593 6.341.615 7.934-2.18l17.781-31.322 72.074-23.569c1.718 2.557 3.562 5.058 5.531 7.474-1.131 0-2.277.321-3.269 1.034-2.5 1.802-3.087 5.295-1.285 7.809l71.278 99.402.028.028c1.801 2.445 4.12 4.331 6.663 5.575 2.556 1.243 5.307 1.858 8.073 1.858 2.752 0 5.518-.615 8.059-1.858 2.542-1.244 4.861-3.13 6.663-5.575l79.993-108.105c1.382-1.872 1.425-4.331.28-6.217l67.688 22.144 17.781 31.322c1.592 2.794 5.14 3.772 7.933 2.18 2.794-1.579 3.772-5.127 2.179-7.921l-66.654-117.368c.865-.042 1.732-.238 2.542-.685l38.174-20.816c.279-.154.531-.336.768-.531.098.196.168.392.293.587l84.868 135.739c2.011 4.331 2.975 8.858 2.975 13.328 0 5.784-1.606 11.47-4.582 16.388-2.975 4.918-7.304 9.067-12.836 11.847-6.592 3.311-12.906 6.287-19.331 8.425-6.425 2.124-12.934 3.422-20.156 3.422-7.137 0-14.987-1.257-24.136-4.485l-40.325-14.222c-3.031-1.076-6.355.516-7.417 3.548-1.076 3.032.517 6.343 3.548 7.419l3.213 1.131c-1.355 1.062-2.235 2.697-2.235 4.555v142.349h11.621v-142.348c0-.447-.056-.881-.153-1.299l27.893 9.849c5.112 1.802 9.973 3.088 14.625 3.912 4.651.838 9.093 1.229 13.367 1.229 8.632 0 16.496-1.593 23.829-4.023 7.333-2.445 14.136-5.686 20.868-9.067 7.529-3.772 13.507-9.486 17.586-16.221 4.064-6.734 6.243-14.488 6.258-22.409-.002-6.244-1.37-12.587-4.22-18.58z"/><path d="m15.071 360.918c2.777 0 5.028-2.252 5.028-5.029v-216.94c0-2.778-2.251-5.03-5.028-5.03s-5.029 2.252-5.029 5.03v216.939c0 2.778 2.251 5.03 5.029 5.03z"/><path d="m521.971 149.016c-2.777 0-5.029 2.252-5.029 5.03v216.939c0 2.777 2.251 5.029 5.029 5.029 2.776 0 5.029-2.252 5.029-5.029v-216.939c0-2.778-2.252-5.03-5.029-5.03z"/><path d="m81.544 287.42c2.777 0 5.028-2.252 5.028-5.029v-237.599c0-2.778-2.251-5.03-5.028-5.03s-5.029 2.252-5.029 5.03v237.599c.001 2.777 2.252 5.029 5.029 5.029z"/><path d="m458.274 311.019c2.776 0 5.029-2.252 5.029-5.029v-216.162c0-2.778-2.252-5.03-5.029-5.03s-5.029 2.252-5.029 5.03v216.162c0 2.777 2.251 5.029 5.029 5.029z"/><path d="m256.672 227.947c2.777 0 5.028-2.252 5.028-5.029v-217.888c0-2.778-2.251-5.03-5.028-5.03s-5.029 2.252-5.029 5.03v217.889c0 2.777 2.252 5.028 5.029 5.028z"/><path d="m168.179 195.272c2.776 0 5.029-2.252 5.029-5.029v-147.527c0-2.778-2.252-5.03-5.029-5.03s-5.029 2.252-5.029 5.03v147.526c.001 2.778 2.252 5.03 5.029 5.03z"/><path d="m385.533 242.383c2.776 0 5.029-2.252 5.029-5.029v-147.526c0-2.778-2.252-5.03-5.029-5.03s-5.029 2.252-5.029 5.03v147.526c.001 2.777 2.252 5.029 5.029 5.029z"/><path d="m324.714 227.947c2.777 0 5.028-2.252 5.028-5.029v-147.527c0-2.778-2.251-5.03-5.028-5.03s-5.029 2.252-5.029 5.03v147.528c.001 2.777 2.252 5.028 5.029 5.028z"/></g></svg>