<svg enable-background="new 0 0 284 720" viewBox="0 0 284 720" xmlns="http://www.w3.org/2000/svg"><path d="m51.946 453.122 6.798 215.418h56.306l19.42-173.296 18.226 182.066h57.756l3.733-224.188-83.536-69.945z" fill="#6c859b"/><path d="m226.234 447.641-10.871 3.294c-18.341 14.071-50.398 9.424-68.968-4.337l-15.258-7.818-21.695 12.026c-9.1 6.651-17.516 12.107-28.239 12.107-10.594 0-21.189-3.241-30.22-9.733v-18.607h-39.727c1.294-5.096 1.952-10.351 1.952-15.646v-101.474s0-7.978 0-44.834c0-21.291 6.392-38.671 15.453-52.213 0 0 16.529-18.507 20.631-22.028 4.879-4.188 9.967-7.329 14.796-9.563 6.771-3.142 13.004-4.518 17.365-4.518 30.937-17.444 68.637-17.815 99.911-.984l1.829.984c18.62 0 44.726 10.886 44.726 70.208v83.893 79.656c0 5.297-1.685 29.587-1.685 29.587z" fill="#768fa5"/><path d="m11.251 437.569c-.825 3.251-1.905 6.44-3.24 9.535l-2.265 5.251c-4.132 9.578-2.268 20.694 4.762 28.395l3.639 3.987c8.454 9.261 22.234 11.317 33.016 4.924l2.125-1.259h1.699v-50.831h-39.736z" fill="#ffd7c5"/><path d="m12.21 434.523c-.825 3.251-1.905 6.44-3.24 9.535l-2.265 5.25c-4.132 9.579-2.268 20.695 4.762 28.396l3.639 3.987c8.454 9.261 22.235 11.317 33.016 4.924l2.124-1.259h1.699v-50.831h-39.735z" fill="#ffd7c5"/><path d="m85.003 181.996s-18.016 6.157-18.673 8.29 55.502 75.111 55.502 75.111 5.997 4.679 10.268 4.203c4.272-.476 10.007-7.776 10.007-7.776l59.916-78.161-34.001-13.083c-21.076-14.842-49.559-13.305-68.922 3.719z" fill="#fff"/><path d="m76.995 198.324c-40.754 12.813-49.606 53.38-49.606 73.802v162.393h-15.174c1.294-5.096 1.952-10.351 1.952-15.646v-101.475s0-7.978 0-44.834c0-21.291 6.392-38.671 15.453-52.213 0 0 16.529-18.507 20.631-22.028 4.879-4.188 9.967-7.329 14.796-9.563z" fill="#8aa3b9"/><path d="m200.625 98.457v-7.238c0-32.613-33.971-63.749-70.012-63.749s-70.012 31.135-70.012 63.748v7.347c-12.458 1.144-22.216 11.631-22.216 24.406 0 13.16 10.354 23.896 23.348 24.487 6.171 28.534 36.699 53.357 68.879 53.357 32.17 0 62.688-24.807 68.873-53.328h1.139c13.519 0 24.478-10.976 24.478-24.516.001-13.538-10.959-24.514-24.477-24.514z" fill="#ffd7c5"/><path d="m231.891 204.86c9.405 11.733 26.888 38.76 37.208 82.943 10.321 44.184 14.077 58.382 5.114 68.736s-19.399 19.752-46.294 19.536c-16.677-.133-43.441 0-43.441 0l17.544-151.142z" fill="#768fa5"/><path d="m226.234 199.532 13.42 176.546-109.195-.004s-.211 9.912-19.325 6.612c-19.113-3.3-24.219-18.122-21.666-27.542 2.553-9.421 12.94-22.82 12.94-22.82l-37.361-143.563s20.256-5.176 21.967-3.314c1.712 1.861 72.453 126.192 72.453 126.192l35.307-130.765z" fill="#fff"/><g fill="#231815"><path d="m240.126 683.037c-3.086-3.92-6.643-6.974-10.208-9.344-5.353-3.554-10.723-5.589-14.787-6.765-1.086-.313-2.075-.563-2.951-.765.584-10.807 2.313-43.07 4.043-77.593 1.062-21.205 2.125-43.26 2.922-61.726.399-9.233.731-17.569.965-24.458.233-6.894.367-12.323.368-15.827 0-13.599 0-21.79 0-26.58 0-2.191 0-3.663 0-4.623l7.049-2.198c2.29-.714 3.569-3.152 2.856-5.446s-3.148-3.574-5.437-2.86l-30.493 9.507c-4.52 1.409-9.165 2.1-13.782 2.1-9.946 0-19.761-3.205-27.9-9.346l-9.763-7.366c-2.493-1.882-5.313-3.118-8.231-3.736.006-.095.029-.186.029-.283v-22.385c0-2.402-1.945-4.35-4.343-4.35-2.399 0-4.344 1.947-4.344 4.35v22.385c0 .097.022.188.029.283-2.919.618-5.738 1.854-8.231 3.736l-9.763 7.366c-8.141 6.142-17.956 9.346-27.901 9.346-4.618 0-9.263-.691-13.781-2.1l-12.069-3.764v-163.336c0-2.402-1.945-4.35-4.343-4.35-2.399 0-4.343 1.947-4.343 4.35v144.12h-18.516c-2.399 0-4.344 1.947-4.344 4.35 0 2.402 1.945 4.35 4.344 4.35h18.512v13.72 6.182 24.101c-3.518 2.082-7.393 3.086-11.253 3.087-6.057-.003-12.021-2.478-16.338-7.207l-3.64-3.986c-3.803-4.165-5.795-9.52-5.796-14.954 0-2.966.594-5.95 1.815-8.781l2.265-5.251c3.664-8.496 5.556-17.653 5.556-26.908v-101.482s0-7.971 0-44.825c.009-20.411 6.092-36.888 14.712-49.796 1.335-1.996.801-4.698-1.192-6.034-1.993-1.337-4.691-.803-6.025 1.193-9.491 14.174-16.19 32.466-16.182 54.637v44.825 101.48c0 8.068-1.648 16.051-4.843 23.458l-2.265 5.251c-1.697 3.935-2.527 8.1-2.527 12.231-.001 7.561 2.779 15.026 8.072 20.824l3.639 3.986c6.004 6.579 14.332 10.04 22.749 10.037 3.832.001 7.69-.731 11.361-2.193.062 2.551.149 5.462.259 8.713.816 24.103 2.85 65.978 4.68 101.857 1.442 28.264 2.757 52.783 3.251 61.921-.515.118-1.055.247-1.646.402-5.009 1.324-12.611 4.043-19.638 9.73-3.507 2.843-6.859 6.443-9.57 10.948-2.713 4.502-4.771 9.901-5.746 16.232l-.051.332v5.52c-.002 2.933 1.199 5.628 3.121 7.545 1.915 1.924 4.606 3.128 7.534 3.125h76.548c2.729.001 5.265-1.045 7.153-2.763 1.893-1.713 3.183-4.138 3.449-6.858v.005l4.047-40.514 13.888-141.157 17.925 181.667c.266 2.72 1.556 5.145 3.448 6.858 1.889 1.718 4.425 2.764 7.154 2.763h76.548c2.928.002 5.619-1.201 7.533-3.125 1.921-1.917 3.123-4.612 3.121-7.545v-5.52l-.051-.332c-1.296-8.444-4.534-15.222-8.652-20.441zm-101.524-187.015c-.236-2.39-2.362-4.137-4.749-3.9-.262.026-.512.083-.757.153-.246-.07-.498-.127-.761-.153-2.387-.236-4.513 1.511-4.748 3.902l-16.673 169.461h-48.241c-.639-11.839-2.584-48.133-4.428-85.328-.991-20.001-1.954-40.26-2.668-57.1-.357-8.42-.652-15.985-.857-22.23-.206-6.241-.321-11.178-.32-14.266 0-13.599 0-21.79 0-26.58 0-.095 0-.18 0-.272l9.487 2.958c5.363 1.673 10.88 2.494 16.363 2.494 11.807 0 23.463-3.806 33.127-11.097l9.763-7.366c2.17-1.637 4.736-2.451 7.318-2.452 2.581.002 5.147.815 7.318 2.452l9.763 7.366c9.664 7.291 21.32 11.098 33.127 11.097 5.483 0 11-.821 16.364-2.494l14.758-4.601v1.915 26.58c0 3.295-.131 8.69-.363 15.533-.811 23.975-2.844 65.853-4.673 101.708-.915 17.929-1.778 34.357-2.414 46.303-.317 5.973-.578 10.825-.759 14.183-.023.424-.044.823-.065 1.198h-48.194z"/><path d="m135.168 394.495c0-3.149-2.549-5.703-5.693-5.703s-5.693 2.553-5.693 5.703c0 3.148 2.549 5.702 5.693 5.702s5.693-2.553 5.693-5.702z"/><path d="m103.803 122.972c4.246 0 7.72-3.479 7.72-7.731v-.001c0-4.253-3.474-7.732-7.72-7.732-4.247 0-7.721 3.479-7.721 7.732v.001c0 4.251 3.474 7.731 7.721 7.731z"/><path d="m157.422 122.972c4.246 0 7.72-3.479 7.72-7.731v-.001c0-4.253-3.474-7.732-7.72-7.732-4.247 0-7.721 3.479-7.721 7.732v.001c0 4.251 3.474 7.731 7.721 7.731z"/><path d="m126.611 142.883h8.672c1.095 0 1.983-.889 1.983-1.987 0-1.097-.888-1.986-1.983-1.986h-5.796c-1.364 0-2.613-.765-3.235-1.981l-.52-1.017c-.449-.878-1.773-.558-1.773.428v3.886c0 1.468 1.187 2.657 2.652 2.657z"/><path d="m153.2 90.61h8.445c1.924 0 3.498-1.578 3.498-3.504 0-1.927-1.574-3.505-3.498-3.505h-8.445c-1.924 0-3.499 1.578-3.499 3.505 0 1.926 1.575 3.504 3.499 3.504z"/><path d="m118.863 167.461c1.117 0 2.062-.75 2.36-1.777h18.778c.297 1.025 1.243 1.777 2.361 1.777 1.355 0 2.458-1.104 2.458-2.462v-4.247c0-1.357-1.103-2.461-2.458-2.461-1.116 0-2.061.75-2.36 1.778h-18.777c-.297-1.026-1.243-1.778-2.362-1.778-1.355 0-2.457 1.104-2.457 2.461v4.248c-.001 1.357 1.102 2.461 2.457 2.461z"/><path d="m277.623 304.412c-1.71-6.855-3.676-15.416-6.124-24.778-3.677-14.048-8.436-29.909-15.172-44.758-6.737-14.824-15.434-28.698-27.268-38.646-.004-.003-.008-.006-.011-.01-.009-.008-.018-.016-.027-.024l-.036-.03-.012-.01c-.133-.107-4.454-3.615-11.572-7.721-7.121-4.101-17.036-8.819-28.451-11.243-.065-.014-.128-.01-.193-.021.86-1.007 1.701-2.027 2.503-3.071 4.166-5.425 7.535-11.345 9.872-17.582.612-1.634 1.149-3.292 1.614-4.966 7.05-.519 13.419-3.598 18.118-8.31 5.173-5.175 8.386-12.368 8.384-20.271.002-7.903-3.211-15.096-8.384-20.27-3.23-3.239-7.248-5.71-11.733-7.107v-.812c9.559-1.279 18.908-10.9 18.276-15.353-.726-5.111-16.286-7.383-22.498-20.086h-.018c-.562-1.618-1.157-3.221-1.822-4.788-5.853-13.791-15.596-25.524-27.843-33.83-6.124-4.152-12.878-7.448-20.085-9.706-7.205-2.257-14.864-3.475-22.775-3.474-.098-.238-.386-.225-.832 0h-2.676c-3.302 0-6.552.235-9.75.646-17.374.478-47.952-.001-67.728-7.793-3.413-1.344-7.266.853-7.786 4.488-1.271 8.891 2.18 19.614 5.148 26.775 1.324 3.195-1.601 6.513-4.933 5.602l-5.273-1.441c-3.941-1.077-7.743 2.163-7.28 6.229.794 6.978 2.675 17.461 7.129 28.087 5.357 12.781 10.833 22.678 13.062 26.546-3.317 1.446-6.31 3.497-8.824 6.018-5.173 5.174-8.386 12.367-8.384 20.27-.002 7.903 3.21 15.096 8.384 20.271 4.179 4.191 9.676 7.094 15.801 8.051 1.063 3.893 2.515 7.695 4.34 11.349 3.471 6.942 8.209 13.378 13.872 19.042-.62.12-1.249.256-1.89.411-4.003.973-8.415 2.625-13.049 4.953-4.631 2.328-9.478 5.335-14.287 9.034-1.902 1.463-2.26 4.194-.799 6.099s4.188 2.263 6.09.8c3.527-2.714 7.068-5.002 10.47-6.876 1.415 5.9 4.09 16.571 7.371 29.511 9.995 39.415 25.546 99.616 27.463 107.037l-5.778 6.375c-4.825 5.321-7.278 12.095-7.276 18.868-.002 5.948 1.889 11.936 5.702 16.964l2.046 2.701c4.705 6.209 12.011 9.878 19.784 9.957.009 0 .017 0 .026.001.077.001.153.007.229.007 5.375 0 10.609-1.724 14.934-4.92l2.953-2.182h92.948v59.13c0 2.402 1.945 4.35 4.344 4.35 2.398 0 4.343-1.947 4.343-4.35v-59.13h7.317c.268 0 .534-.012.801-.016.046-.002.089.007.136.003.012-.001.023-.005.035-.006 19.433-.419 36.439-13.338 42.021-32.062 1.042-3.514 1.424-7.332 1.428-11.24-.012-8.008-1.635-16.412-3.68-22.84-.824-2.578-1.719-5.939-2.695-9.852zm-56.825-103.508c.483.341.9.644 1.259.908l13.415 169.913h-87.87l49.858-183.052c5.998 2.167 11.348 4.843 15.605 7.301 3.291 1.897 5.933 3.657 7.733 4.93zm-62.007 96.686-16.179-27.193 37.355-50.553zm30.352-111.435-3.92 14.391c-1.182.114-2.316.695-3.078 1.727l-40.229 54.443v-35.156h-22.915v9.154l-19.637-33.004c9.675 4.583 20.329 7.255 31.248 7.258 9.608-.001 19.021-2.073 27.732-5.691 9.535-3.966 18.237-9.781 25.487-16.846.371 1.593 1.617 2.913 3.32 3.274.67.139 1.333.291 1.992.45zm-121.289-32.553c-2.021-5.396-3.108-10.963-3.108-16.535 0-2.293-1.856-4.151-4.145-4.151s-4.145 1.859-4.145 4.151c0 1.788.118 3.565.3 5.333-3.156-.993-5.977-2.735-8.27-5.028-3.686-3.698-5.953-8.763-5.955-14.4.002-5.636 2.269-10.701 5.955-14.399 1.087-1.087 2.305-2.032 3.608-2.851v13.578h.763c6.935 0 12.557-5.631 12.557-12.576l21.991-21.798c3.359-3.329 9.029-.574 8.497 4.128-.635 5.617 4.646 10.056 10.063 8.468 7.834-2.295 18.477-6.864 27.675-15.879 6.891-6.753 10.776-13.128 13.237-18.934 1.606-3.789 6.891-4.096 8.92-.516 8.84 15.591 25.624 31.477 40.014 38.712v5.819c0 6.945 5.622 12.576 12.557 12.576h.763v-14.808c2.189 1.013 4.178 2.388 5.871 4.08 3.686 3.698 5.953 8.763 5.955 14.399-.002 5.637-2.27 10.702-5.955 14.4-2.84 2.839-6.491 4.825-10.583 5.598.223-1.955.351-3.924.351-5.903 0-2.293-1.856-4.151-4.145-4.151s-4.145 1.859-4.145 4.151c0 7.427-1.935 14.856-5.433 21.862-5.239 10.506-14.016 20.009-24.674 26.816-10.657 6.816-23.146 10.924-35.76 10.919-8.413.001-16.761-1.819-24.556-5.058-5.638-2.339-10.975-5.431-15.826-9.081-.335-.37-.732-.659-1.157-.889-4.741-3.717-8.989-7.971-12.538-12.598-3.707-4.824-6.662-10.041-8.682-15.435zm7.722 56.466c-1.517-6.038-2.771-11.086-3.643-14.686-.288-1.186-.529-2.199-.728-3.05 2.001-.771 3.885-1.369 5.588-1.782 2.146-.523 4.015-.756 5.432-.754.731 0 1.409-.198 2.014-.518l71.378 119.969-3.681 13.514h-24.331-9.623c-4.501 0-8.864 1.227-12.66 3.477-3.028-11.726-10.916-42.299-18.418-71.61-4.208-16.441-8.294-32.483-11.328-44.56zm24.045 162.235-2.047-2.701c-2.638-3.481-3.933-7.587-3.935-11.704.002-4.688 1.684-9.339 5.021-13.021l7.345-8.104c3.065-3.382 7.415-5.311 11.977-5.311h3.975l-12.465 47.018c-3.896-.787-7.424-2.948-9.871-6.177zm28.148-.578-5.251 3.881c-1.184.875-2.477 1.571-3.832 2.096l12.259-46.241h18.621l-10.967 40.263h-10.83zm146.48-25.871c-4.132 13.864-16.035 23.787-30.085 25.578l-12.676-160.551c4.496 5.232 8.501 11.25 12.05 17.764 8.319 15.248 14.143 33.102 18.499 49.205 2.181 8.054 4.001 15.67 5.612 22.336 1.614 6.672 3.006 12.368 4.4 16.731 1.791 5.564 3.277 13.388 3.266 20.184.003 3.314-.354 6.379-1.066 8.753z"/></g></svg>