<svg enable-background="new 0 0 720 631" viewBox="0 0 720 631" xmlns="http://www.w3.org/2000/svg"><path d="m612.132 233.495c0-113.303-109.622-230.261-252.131-230.261s-252.131 116.958-252.131 230.261l244.042 90.95z" fill="#eeeeef"/><path d="m241.168 233.265h-3.183l.069-1.205h3.114c4.039 0 7.344-3.306 7.344-7.346s-3.305-7.346-7.344-7.346h-2.252l.135-2.293h.918c4.039 0 11.286-3.306 11.286-7.346s-7.247-7.346-11.286-7.346h-.056l.135-2.297c4.003-.043 7.266-3.328 7.266-7.342 0-4.04-3.305-7.346-7.344-7.346h-28.23c-4.045 1.993-8.026 6.162-8.026 13.223v26.678c.177 11.405.911 19.271 3.488 24.753 1.015.691 2.17 1.111 3.395 1.111l30.572-1.205c4.039 0 7.344-3.306 7.344-7.346-.001-4.041-3.306-7.347-7.345-7.347z" fill="#ffd7c5"/><path d="m482.216 233.265h3.183l-.07-1.205h-3.113c-4.04 0-7.344-3.306-7.344-7.346s3.305-7.346 7.344-7.346h2.252l-.135-2.293h-.917c-4.04 0-11.286-3.306-11.286-7.346s7.246-7.346 11.286-7.346h.056l-.135-2.297c-4.003-.043-7.266-3.328-7.266-7.342 0-4.04 3.305-7.346 7.344-7.346h28.229c4.045 1.993 8.026 6.162 8.026 13.223v26.678c-.176 11.405-.91 19.271-3.487 24.753-1.016.691-2.17 1.111-3.396 1.111l-30.571-1.205c-4.04 0-7.344-3.306-7.344-7.346-.001-4.041 3.304-7.347 7.344-7.347z" fill="#ffd7c5"/><path d="m427.156 171.762s-25.232-16.441-69.311-16.441c-44.077 0-70.713 23.399-70.713 25.409v51.328h144.195v-44.274z" fill="#768fa5"/><path d="m310.456 164.914s.494 3.999.004 5.585c-.489 1.585 41.313 55.84 41.313 55.84s4.464 3.479 7.643 3.125c3.18-.355 7.449-5.781 7.449-5.781l43.977-59.315-21.579-8.11h-.001c-18.28-11.769-41.65-12.153-60.307-.99z" fill="#fff"/><path d="m459.939 233.495s-2.837-37.062-29.114-56.805-40.323 31.412-52.141 39.203-58.108 4.421-70.55-8.808-21.003-26.355-21.003-26.355-22.166 14.894-24.638 52.764c24.639-1.436 197.446.001 197.446.001z" fill="#768fa5"/><path d="m226.59 154.399c-4.61 0-8.347 3.738-8.347 8.349v19.201h16.695v-19.201c0-4.611-3.738-8.349-8.348-8.349z" fill="#04bf8a"/><path d="m496.793 154.399c-4.61 0-8.348 3.738-8.348 8.349v19.201h16.695v-19.201c0-4.611-3.737-8.349-8.347-8.349z" fill="#04bf8a"/><path d="m602.423 232.399c18.226.584 35.868 6.498 50.76 17.025l32.031 22.644c26.4 18.036 37.662 48.853 28.301 77.444l-6.689 20.429c-11.206 34.226-44.815 58.645-84.401 61.322l-176.602 11.945c-57.149 3.865-114.493 3.865-171.641 0l-176.603-11.945c-39.586-2.677-73.195-27.096-84.402-61.322l-6.689-20.429c-9.362-28.591 1.9-59.408 28.301-77.444l29.869-20.681c17.101-11.841 37.24-18.489 58.028-19.134 38.168-1.184 112.066 1.242 236.042 1.242 129.15 0 206.393-2.29 243.695-1.096z" fill="#78bdc4"/><path d="m174.318 110.516c20.641-23.918 55.115-54.526 90.847-69.59 9.356-3.944 18.703 5.712 14.535 14.972-5.407 12.012-11.451 26.512-16.7 39.441-8.464 20.844-27.917 35.152-50.333 37.006l-26.074 2.157c-12.969 1.073-20.78-14.133-12.275-23.986z" fill="#fff"/><path d="m171.909 348.493c0 27.414-22.219 49.638-49.626 49.638-27.408 0-49.626-22.224-49.626-49.638s22.218-49.637 49.626-49.637c27.407 0 49.626 22.223 49.626 49.637z" fill="#fff00f"/><path d="m645.813 348.493c0 27.414-22.218 49.638-49.625 49.638s-49.626-22.224-49.626-49.638 22.219-49.637 49.626-49.637 49.625 22.223 49.625 49.637z" fill="#fff00f"/><path d="m131.341 335.58c0 8.8-7.132 15.934-15.931 15.934-8.797 0-15.929-7.134-15.929-15.934s7.132-15.934 15.929-15.934c8.799.001 15.931 7.135 15.931 15.934z" fill="#fff"/><ellipse cx="582.21" cy="335.58" fill="#fff" rx="15.93" ry="15.934"/><path d="m284.765 246.197h-135.255c-11.501 0-22.396 4.636-29.686 12.632-1.964 2.154-.601 5.411 2.455 5.868l215.731 32.293c3.028.453 5.485-2.181 4.461-4.781l-2.241-5.692c-.494-1.255-1.715-2.165-3.178-2.371l-134.293-18.82c-4.758-.667-4.442-6.918.364-7.193l81.899-4.699c1.422-.082 2.691-.833 3.337-1.976 1.36-2.409-.588-5.261-3.594-5.261z" fill="#a0e5ec"/><path d="m360.541 363.284v-24.879c0-7.348 5.281-13.632 12.517-14.895l134.892-25.355c1.817-.342 2.457 2.309.685 2.834l-120.685 35.754c-7.766 2.206-13.944 8.098-16.518 15.751l-4.006 11.917c-1.277 3.797-6.885 2.879-6.885-1.127z" fill="#a0e5ec"/><path d="m410.985 99.696v-5.382c0-24.246-25.288-47.393-52.116-47.393-26.827 0-52.115 23.148-52.115 47.393v5.462c-9.273.851-16.537 8.648-16.537 18.145 0 9.783 7.707 17.764 17.38 18.204 4.593 21.212 27.318 39.667 51.271 39.667 23.947 0 46.664-18.442 51.268-39.646h.848c10.063 0 18.221-8.16 18.221-18.225s-8.157-18.225-18.22-18.225z" fill="#ffd7c5"/><g fill="#231815"><path d="m456.76 224.646c.326 1.756 2.014 2.915 3.77 2.589 1.755-.327 2.914-2.014 2.588-3.77-3.638-19.612-11.99-33.87-21.684-43.815-9.698-9.954-20.665-15.616-29.643-18.373-1.707-.523-3.516.436-4.039 2.144-.523 1.707.436 3.516 2.144 4.039h-.001c8.03 2.461 18.076 7.626 26.906 16.702 8.834 9.085 16.526 22.062 19.959 40.484z"/><path d="m338.772 118.818c3.162 0 5.747-2.587 5.747-5.748v-.001c0-3.161-2.585-5.748-5.747-5.748-3.161 0-5.747 2.587-5.747 5.748v.001c0 3.161 2.586 5.748 5.747 5.748z"/><path d="m378.685 107.322c-3.162 0-5.748 2.587-5.748 5.748v.001c0 3.162 2.586 5.748 5.748 5.748 3.16 0 5.746-2.587 5.746-5.748v-.001c0-3.162-2.586-5.748-5.746-5.748z"/><path d="m355.749 133.621h6.456c.816 0 1.476-.661 1.476-1.477 0-.815-.66-1.476-1.476-1.476h-4.315c-1.015 0-1.946-.568-2.408-1.473l-.387-.756c-.334-.653-1.319-.415-1.319.319v2.888c-.001 1.091.883 1.975 1.973 1.975z"/><path d="m286.147 118.818c.002 10.947 8.254 19.953 18.875 21.162.789 2.857 1.859 5.647 3.201 8.33 4.469 8.928 11.748 16.743 20.565 22.378 8.817 5.628 19.208 9.084 29.94 9.088 14.312-.013 28.002-6.13 38.196-15.41 5.098-4.647 9.331-10.102 12.308-16.056 1.341-2.683 2.412-5.473 3.2-8.33 10.622-1.21 18.873-10.215 18.875-21.162-.001-9.249-5.9-17.097-14.132-20.047v-.913c7.116-.951 14.075-8.101 13.605-11.412-.54-3.799-12.123-5.488-16.747-14.932h-.013c-.418-1.203-.861-2.395-1.356-3.56-4.357-10.253-11.61-18.975-20.725-25.151-4.559-3.087-9.586-5.537-14.951-7.215-5.363-1.679-11.064-2.584-16.953-2.583-.073-.177-.287-.167-.62 0h-1.992c-2.456 0-4.874.174-7.254.48-12.931.355-35.695.001-50.419-5.793-2.541-.999-5.409.635-5.796 3.338-.946 6.609 1.623 14.581 3.832 19.905.986 2.375-1.191 4.842-3.673 4.165l-3.924-1.071c-2.934-.801-5.764 1.609-5.419 4.631.591 5.188 1.991 12.981 5.307 20.881 3.867 9.215 7.819 16.416 9.568 19.465-7.9 3.117-13.496 10.802-13.498 19.812zm14.133-13.332v10.602h.568c5.162 0 9.347-4.185 9.347-9.349l16.37-16.206c2.5-2.475 6.721-.426 6.325 3.069-.473 4.176 3.458 7.476 7.491 6.296 5.831-1.706 13.754-5.103 20.601-11.805 5.13-5.02 8.021-9.76 9.853-14.076 1.196-2.817 5.13-3.045 6.639-.384 6.581 11.591 19.074 23.401 29.786 28.78v4.326c0 5.163 4.185 9.349 9.347 9.349h.567v-10.602c1.3.702 2.487 1.588 3.528 2.627 2.744 2.749 4.431 6.515 4.433 10.705-.001 4.19-1.689 7.955-4.433 10.705-1.912 1.909-4.323 3.29-7.019 3.965.151-1.389.245-2.786.245-4.191 0-1.705-1.382-3.086-3.086-3.086-1.705 0-3.086 1.382-3.086 3.086h-.001c.001 5.521-1.44 11.045-4.044 16.253-3.9 7.811-10.434 14.876-18.366 19.936-7.933 5.067-17.229 8.121-26.619 8.118-12.516.013-24.884-5.444-34.04-13.799-4.577-4.17-8.343-9.048-10.945-14.254-2.604-5.209-4.045-10.732-4.044-16.253 0-1.705-1.382-3.086-3.086-3.086-1.705 0-3.086 1.382-3.086 3.086 0 1.405.094 2.802.245 4.191-2.697-.674-5.109-2.055-7.021-3.965-2.744-2.749-4.431-6.515-4.433-10.705.001-4.191 1.689-7.956 4.433-10.705 1.044-1.04 2.232-1.926 3.531-2.628z"/><path d="m346.218 148.752c1.099.683 2.324.656 2.928.093 6.055 2.866 13.107 2.866 19.162 0 .601.559 1.827.594 2.928-.093 1.345-.833 1.831-2.305 1.184-3.075-.659-.822-1.316-1.643-1.975-2.464-.651-.776-1.878-.825-2.802-.254-.768.48-1.202 1.311-1.12 2.113-4.926 2.333-10.666 2.333-15.593.001.082-.805-.351-1.636-1.121-2.114-.926-.574-2.154-.519-2.803.254-.658.821-1.315 1.643-1.973 2.464-.646.77-.158 2.24 1.185 3.075z"/><path d="m375.353 93.09c2.113-.95 4.55-.95 6.663 0 1.378.578 3.176.772 4.257-.173 1.091-.925.35-3.474-2.122-4.581-3.468-1.557-7.465-1.557-10.934 0-2.473 1.106-3.212 3.659-2.122 4.581 1.082.948 2.877.752 4.258.173z"/><path d="m107.87 236.729c1.786 0 3.233-1.448 3.233-3.234-.002-31.691 8.742-63.768 24.551-93.444 15.806-29.675 38.674-56.936 66.831-78.972 1.406-1.1 1.653-3.133.554-4.539-1.1-1.407-3.132-1.654-4.538-.554l-.001-.001c-28.856 22.585-52.301 50.517-68.553 81.024-16.249 30.505-25.31 63.599-25.311 96.485.001 1.787 1.447 3.235 3.234 3.235z"/><path d="m608.899 233.495c0 1.786 1.447 3.234 3.233 3.234s3.233-1.448 3.233-3.234h-.001c-.017-57.708-27.856-116.016-73.619-159.953-45.768-43.933-109.591-73.541-181.744-73.542-50.304-.001-96.576 14.397-135.482 38.004-3.289 1.995-6.527 4.057-9.708 6.181-1.486.991-1.886 2.999-.895 4.486.991 1.486 2.999 1.886 4.485.895 3.104-2.073 6.262-4.085 9.471-6.032 37.968-23.033 83.067-37.066 132.129-37.067 70.356-.001 132.598 28.87 177.267 71.741 44.676 42.869 71.647 99.691 71.631 155.287z"/><path d="m10.104 370.947c5.832 17.811 17.478 33.021 32.731 44.101 15.256 11.083 34.132 18.06 54.525 19.44l176.602 11.945c28.638 1.937 57.338 2.905 86.039 2.905 28.698 0 57.398-.968 86.038-2.905l176.602-11.945c20.392-1.38 39.269-8.357 54.525-19.44 15.253-11.08 26.899-26.291 32.73-44.101l6.689-20.429c2.297-7.023 3.413-14.186 3.413-21.274.004-23.181-11.93-45.489-32.963-59.847l-37.868-25.87c-1.475-1.007-3.487-.628-4.493.847-1.007 1.475-.628 3.487.847 4.494h-.001l37.868 25.87c19.398 13.264 30.14 33.566 30.144 54.507 0 6.409-1.008 12.886-3.093 19.262l-6.689 20.428c-5.375 16.415-16.136 30.527-30.386 40.882-14.247 10.352-31.967 16.923-51.161 18.22l-176.602 11.945c-28.494 1.927-57.049 2.89-85.602 2.89-28.555 0-57.111-.964-85.603-2.89l-176.599-11.946c-19.194-1.297-36.915-7.868-51.161-18.22-14.25-10.355-25.012-24.467-30.387-40.882l-6.689-20.429c-2.087-6.375-3.094-12.851-3.094-19.261.004-20.941 10.747-41.244 30.146-54.506l37.868-25.871c1.474-1.007 1.853-3.019.846-4.494-1.008-1.475-3.019-1.854-4.493-.846l-37.869 25.87c-21.033 14.358-32.968 36.665-32.964 59.847 0 7.088 1.116 14.252 3.416 21.274z"/><path d="m89.336 311.233c-1.267-1.258-3.314-1.251-4.572.017-9.478 9.546-15.342 22.725-15.341 37.243.002 29.201 23.664 52.869 52.859 52.871 29.194-.002 52.856-23.67 52.859-52.871-.002-29.201-23.665-52.869-52.859-52.871-6.134 0-12.034 1.047-17.518 2.974-1.685.591-2.571 2.437-1.98 4.123.591 1.685 2.437 2.571 4.122 1.98h-.001c4.81-1.689 9.979-2.608 15.376-2.608 12.821.001 24.399 5.189 32.804 13.591 8.401 8.407 13.587 19.988 13.589 32.812-.001 12.824-5.188 24.405-13.589 32.812-8.406 8.403-19.983 13.59-32.804 13.591-12.822-.001-24.4-5.189-32.806-13.591-8.4-8.408-13.587-19.988-13.588-32.812.001-12.761 5.136-24.29 13.464-32.687 1.26-1.268 1.252-3.316-.015-4.574z"/><path d="m596.188 401.365c29.194-.002 52.856-23.67 52.858-52.871-.002-29.201-23.664-52.869-52.858-52.871-10.253-.001-19.849 2.927-27.955 7.99-1.515.946-1.977 2.941-1.031 4.456s2.941 1.976 4.456 1.031h-.001c7.119-4.443 15.512-7.008 24.531-7.009 12.821.001 24.399 5.189 32.804 13.591 8.4 8.407 13.586 19.988 13.588 32.812-.001 12.824-5.188 24.405-13.588 32.812-8.406 8.403-19.983 13.59-32.804 13.591-12.821-.001-24.399-5.189-32.805-13.591-8.401-8.408-13.587-19.988-13.589-32.812.001-9.621 2.919-18.533 7.921-25.943.999-1.48.61-3.49-.869-4.489-1.48-1-3.489-.611-4.488.87-5.699 8.434-9.031 18.624-9.029 29.563.002 29.199 23.664 52.867 52.859 52.87z"/><path d="m585.443 233.495c0-1.786-1.448-3.234-3.232-3.234h-58.8v-35.71c-.001-8.461-6.856-15.317-15.315-15.319h-.164c.008-.083.025-.163.025-.248h-.001v-15.91c-.002-5.724-4.637-10.359-10.358-10.36h-1.611c-5.722.002-10.357 4.636-10.359 10.36v15.91c0 .085.017.165.025.248h-2.231l-.045.002c-2.892.114-5.822 1.107-8.184 3.041-1.175.969-2.2 2.188-2.926 3.643-.727 1.452-1.14 3.135-1.138 4.936 0 2.553.807 5.301 2.478 8.174.02.033.046.059.066.091-2.581 1.99-4.253 5.102-4.259 8.61.006 3.256 1.448 6.169 3.717 8.164-2.269 1.994-3.711 4.908-3.717 8.164.004 2.307.73 4.443 1.959 6.204h-106.313c.18-.206.363-.408.529-.632l42.443-57.365c.974-1.317.696-3.173-.62-4.147s-3.172-.697-4.146.619h-.001l-36.965 49.962v-26.586h-8.529-8.528v26.352l-32.306-45.056c-.955-1.331-2.807-1.636-4.137-.681s-1.635 2.807-.68 4.138l37.807 52.729.025.034c.166.225.35.428.531.634h-86.703c.982-.429 1.734-1.328 1.909-2.467 3.023-19.573 10.743-33.294 19.753-42.86 9.008-9.557 19.391-14.944 27.646-17.474 1.707-.523 2.666-2.332 2.143-4.039s-2.331-2.667-4.038-2.144h-.001c-9.229 2.834-20.563 8.739-30.454 19.219-9.889 10.471-18.25 25.534-21.44 46.314-.229 1.486.599 2.882 1.92 3.451h-9.207c1.228-1.761 1.955-3.896 1.959-6.204-.006-3.256-1.448-6.17-3.717-8.164 2.269-1.994 3.711-4.908 3.717-8.164-.006-3.509-1.678-6.621-4.26-8.611.021-.033.048-.06.068-.094 1.664-2.871 2.472-5.617 2.473-8.171.002-1.801-.411-3.483-1.138-4.935-1.091-2.186-2.839-3.824-4.792-4.919-1.96-1.096-4.142-1.683-6.314-1.765l-.044-.002h-2.232c.008-.083.025-.163.025-.248l-.001-15.91c-.002-5.724-4.637-10.359-10.358-10.36h-1.612c-5.722.002-10.356 4.637-10.358 10.36v15.91c0 .085.017.165.025.248h-.164c-8.46.002-15.313 6.857-15.315 15.319v35.71h-68.632c-1.786 0-3.233 1.448-3.233 3.234s1.448 3.234 3.233 3.234h450.869c1.785-.002 3.233-1.45 3.233-3.235zm-94.181-70.421c.001-1.314.524-2.478 1.384-3.342.864-.86 2.028-1.383 3.342-1.384h1.611c1.313.001 2.477.525 3.34 1.384.86.864 1.382 2.028 1.384 3.342v15.91c0 .085.017.165.025.248h-11.111c.008-.083.025-.163.025-.248zm1.172 66.43h-12.141c-1.496-.001-2.845-.606-3.844-1.602-.996-1-1.602-2.349-1.603-3.844.001-1.496.607-2.845 1.603-3.845 1-.996 2.348-1.602 3.844-1.603h12.141c1.5 0 2.716-1.217 2.716-2.717s-1.216-2.717-2.716-2.717h-12.141c-1.496-.001-2.845-.606-3.844-1.602-.996-1-1.602-2.349-1.603-3.844.001-1.496.607-2.845 1.603-3.845 1-.996 2.348-1.602 3.844-1.603h12.141c1.5 0 2.716-1.217 2.716-2.717s-1.216-2.717-2.716-2.717h-12.141c-.585.001-1.155.061-1.715.151-.061-.24-.143-.477-.274-.702-1.304-2.243-1.743-4.049-1.743-5.443.002-.99.213-1.795.567-2.51.53-1.064 1.43-1.953 2.59-2.606 1.147-.648 2.535-1.025 3.837-1.073h19.603 4.936c2.737.001 5.191 1.102 6.988 2.895 1.793 1.797 2.893 4.251 2.895 6.99v35.71h-23.671c-.487-.466-1.144-.756-1.872-.756zm-271.374-66.43c.001-1.314.524-2.478 1.384-3.342.863-.859 2.027-1.382 3.341-1.384h1.612c1.313.001 2.477.525 3.34 1.384.86.864 1.382 2.028 1.384 3.342v15.91c0 .085.017.165.025.248h-11.11c.008-.083.025-.163.025-.248h-.001zm-15.655 31.477c.001-2.738 1.102-5.192 2.894-6.99 1.796-1.793 4.25-2.894 6.988-2.895h4.936 19.6c1.742.058 3.619.725 4.907 1.801.652.538 1.165 1.165 1.52 1.877.354.715.565 1.519.567 2.51.001 1.393-.441 3.201-1.741 5.446-.13.224-.211.46-.272.699-.559-.09-1.129-.15-1.714-.151h-12.14c-1.5 0-2.716 1.216-2.716 2.717 0 1.5 1.216 2.717 2.716 2.717h12.141c1.495.001 2.844.607 3.843 1.603.996 1 1.602 2.349 1.603 3.845-.001 1.496-.607 2.844-1.603 3.844-.999.996-2.348 1.601-3.843 1.602h-12.141c-1.5 0-2.716 1.216-2.716 2.717 0 1.5 1.216 2.717 2.716 2.717h12.141c1.495.001 2.844.607 3.843 1.603.996 1 1.602 2.349 1.603 3.845-.001 1.496-.607 2.844-1.603 3.844-.999.996-2.348 1.601-3.843 1.602h-12.141c-.729 0-1.387.29-1.874.757h-23.671z"/><path d="m228.78 297.554c.282-1.474-.683-2.898-2.155-3.18-17.706-3.395-36.053-7.04-54.162-10.807-1.469-.306-2.908.638-3.213 2.107s.638 2.908 2.107 3.213h-.001c18.143 3.774 36.515 7.424 54.245 10.824 1.473.282 2.896-.684 3.179-2.157z"/><path d="m538.301 285.673c-.305-1.469-1.744-2.412-3.212-2.107h-.001c-69.12 14.38-141.717 26.974-168.962 30.738-5.256.726-9.682 3.748-12.352 7.962-2.669-4.214-7.096-7.236-12.351-7.962-15.041-2.077-43.952-6.853-78.444-13.134-1.477-.269-2.89.71-3.159 2.186s.709 2.89 2.186 3.159h-.001c34.551 6.291 63.475 11.071 78.674 13.171 5.953.822 10.379 5.901 10.379 11.912v66.532c0 1.5 1.216 2.717 2.716 2.717s2.716-1.217 2.716-2.717l-.001-66.525c0-.003.001-.005.001-.007-.001-6.012 4.424-11.089 10.378-11.912 27.491-3.799 100.06-16.393 169.325-30.8 1.47-.305 2.413-1.744 2.108-3.213z"/><path d="m309.843 420.685c13.742.472 30.25.809 47.263.809 25.115-.001 51.309-.732 71.403-2.869 1.491-.159 2.572-1.496 2.414-2.988-.159-1.492-1.496-2.573-2.987-2.415-19.745 2.102-45.83 2.839-70.83 2.838-19.361 0-38.085-.439-52.764-1.014-7.339-.287-13.668-.609-18.549-.926-2.441-.158-4.519-.316-6.174-.466-1.649-.148-2.893-.295-3.568-.41-1.479-.249-2.881.748-3.13 2.228-.249 1.479.748 2.881 2.228 3.13h-.001c.948.159 2.255.307 3.981.464 6.009.544 16.966 1.147 30.714 1.619z"/><path d="m601.278 579.234c-23.121-27.811-57.411-43.897-93.573-43.897h-294.41c-33.739 0-65.964 14.009-88.981 38.683l-10.984 11.775c-16.026 17.179-3.848 45.205 19.641 45.205h454.062c22.765 0 35.212-26.547 20.657-44.054z"/></g></svg>