<!--?xml version="1.0" encoding="utf-8"?-->
<!-- Generator: Adobe Illustrator 25.2.3, SVG Export Plug-In . SVG Version: 6.00 Build 0)  -->
<svg version="1.1" id="_x37_" xmlns="http://www.w3.org/2000/svg" xmlns:xlink="http://www.w3.org/1999/xlink" x="0px" y="0px" viewBox="0 0 720 491" style="enable-background:new 0 0 720 491;" xml:space="preserve">
<style type="text/css">
	.st0{fill:#FFCD45;}
	.st1{fill:#00165F;}
	.st2{fill:#002A73;}
	.st3{fill:#FFF08B;}
	.st4{fill:#FF855F;}
	.st5{fill:#FF946E;}
	.st6{fill:#F77B55;}
	.st7{fill:#E86C46;}
	.st8{fill:#F57B55;}
</style>
<g>
	<g>
		<path class="st0" d="M406.98,283.141c3.863,0,2.243-9.783,2.395-13.802c0.073-1.945-0.325-1.035,0.692-3.339
			c0.402-0.911,1.962-2.145,2.726-2.784c18.088-15.117,29.594-37.848,29.594-63.267c0-45.512-36.886-82.407-82.388-82.407
			c-45.501,0-82.388,36.895-82.388,82.407c0,25.419,11.507,48.151,29.594,63.267c0.764,0.639,2.324,1.872,2.726,2.784
			c1.018,2.304,0.619,1.395,0.693,3.339c0.152,4.019-1.469,13.802,2.395,13.802H406.98z" style="opacity: 1; stroke: none; stroke-width: 7px;"></path>
		<path class="st1" d="M390.425,289.423v-45.274c0.005-3.061-1.276-5.753-3.232-7.615c-1.955-1.868-4.58-2.964-7.349-2.966
			c-1.82-0.002-3.699,0.484-5.421,1.52l-19.859,11.918c-3.328,1.996-5.138,5.517-5.132,9.074c-0.003,2.286,0.746,4.619,2.297,6.566
			l0.604,0.76h0.973v-2.014l-1.577,1.253c2.105,2.654,5.206,3.998,8.271,3.993c3.065,0.005,6.165-1.339,8.271-3.992
			c1.549-1.947,2.298-4.278,2.295-6.566c0.005-3.557-1.804-7.076-5.129-9.072l-19.861-11.919c-1.723-1.035-3.602-1.521-5.421-1.52
			c-2.769,0.002-5.395,1.098-7.349,2.966c-1.955,1.863-3.236,4.554-3.231,7.615v45.274h4.027l-0.001-45.274
			c0.005-1.943,0.777-3.535,1.989-4.705c1.213-1.164,2.871-1.851,4.564-1.848c1.116,0.002,2.25,0.287,3.35,0.946l19.86,11.919
			c2.066,1.241,3.171,3.401,3.175,5.618c-0.003,1.422-0.454,2.84-1.421,4.059c-1.319,1.656-3.202,2.466-5.119,2.471
			c-1.917-0.005-3.8-0.815-5.117-2.47l-0.605-0.761h-0.972v2.014l1.575-1.255c-0.968-1.218-1.419-2.634-1.422-4.056
			c0.005-2.218,1.108-4.378,3.178-5.619l19.86-11.919c1.099-0.658,2.232-0.944,3.348-0.945c1.692-0.002,3.351,0.684,4.565,1.849
			c1.213,1.17,1.985,2.762,1.99,4.705v45.274H390.425L390.425,289.423z" style="opacity: 1; stroke: none; stroke-width: 7px;"></path>
		<path class="st2" d="M406.978,283.138v25.472c0,24.008-19.452,43.464-43.454,43.464h-7.048c-11.209,0-21.438-4.243-29.144-11.225
			c-8.793-7.949-14.31-19.443-14.31-32.239v-25.472H406.978z" style="opacity: 1;"></path>
		<path class="st1" d="M406.978,283.138v25.472c0,24.008-19.452,43.464-43.454,43.464h-7.048c-11.209,0-21.438-4.243-29.144-11.225
			h51.616c8.631,0,16.122-16.945,16.122-16.945h-57.737v-7.599h59.617v-13.522h-59.617v-7.062h60.368l-0.187-12.582H406.978z" style="opacity: 1; stroke: none; stroke-width: 7px;"></path>
	</g>
	<g>
		<path class="st1" d="M277.292,448.453c14.712-12.268,26.936-29.625,32.406-48.16c-1.026-0.283-2.054-0.566-3.081-0.85
			c-2.661,10.52-5.753,24.965-1.198,35.281c2.463,5.581,7.474,7.472,13.267,6c9.784-2.485,13.055-11.306,18.464-18.629
			c1.222-1.655-1.549-3.251-2.759-1.613c-4.847,6.564-7.687,14.956-16.554,17.16c-7.525,1.871-10.244-3.972-10.946-10.434
			c-0.962-8.858,0.635-18.324,2.808-26.916c0.505-1.996-2.498-2.823-3.081-0.85c-5.32,18.028-17.293,34.832-31.584,46.749
			C273.453,447.512,275.723,449.762,277.292,448.453z" style="opacity: 1; stroke: none; stroke-width: 7px;"></path>
		<path class="st1" d="M434.144,403.226c-8.738-8.395-24.343,7.85-26.96,15.679c-1.544,4.621,0.506,9.265,5.838,9.448
			c6.137,0.211,11.078-5.97,14.321-10.4c2.187-2.988,4.13-6.169,5.824-9.462c0.735-1.429,2.124-3.455,1.862-5.151
			c-0.107-0.694-0.897-1.158-1.54-1.172c-1.744-0.041-2.741,2.891-3.351,4.092c-1.662,3.273-3.165,6.779-3.989,10.365
			c-1.413,6.151,0.777,11.175,7.774,8.677c1.923-0.687,1.094-3.775-0.849-3.081c-2.261,0.808-4.12,1.277-4.283-1.6
			c-0.118-2.09,0.713-4.382,1.376-6.329c0.749-2.202,1.678-4.345,2.73-6.419c0.324-0.636,1.101-1.572,1.228-2.265
			c0.228-1.248,1.158-0.205-0.636-0.245c-0.513-0.391-1.026-0.783-1.54-1.174c-0.185-1.201-0.126-0.077-0.499,0.564
			c-0.549,0.943-0.962,1.992-1.476,2.957c-1.328,2.494-2.795,4.921-4.404,7.245c-2.329,3.365-9.314,13.221-14.549,9.598
			c-6.432-4.45,13.717-25.935,20.865-19.068C433.368,406.911,435.631,404.654,434.144,403.226z" style="opacity: 1; stroke: none; stroke-width: 7px;"></path>
		<path class="st1" d="M309.754,389.782c-0.243,0.854-0.486,1.709-0.73,2.564c-0.229,0.802,0.28,1.774,1.116,1.966
			c0.85,0.193,1.721-0.256,1.965-1.116c0.243-0.855,0.486-1.71,0.73-2.564c0.228-0.804-0.279-1.775-1.116-1.966
			C310.869,388.472,309.999,388.922,309.754,389.782z" style="opacity: 1; stroke: none; stroke-width: 7px;"></path>
		<path class="st1" d="M358.011,417.888c-5.423-8.565-15.306-4.881-21.517,0.796c-4.103,3.749-11.625,14.242-2.763,17.239
			c15.286,5.173,25.364-17.354,29.535-27.822c5.148-12.916,8.794-26.662,11.174-40.363c0.349-2.008-2.414-2.824-3.081-0.848
			c-3.888,11.522-7.356,23.237-10.192,35.063c-1.456,6.07-8.65,27.585,0.135,31.217c7.06,2.919,17.179-2.685,22.465-6.817
			c4.637-3.624,12.08-10.662,11.388-17.351c-0.54-5.21-6.408-5.945-10.427-4.104c-5.716,2.62-9.708,9.865-10.066,15.982
			c-0.518,8.873,6.736,11.088,14.306,9.348c9.086-2.089,17.613-8.285,23.97-14.975c1.416-1.49-0.839-3.754-2.259-2.259
			c-4.782,5.033-32.396,24.829-32.866,8.923c-0.157-5.321,3.994-13.316,9.559-14.592c9.7-2.223,0.714,10.548-1.534,12.884
			c-5.161,5.362-12.461,10.059-20.123,10.16c-5.28,0.068-5.128-2.613-4.958-7.201c0.404-10.857,3.693-21.853,6.592-32.254
			c2.168-7.778,4.509-15.523,7.091-23.175c-1.027-0.283-2.054-0.566-3.081-0.848c-1.262,7.262-2.991,14.472-4.96,21.571
			c-3.635,13.113-8.024,28.157-17.312,38.476c-2.642,2.933-11.186,9.449-15.463,5.444c-2.425-2.27,0.815-6.606,2.379-8.551
			c4.229-5.261,14.191-12.319,19.25-4.33C356.35,421.233,359.116,419.632,358.011,417.888z" style="opacity: 1; stroke: none; stroke-width: 7px;"></path>
	</g>
	<g>
		<path class="st3" d="M254.32,142.644c-0.265,0-0.524-0.075-0.75-0.217l-10.198-6.448c-0.317-0.201-0.537-0.513-0.619-0.879
			c-0.083-0.366-0.018-0.742,0.183-1.061c0.259-0.409,0.703-0.655,1.189-0.655c0.265,0,0.525,0.076,0.75,0.218l10.199,6.449
			c0.654,0.413,0.85,1.283,0.437,1.939C255.25,142.399,254.806,142.644,254.32,142.644z" style="opacity: 1;"></path>
		<path class="st3" d="M237.553,132.04c-0.273,0-0.539-0.079-0.768-0.229c-6.609-4.321-13.447-8.56-20.061-12.659
			c-1.821-1.127-3.641-2.256-5.461-3.388c-0.657-0.41-0.859-1.278-0.451-1.937c0.258-0.415,0.705-0.663,1.194-0.663
			c0.262,0,0.518,0.073,0.741,0.213c1.826,1.136,3.653,2.268,5.482,3.402c6.615,4.099,13.454,8.337,20.094,12.679
			c0.315,0.205,0.53,0.521,0.606,0.888c0.077,0.367,0.006,0.743-0.199,1.058C238.469,131.802,238.029,132.04,237.553,132.04z" style="opacity: 1;"></path>
		<path class="st3" d="M204.304,111.143c-0.266,0-0.526-0.076-0.752-0.22c-3.049-1.936-5.828-3.734-8.496-5.5
			c-0.313-0.207-0.527-0.523-0.602-0.891s-0.002-0.742,0.205-1.056c0.26-0.395,0.699-0.63,1.173-0.63
			c0.275,0,0.543,0.08,0.774,0.235c2.564,1.697,5.329,3.486,8.452,5.469c0.654,0.416,0.848,1.287,0.433,1.941
			C205.232,110.9,204.787,111.143,204.304,111.143z" style="opacity: 1;"></path>
		<path class="st3" d="M288.205,117.506c-0.433,0-0.835-0.195-1.103-0.535c-5.449-6.895-11.186-13.773-16.733-20.424
			c-4.269-5.119-8.684-10.411-12.952-15.693c-0.487-0.603-0.393-1.49,0.21-1.977c0.252-0.204,0.557-0.313,0.882-0.313
			c0.428,0,0.825,0.191,1.094,0.523c4.238,5.245,8.636,10.519,12.89,15.617c5.567,6.674,11.322,13.574,16.815,20.525
			c0.233,0.293,0.337,0.662,0.293,1.035c-0.045,0.373-0.23,0.706-0.525,0.939C288.825,117.401,288.524,117.506,288.205,117.506z" style="opacity: 1;"></path>
		<path class="st3" d="M252.58,74.118c-0.423,0-0.819-0.188-1.088-0.515l-15.235-18.554c-0.239-0.29-0.349-0.655-0.313-1.029
			c0.036-0.374,0.217-0.711,0.507-0.949c0.251-0.207,0.567-0.32,0.891-0.32c0.423,0,0.818,0.187,1.087,0.513l15.235,18.556
			c0.239,0.29,0.35,0.655,0.313,1.028c-0.036,0.375-0.216,0.712-0.506,0.95C253.22,74.005,252.903,74.118,252.58,74.118z" style="opacity: 1;"></path>
		<path class="st3" d="M325.435,97.745c-0.599,0-1.133-0.381-1.328-0.948c-3.167-9.193-6.524-18.616-9.77-27.729
			c-4.037-11.333-8.212-23.051-12.035-34.363c-0.247-0.735,0.148-1.532,0.882-1.781c0.146-0.05,0.297-0.075,0.45-0.075
			c0.603,0,1.138,0.385,1.331,0.955c3.813,11.284,7.985,22.997,12.02,34.324c3.247,9.118,6.606,18.543,9.779,27.753
			c0.253,0.733-0.139,1.535-0.871,1.787C325.744,97.718,325.591,97.745,325.435,97.745z" style="opacity: 1;"></path>
		<path class="st3" d="M299.816,24.304c-0.597,0-1.131-0.379-1.328-0.944l-3.239-9.287c-0.124-0.353-0.102-0.735,0.061-1.073
			c0.164-0.338,0.449-0.592,0.803-0.716c0.15-0.052,0.306-0.078,0.464-0.078c0.596,0,1.129,0.378,1.326,0.941l3.24,9.288
			c0.254,0.73-0.134,1.534-0.865,1.79C300.128,24.277,299.973,24.304,299.816,24.304z" style="opacity: 1;"></path>
		<path class="st3" d="M367.043,101.47l-0.181-0.012c-0.372-0.048-0.704-0.237-0.934-0.535c-0.229-0.298-0.329-0.665-0.281-1.038
			c1.17-9.157,2.321-18.318,3.473-27.48l1.791-14.22c0.089-0.701,0.687-1.229,1.391-1.229l0.179,0.012
			c0.768,0.096,1.315,0.8,1.218,1.569l-1.76,13.985c-1.162,9.24-2.323,18.481-3.504,27.72
			C368.345,100.942,367.747,101.47,367.043,101.47z" style="opacity: 1;"></path>
		<path class="st3" d="M373.24,52.383l-0.177-0.012c-0.769-0.098-1.315-0.803-1.218-1.572c1.365-10.752,2.511-19.609,3.603-27.873
			c0.092-0.696,0.69-1.221,1.391-1.221l0.186,0.012c0.768,0.102,1.31,0.811,1.209,1.577c-1.106,8.366-2.249,17.217-3.599,27.857
			C374.545,51.854,373.946,52.383,373.24,52.383z" style="opacity: 1;"></path>
		<path class="st3" d="M378.522,14.974l-0.179-0.012c-0.769-0.098-1.314-0.803-1.216-1.571l1.549-12.162
			c0.089-0.7,0.687-1.229,1.392-1.229l0.179,0.012c0.769,0.099,1.314,0.804,1.217,1.573l-1.549,12.161
			C379.825,14.445,379.226,14.974,378.522,14.974z" style="opacity: 1;"></path>
		<path class="st3" d="M407.9,100.417c-0.218,0-0.428-0.05-0.625-0.148c-0.336-0.166-0.587-0.455-0.706-0.812
			c-0.12-0.356-0.092-0.737,0.075-1.073c2.243-4.505,4.513-8.997,6.785-13.494c4.84-9.577,9.843-19.48,14.55-29.465
			c0.231-0.49,0.73-0.805,1.271-0.805c0.208,0,0.409,0.045,0.598,0.134c0.34,0.16,0.596,0.441,0.723,0.793
			c0.127,0.354,0.11,0.736-0.051,1.076c-4.726,10.028-9.733,19.938-14.576,29.521c-2.275,4.503-4.544,8.994-6.785,13.493
			C408.92,100.118,408.438,100.417,407.9,100.417L407.9,100.417z" style="opacity: 1;"></path>
		<path class="st3" d="M433.741,48.264c-0.211,0-0.414-0.047-0.605-0.138c-0.339-0.162-0.594-0.447-0.719-0.801
			s-0.104-0.735,0.058-1.073l0.592-1.24c3.521-7.362,7.16-14.976,11.155-22.295c0.246-0.452,0.719-0.733,1.234-0.733
			c0.234,0,0.466,0.06,0.672,0.173c0.33,0.179,0.569,0.477,0.675,0.837c0.106,0.36,0.065,0.74-0.115,1.071
			c-3.972,7.274-7.624,14.916-11.155,22.306l-0.523,1.094C434.778,47.95,434.28,48.264,433.741,48.264z" style="opacity: 1;"></path>
		<path class="st3" d="M442.43,122.881c-0.362,0-0.706-0.138-0.968-0.388c-0.562-0.535-0.584-1.426-0.05-1.987l9.779-10.272
			c0.268-0.28,0.629-0.436,1.018-0.436c0.362,0,0.707,0.137,0.969,0.388c0.561,0.534,0.582,1.426,0.048,1.987l-9.778,10.271
			C443.18,122.726,442.819,122.881,442.43,122.881z" style="opacity: 1;"></path>
		<path class="st3" d="M461.572,102.801c-0.365,0-0.711-0.139-0.974-0.392c-0.271-0.261-0.424-0.61-0.431-0.986
			c-0.008-0.375,0.132-0.731,0.392-1.001c3.349-3.484,6.707-6.957,10.067-10.426l1.237-1.277
			c11.112-11.474,22.603-23.338,33.482-35.367c0.267-0.295,0.647-0.463,1.043-0.463c0.349,0,0.683,0.129,0.942,0.363
			c0.278,0.252,0.442,0.598,0.461,0.972c0.019,0.375-0.11,0.736-0.361,1.013c-10.915,12.07-22.406,23.934-33.519,35.409
			l-1.265,1.306c-3.36,3.469-6.716,6.94-10.06,10.419C462.318,102.648,461.958,102.801,461.572,102.801L461.572,102.801z" style="opacity: 1;"></path>
		<path class="st3" d="M458.308,141.817c-0.524,0-1.001-0.287-1.245-0.749c-0.175-0.334-0.211-0.714-0.1-1.072
			c0.111-0.36,0.355-0.653,0.687-0.828c8.815-4.652,18.038-9.243,26.956-13.681c5.706-2.84,11.607-5.776,17.267-8.664
			c0.2-0.102,0.415-0.153,0.637-0.153c0.531,0,1.012,0.293,1.252,0.766c0.171,0.335,0.201,0.715,0.085,1.073
			c-0.115,0.356-0.363,0.647-0.698,0.817c-5.689,2.903-11.606,5.847-17.327,8.696c-8.898,4.429-18.099,9.008-26.862,13.634
			C458.76,141.761,458.534,141.817,458.308,141.817z" style="opacity: 1;"></path>
		<path class="st3" d="M511.693,114.996c-0.536,0-1.018-0.298-1.258-0.777c-0.168-0.336-0.196-0.717-0.077-1.073
			c0.118-0.356,0.369-0.646,0.705-0.813c1.823-0.912,3.668-1.9,5.452-2.854l2.029-1.08c0.205-0.11,0.426-0.164,0.657-0.164
			c0.522,0,0.998,0.286,1.242,0.747c0.363,0.685,0.101,1.538-0.583,1.901l-2.033,1.085c-1.79,0.956-3.641,1.948-5.506,2.879
			C512.124,114.946,511.912,114.996,511.693,114.996z" style="opacity: 1;"></path>
	</g>
	<g>
		<g>
			<path class="st4" d="M245.542,162.851c-1.007,2.43-2.712,4.579-5.034,6.069l-9.343,6.042l-1.101,0.712l-1.154,1.531
				l-13.867,18.368l-0.98,1.303l-0.711,2.148v0.013l-9.223,28.063l-5.625,29.728c0,0,0,0-0.013,0.013l-1.302,6.848l-0.121,0.631
				l-1.208,45.035c-0.443,16.784-5.961,33.031-15.801,46.633L166.406,374.8L107.824,491H0l57.885-99.979
				c10.081-14.891,20.257-40.98,18.566-58.704c-3.772-39.892-10.041-114.521-7.679-150.077
				c2.873-43.182,48.193-105.552,60.315-121.517c1.342-1.786,4.094-1.504,5.061,0.497l0.537,1.115l2.631,5.425
				c1.96,4.042,1.732,8.808-0.617,12.635l-17.049,27.781l-1.946,3.169l-0.376,1.262l-14.565,50.124l-0.725,2.471l3.396,41.087
				c0.148,1.813,1.611,3.236,3.41,3.33l0.242,0.014c1.718,0.107,3.275-1.034,3.705-2.699l14.163-54.34l22.19-47.13l41.938-43.518
				c1.369-1.41,3.705-1.141,4.712,0.537l3.114,5.156c2.779,4.619,2.457,10.473-0.792,14.756l-26.15,34.401l-2.094,2.753
				l-1.141,2.605l-17.827,40.94l-0.362,0.806l-0.121,5.008l-1.061,41.893l1.732,0.926l21.774-59.671l19.613-31.796l2.417-3.988
				l27.64-23.712c1.705-1.464,4.377-0.591,4.873,1.611l1.557,6.982c0.994,4.431-0.362,9.063-3.598,12.245l-16.914,16.703l-0.899,0.9
				l-1.437,3.411l-16.055,38.039l-1.624,3.827l-0.295,2.175l-5.075,36.496l1.289,0.524l22.056-37.382l14.995-12.568l3.101-2.592
				l17.29-9.882c1.745-0.994,3.96-0.027,4.404,1.947C246.804,157.681,246.536,160.421,245.542,162.851z" style="opacity: 1; stroke: none; stroke-width: 7px;"></path>
			<path class="st5" d="M154.254,345.533c2.133-4.262,1.938-9.315-0.531-13.391c-5.855-9.665-11.241-20.678-11.037-28.964
				c0.376-15.274,8.094-47.642,1.789-57.804c-6.304-10.162-25.124-18.366-33.776-21.791s-17.06-19.986-17.06-19.986
				c-1.376-6.775-2.505-34.49-3.257-42.274c-0.753-7.784,14.67-50.691,20.317-58.595c5.647-7.904,18.441-33.417,21.075-32.704
				c2.634,0.713,6.021,2.971,0,9.746c-6.021,6.775-20.338,33.963-24.092,42.387s-10.059,30.454-10.857,43.715
				c-0.798,13.261,4.846,44.873,7.48,48.45c2.634,3.577,11.289,7.827,17.309,4.197c6.021-3.63,8.981-45.836,13.521-55.784
				c4.541-9.948,27.128-59.253,27.128-59.253s26.706-29.734,30.469-30.863c3.763-1.129,3.98,0.376-1.585,7.151
				c-5.565,6.775-19.208,22.248-24.616,32.013s-19.515,44.267-22.057,57.126c-2.542,12.859-3.983,41.463-1.569,47.485
				c2.414,6.022,14.407,8.185,18.194,4.657c3.787-3.528,5.102-8.898,7.643-22.021s19.474-59.04,19.474-59.04
				s11.815-20.507,21.147-27.379s13.848-15.528,13.848-11.012s-2.634,7.193-4.892,10.183c-2.258,2.99-14.299,18.179-17.309,22.629
				c-3.01,4.449-15.803,30.927-17.873,40.271c-2.07,9.344-6.74,44.423-4.781,48.901c1.959,4.478,9.496,0,9.496,0
				s13.157-32.407,16.356-34.288s21.457-22.382,24.181-23.423s13.637-10.665,14.013-7.735c0.376,2.93,0.376,5.389-3.01,7.735
				c-3.387,2.346-7.984,6.403-13.775,11.337c-5.792,4.935-13.319,14.502-17.161,21.821c-4.248,8.091-9.827,26.95-12.891,47.573
				c-4.803,32.326-2.832,50.334-7.348,68.4c-3.669,14.679-12.086,34.914-18.081,37.545c-3.184,1.397-5.912,3.647-7.354,6.811
				c-13.015,28.551-56.3,123.006-60.023,124.584c-4.387,1.86-20.502,1.86-18.642,0C85.728,482.331,139.826,374.357,154.254,345.533z
				" style="opacity: 1;"></path>
			<path class="st6" d="M115.603,239.059c3.042-5.089,8.264-5.379,12.303-2.099c4.04,3.28,8.502,8.448,7.23,13.58
				c-1.272,5.132-10.267,19.048-10.448,22.173s-2.133,6.207-2.133,6.207l5.174,23.075c0,0,10.043,9.424,12.287,24.344
				c2.244,14.919-11.986,31.396-33.6,36.983s-1.355-29.803-1.355-29.803L115.603,239.059z" style="opacity: 1;"></path>
			<path class="st4" d="M128.471,246.937c0.493,2.2,0.466,4.525-0.152,6.778c-0.31,1.176-0.788,2.332-1.433,3.435l-9.703,16.647
				l3.601,34.148l4.2,8.391c9.268,18.537-0.108,40.987-19.81,47.422l-13.877,4.531l-4.748,1.549l0.732-30.13l4.771-65.861
				l19.136-33.619c1.892-3.325,6.03-4.638,9.49-3.014C124.819,239.161,127.551,242.833,128.471,246.937z" style="opacity: 1; stroke: none; stroke-width: 7px;"></path>
			<path class="st7" d="M128.471,246.937c0.493,2.2,0.466,4.525-0.152,6.778c-2.241-6.815-8.097-16.055-9.659-14.508
				c-2.011,1.992-22.442,35.426-22.442,35.426s-3.849,69.645-4.921,93.656h0c-2.318,0.756-4.686-1.008-4.627-3.446l0.611-25.136
				l4.771-65.861l19.136-33.619c1.892-3.325,6.03-4.638,9.49-3.014C124.819,239.161,127.551,242.833,128.471,246.937z" style="opacity: 1;"></path>
			<polygon class="st8" points="119.649,108.174 117.705,111.339 117.334,112.61 110.699,107.314 			" style="opacity: 1;"></polygon>
			<polygon class="st8" points="102.759,162.734 102.044,165.205 102.077,169.008 93.64,163.968 			" style="opacity: 1;"></polygon>
			<polygon class="st8" points="171.964,116.793 169.87,119.549 168.735,122.156 161.1,111.782 			" style="opacity: 1;"></polygon>
			<polygon class="st8" points="150.896,163.096 150.543,163.896 150.413,168.907 138.054,161.322 			" style="opacity: 1;"></polygon>
			<polygon class="st8" points="208.456,130.109 207.558,130.998 206.119,134.41 199.436,124.479 			" style="opacity: 1;"></polygon>
			<path class="st8" d="M190.056,172.453l-1.617,3.821l-0.299,2.173c-4.413-3.205-9.783-7.532-9.783-7.532L190.056,172.453z" style="opacity: 1;"></path>
			<path class="st8" d="M215.041,195.577l-0.978,1.301l-0.714,2.151c-2.062-3.864-3.985-7.98-3.985-7.98L215.041,195.577z" style="opacity: 1;"></path>
			<path class="st8" d="M231.163,174.966l-1.094,0.712l-1.156,1.53c-1.784-3.426-3.295-6.66-3.295-6.66L231.163,174.966z" style="opacity: 1;"></path>
			<path class="st8" d="M197.191,261.132l0.002,2.56c-15.258-1.404-55.36-5.281-56.856-7.461
				C138.5,253.553,196.211,261.073,197.191,261.132z" style="opacity: 1;"></path>
			<path class="st8" d="M87.24,208.988c12.454-2.79,18.839-2.755,18.426-1.679s-0.517,0.609-0.517,0.609s-16.253,2.62-17.581,2.531
				C86.239,210.361,87.24,208.988,87.24,208.988z" style="opacity: 1;"></path>
			<path class="st8" d="M132.888,206.274c6.329,0.283,15.933,2.455,14.138,3.196c-1.796,0.741-14.83-1.241-16.682-1.48
				S128.485,206.078,132.888,206.274z" style="opacity: 1;"></path>
			<path class="st8" d="M165.875,209.679c6.492,0.906,17.171,3.66,16.03,4.407c-1.141,0.746-7.148-0.523-7.148-0.523
				s-9.155-0.726-11.528-1.829S162.646,209.228,165.875,209.679z" style="opacity: 1;"></path>
			<path class="st8" d="M199.988,223.276c-5.46-1.405-11.922-5.985-7.21-4.446c3.881,1.268,6.745,1.081,10.204,3.12
				S201.653,223.704,199.988,223.276z" style="opacity: 1;"></path>
		</g>
		<path class="st5" d="M118.347,255.654c-3.822,6.244-7.648,19.612-7.648,19.612s-0.831,32.076,0,35.348s8.166,23.314,0,38.039
			c-3.258,8.18,3.833,6.953,7.648,0c3.815-6.953,2.266-32.026-3.173-39.266l-1.106-34.121c0,0,8.658-18.642,9.194-21.505
			C123.798,250.898,122.974,248.095,118.347,255.654z" style="opacity: 1;"></path>
		<path class="st7" d="M134.685,62.334c-1.504,1.396-3.329,2.901-5.517,4.512c-14.364,10.581-51.68,94.476-51.68,110.362
			c0,8.384,14.565,96.638,14.565,96.638s0.692,66.913-5.175,82.461C81.844,369.654,24.244,465.22,9.558,491H0l57.885-99.979
			c10.081-14.891,20.257-40.98,18.566-58.704c-3.772-39.892-10.041-114.521-7.679-150.077
			c2.873-43.182,48.193-105.552,60.315-121.517c1.342-1.786,4.094-1.504,5.061,0.497L134.685,62.334z" style="opacity: 1;"></path>
	</g>
	<g>
		<g>
			<path class="st4" d="M474.458,162.851c1.007,2.43,2.712,4.579,5.034,6.069l9.343,6.042l1.101,0.712l1.154,1.531l13.867,18.368
				l0.98,1.303l0.711,2.148v0.013l9.223,28.063l5.625,29.728c0,0,0,0,0.013,0.013l1.302,6.848l0.121,0.631l1.208,45.035
				c0.443,16.784,5.961,33.031,15.801,46.633l13.652,18.811L612.176,491H720l-57.885-99.979
				c-10.081-14.891-20.257-40.98-18.566-58.704c3.772-39.892,10.041-114.521,7.679-150.077
				c-2.873-43.182-48.193-105.552-60.315-121.517c-1.342-1.786-4.094-1.504-5.061,0.497l-0.537,1.115l-2.631,5.425
				c-1.96,4.042-1.732,8.808,0.617,12.635l17.049,27.781l1.946,3.169l0.376,1.262l14.565,50.124l0.725,2.471l-3.396,41.087
				c-0.148,1.813-1.611,3.236-3.41,3.33l-0.242,0.014c-1.718,0.107-3.275-1.034-3.705-2.699l-14.163-54.34l-22.19-47.13
				l-41.938-43.518c-1.369-1.41-3.705-1.141-4.712,0.537l-3.114,5.156c-2.779,4.619-2.457,10.473,0.792,14.756l26.15,34.401
				l2.094,2.753l1.141,2.605l17.827,40.94l0.362,0.806l0.121,5.008l1.061,41.893l-1.732,0.926l-21.774-59.671l-19.613-31.796
				l-2.417-3.988l-27.64-23.712c-1.705-1.464-4.377-0.591-4.874,1.611l-1.557,6.982c-0.994,4.431,0.362,9.063,3.598,12.245
				l16.914,16.703l0.899,0.9l1.437,3.411l16.055,38.039l1.624,3.827l0.295,2.175l5.075,36.496l-1.289,0.524l-22.056-37.382
				l-14.995-12.568l-3.101-2.592l-17.29-9.882c-1.745-0.994-3.96-0.027-4.404,1.947
				C473.196,157.681,473.464,160.421,474.458,162.851z" style="opacity: 1; stroke: none; stroke-width: 7px;"></path>
			<path class="st5" d="M565.746,345.533c-2.133-4.262-1.938-9.315,0.531-13.391c5.855-9.665,11.241-20.678,11.037-28.964
				c-0.376-15.274-8.093-47.642-1.789-57.804c6.305-10.162,25.124-18.366,33.776-21.791s17.06-19.986,17.06-19.986
				c1.376-6.775,2.505-34.49,3.257-42.274s-14.67-50.691-20.317-58.595c-5.647-7.904-18.441-33.417-21.075-32.704
				c-2.634,0.713-6.021,2.971,0,9.746c6.021,6.775,20.338,33.963,24.092,42.387s10.059,30.454,10.857,43.715
				c0.798,13.261-4.846,44.873-7.48,48.45s-11.289,7.827-17.309,4.197s-8.981-45.836-13.521-55.784s-27.128-59.253-27.128-59.253
				s-26.706-29.734-30.469-30.863c-3.763-1.129-3.98,0.376,1.584,7.151c5.565,6.775,19.208,22.248,24.616,32.013
				c5.408,9.765,19.515,44.267,22.057,57.126c2.542,12.859,3.983,41.463,1.569,47.485s-14.407,8.185-18.194,4.657
				c-3.787-3.528-5.102-8.898-7.643-22.021c-2.541-13.123-19.474-59.04-19.474-59.04s-11.815-20.507-21.147-27.379
				s-13.848-15.528-13.848-11.012s2.634,7.193,4.892,10.183s14.299,18.179,17.309,22.629s15.803,30.927,17.873,40.271
				c2.07,9.344,6.74,44.423,4.781,48.901c-1.959,4.478-9.496,0-9.496,0s-13.157-32.407-16.356-34.288s-21.457-22.382-24.181-23.423
				c-2.724-1.041-13.637-10.665-14.013-7.735c-0.376,2.93-0.376,5.389,3.01,7.735c3.387,2.346,7.984,6.403,13.775,11.337
				c5.792,4.935,13.319,14.502,17.161,21.821c4.248,8.091,9.827,26.95,12.891,47.573c4.803,32.326,2.832,50.334,7.348,68.4
				c3.669,14.679,12.086,34.914,18.081,37.545c3.184,1.397,5.912,3.647,7.354,6.811c13.015,28.551,56.3,123.006,60.023,124.584
				c4.387,1.86,20.502,1.86,18.642,0C634.272,482.331,580.174,374.357,565.746,345.533z" style="opacity: 1;"></path>
			<path class="st6" d="M604.397,239.059c-3.042-5.089-8.264-5.379-12.303-2.099c-4.039,3.28-8.502,8.448-7.23,13.58
				c1.272,5.132,10.267,19.048,10.448,22.173s2.133,6.207,2.133,6.207l-5.174,23.075c0,0-10.043,9.424-12.287,24.344
				c-2.244,14.919,11.986,31.396,33.6,36.983s1.355-29.803,1.355-29.803L604.397,239.059z" style="opacity: 1;"></path>
			<path class="st4" d="M591.529,246.937c-0.493,2.2-0.466,4.525,0.151,6.778c0.31,1.176,0.788,2.332,1.433,3.435l9.703,16.647
				l-3.601,34.148l-4.2,8.391c-9.268,18.537,0.108,40.987,19.81,47.422l13.877,4.531l4.748,1.549l-0.732-30.13l-4.771-65.861
				l-19.136-33.619c-1.892-3.325-6.03-4.638-9.49-3.014C595.181,239.161,592.449,242.833,591.529,246.937z" style="opacity: 1; stroke: none; stroke-width: 7px;"></path>
			<path class="st7" d="M591.529,246.937c-0.493,2.2-0.466,4.525,0.151,6.778c2.241-6.815,8.097-16.055,9.659-14.508
				c2.011,1.992,22.442,35.426,22.442,35.426s3.849,69.645,4.921,93.656l0,0c2.318,0.756,4.686-1.008,4.627-3.446l-0.611-25.136
				l-4.771-65.861l-19.136-33.619c-1.892-3.325-6.03-4.638-9.49-3.014C595.181,239.161,592.449,242.833,591.529,246.937z" style="opacity: 1;"></path>
			<polygon class="st8" points="600.351,108.174 602.295,111.339 602.666,112.61 609.301,107.314 			" style="opacity: 1;"></polygon>
			<polygon class="st8" points="617.241,162.734 617.956,165.205 617.923,169.008 626.36,163.968 			" style="opacity: 1;"></polygon>
			<polygon class="st8" points="548.036,116.793 550.13,119.549 551.265,122.156 558.9,111.782 			" style="opacity: 1;"></polygon>
			<polygon class="st8" points="569.104,163.096 569.457,163.896 569.587,168.907 581.946,161.322 			" style="opacity: 1;"></polygon>
			<polygon class="st8" points="511.544,130.109 512.442,130.998 513.881,134.41 520.564,124.479 			" style="opacity: 1;"></polygon>
			<path class="st8" d="M529.944,172.453l1.617,3.821l0.299,2.173c4.413-3.205,9.783-7.532,9.783-7.532L529.944,172.453z" style="opacity: 1;"></path>
			<path class="st8" d="M504.959,195.577l0.978,1.301l0.714,2.151c2.062-3.864,3.985-7.98,3.985-7.98L504.959,195.577z" style="opacity: 1;"></path>
			<path class="st8" d="M488.837,174.966l1.094,0.712l1.156,1.53c1.784-3.426,3.295-6.66,3.295-6.66L488.837,174.966z" style="opacity: 1;"></path>
			<path class="st8" d="M522.809,261.132l-0.002,2.56c15.258-1.404,55.359-5.281,56.856-7.461
				C581.5,253.553,523.789,261.073,522.809,261.132z" style="opacity: 1;"></path>
			<path class="st8" d="M632.76,208.988c-12.454-2.79-18.839-2.755-18.426-1.679c0.413,1.076,0.517,0.609,0.517,0.609
				s16.253,2.62,17.581,2.531S632.76,208.988,632.76,208.988z" style="opacity: 1;"></path>
			<path class="st8" d="M587.112,206.274c-6.329,0.283-15.933,2.455-14.138,3.196c1.796,0.741,14.83-1.241,16.682-1.48
				C591.509,207.751,591.515,206.078,587.112,206.274z" style="opacity: 1;"></path>
			<path class="st8" d="M554.125,209.679c-6.492,0.906-17.171,3.66-16.03,4.407c1.141,0.746,7.148-0.523,7.148-0.523
				s9.155-0.726,11.528-1.829C559.144,210.631,557.354,209.228,554.125,209.679z" style="opacity: 1;"></path>
			<path class="st8" d="M520.012,223.276c5.46-1.405,11.922-5.985,7.21-4.446c-3.881,1.268-6.745,1.081-10.204,3.12
				S518.347,223.704,520.012,223.276z" style="opacity: 1;"></path>
		</g>
		<path class="st5" d="M601.653,255.654c3.822,6.244,7.648,19.612,7.648,19.612s0.831,32.076,0,35.348
			c-0.831,3.272-8.166,23.314,0,38.039c3.258,8.18-3.833,6.953-7.648,0c-3.815-6.953-2.266-32.026,3.173-39.266l1.106-34.121
			c0,0-8.658-18.642-9.194-21.505C596.202,250.898,597.026,248.095,601.653,255.654z" style="opacity: 1;"></path>
		<path class="st7" d="M585.315,62.334c1.504,1.396,3.329,2.901,5.517,4.512c14.364,10.581,51.68,94.476,51.68,110.362
			c0,8.384-14.565,96.638-14.565,96.638s-0.692,66.913,5.175,82.461c5.034,13.347,62.634,108.912,77.32,134.692H720l-57.885-99.979
			c-10.081-14.891-20.257-40.98-18.566-58.704c3.772-39.892,10.041-114.521,7.679-150.077
			c-2.873-43.182-48.193-105.552-60.315-121.517c-1.342-1.786-4.094-1.504-5.061,0.497L585.315,62.334z" style="opacity: 1;"></path>
	</g>
</g>
</svg>
