<!--?xml version="1.0" encoding="utf-8"?-->
<!-- Generator: Adobe Illustrator 25.2.3, SVG Export Plug-In . SVG Version: 6.00 Build 0)  -->
<svg version="1.1" id="_x31_7" xmlns="http://www.w3.org/2000/svg" xmlns:xlink="http://www.w3.org/1999/xlink" x="0px" y="0px" viewBox="0 0 720 481" style="enable-background:new 0 0 720 481;" xml:space="preserve">
<style type="text/css">
	.st0{fill:#FF9F73;}
	.st1{fill:#C4D7D1;}
	.st2{fill:#10436D;}
	.st3{fill:#063963;}
	.st4{fill:#00254F;}
	.st5{fill:#154872;}
	.st6{fill:#FFD245;}
	.st7{fill:#080808;}
	.st8{fill:#B0C3BD;}
	.st9{fill:#38AB5C;}
	.st10{fill:#4CBF70;}
	.st11{fill:#47BA6B;}
	.st12{fill:#F9ECE6;}
	.st13{fill:#FFD74A;}
	.st14{fill:#FACD40;}
	.st15{fill:#C89B0E;}
	.st16{fill:#FFBEBF;}
	.st17{fill:#FFFFFF;}
	.st18{fill:#001373;}
	.st19{fill:#D8EBE5;}
	.st20{fill:#050505;}
	.st21{fill:#EFE2DC;}
.st22{fill:#000000;}</style>
<g>
	<rect x="628.796" y="304.301" class="st0" width="17.318" height="174.961" style="opacity: 1;"></rect>
	<rect x="599.719" y="463.805" class="st1" width="72.043" height="17.195" style="opacity: 1;"></rect>
	<rect x="560.266" y="297.464" class="st1" width="157.81" height="18.863" style="opacity: 1;"></rect>
	<path class="st2" d="M50.178,209.93v99.424c0,12.92,10.476,23.393,23.4,23.393H494.78c12.924,0,23.401-10.473,23.401-23.393V209.93
		c0-12.92-10.477-23.393-23.401-23.393H73.578C60.654,186.536,50.178,197.01,50.178,209.93z" style="opacity: 1;"></path>
	<polygon class="st3" points="52.861,247.896 88.253,315.711 64.658,315.711 	" style="opacity: 1;"></polygon>
	<polygon class="st3" points="515.468,247.896 480.076,315.711 503.671,315.711 	" style="opacity: 1;"></polygon>
	<polygon class="st4" points="59.679,418.85 59.679,481 75.5,481 84.541,418.85 	" style="opacity: 1;"></polygon>
	<polygon class="st4" points="508.681,418.85 508.681,481 492.858,481 483.817,418.85 	" style="opacity: 1;"></polygon>
	<rect x="50.178" y="313.551" class="st3" width="468.003" height="50.686" style="opacity: 1;"></rect>
	<rect x="50.178" y="319.1" class="st5" width="468.003" height="50.686" style="opacity: 1;"></rect>
	<rect x="50.178" y="330.798" class="st3" width="468.003" height="50.686" style="opacity: 1;"></rect>
	<path class="st2" d="M545.009,246.134l-11.888-0.383c-12.381-0.4-23.053,8.641-24.69,20.918l-11.701,109.169H71.628L59.928,266.668
		c-1.638-12.277-12.31-21.318-24.69-20.918l-11.888,0.383c-14.306,0.461-25.066,13.201-23.123,27.378l16.05,139.154
		c1.547,11.291,11.196,19.707,22.595,19.707h490.613c11.4,0,21.048-8.415,22.595-19.707l16.05-139.154
		C570.074,259.335,559.314,246.595,545.009,246.134z" style="opacity: 1;"></path>
	<path class="st6" d="M232.366,447.726c0,10.239,0,22.841-4.727,27.567c-4.727,4.726-43.331,6.301-53.573,5.513
		c-10.242-0.787,26.787-31.504,26.787-31.504L232.366,447.726z" style="opacity: 1;"></path>
	<path class="st6" d="M333.197,447.726c0,10.239,0,22.841,4.727,27.567c4.727,4.726,43.331,6.301,53.573,5.513
		c10.242-0.787-26.787-31.504-26.787-31.504L333.197,447.726z" style="opacity: 1;"></path>
	<polygon class="st6" points="281.961,259.33 194.631,268.362 197.04,299.671 366.88,299.671 369.289,268.362 	" style="opacity: 1;"></polygon>
	<rect x="213.385" y="283.261" class="st22" width="137.053" height="69.191" style="opacity: 1;"></rect>
	<path class="st7" d="M193.328,309.326c-27.137,23.21,0,142.202,0,142.202h39.088l6.899-109.9l37.041-44.258
		C276.356,297.37,216.445,289.554,193.328,309.326z" style="opacity: 1;"></path>
	<path class="st7" d="M370.495,309.326c27.138,23.21,0,142.202,0,142.202h-39.088l-6.899-109.9l-37.041-44.258
		C287.468,297.37,347.378,289.554,370.495,309.326z" style="opacity: 1;"></path>
	<rect x="209.855" y="289.994" class="st8" width="144.21" height="8.522" style="opacity: 1;"></rect>
	<path class="st9" d="M645.466,235.604c-12.442-5.688-18.292-19.578-14.27-28.35c4.022-8.773,1.871-14.621-1.259-19.009
		c-3.129-4.386-4.914-7.676,0-13.89c4.915-6.214,0.893-12.063,1.99-19.373c1.097-7.311,3.29-13.89,9.507-14.987
		c6.215-1.096,14.857,13.159,17.118,21.2C660.812,169.238,662.295,234.344,645.466,235.604z" style="opacity: 1;"></path>
	<path class="st9" d="M654.054,253.073c-4.364-8.68-5.831-33.275,2.076-40.428c7.907-7.153,7.32-15.616,7.056-21.501
		c-0.264-5.886,1.41-13.362,9.013-19.156c7.603-5.793,11.372-12.258,11.711-16.737c0.338-4.478,18.799-20.691,29.285-17.632
		c10.487,3.059,7.148,28.364,1.366,34.921c-5.783,6.557-9.464,9.66-9.48,17.151c-0.017,7.49-5.939,16.157-10.013,19.528
		c-4.074,3.372-8.036,10.694-6.811,15.607c1.224,4.912-0.26,10.061-4.562,17.421c-4.303,7.361-10.389,15.278-17.155,17.334
		C659.772,261.636,654.054,253.073,654.054,253.073z" style="opacity: 1;"></path>
	<path class="st10" d="M649.401,241.69c-7.069-8.03-14.881-33.321-7.813-42.619c7.069-9.298,4.288-17.981,2.516-24.053
		s-1.772-14.255,5.297-22.065c7.069-7.811,9.673-15.426,8.929-20.173c-0.744-4.746,15.881-25.946,28.402-25.202
		c12.521,0.744,15.125,27.894,10.288,36.076c-4.836,8.182-8.185,12.273-6.324,20.084c1.86,7.811-2.604,18.224-6.325,22.688
		c-3.72,4.462-6.325,13.017-3.72,17.852c2.604,4.834,2.232,10.546-0.745,19.22c-2.976,8.674-7.812,18.344-14.881,22.064
		C657.958,249.282,649.401,241.69,649.401,241.69z" style="opacity: 1;"></path>
	<path class="st11" d="M659.159,240.288c-3.955-10.448,12.085-108.387,28.544-128.498c3.513-2.599,8.622,9.925,8.622,18.281
		c0,8.358-4.441,17.237-6.531,21.156c-2.09,3.917-2.352,9.925-1.568,14.103c0.784,4.178-3.918,19.588-7.837,24.028
		s-4.51,9.736-2.646,15.577c1.863,5.84,0.295,17.759-2.056,23.292c-2.351,5.532-10.188,16.719-13.062,15.695
		C659.75,242.899,659.159,240.288,659.159,240.288z" style="opacity: 1;"></path>
	<path class="st12" d="M685.203,242.216l-8.708,54.673h-33.419l-8.708-54.673c-0.311-1.952,1.198-3.72,3.176-3.72h44.481
		C684.005,238.496,685.514,240.264,685.203,242.216z" style="opacity: 1;"></path>
	<path class="st6" d="M394.779,163.403c-39.97-64.549-112.682-62.09-112.682-62.09s-72.711-2.459-112.681,62.09
		c-37.913,61.229-15.807,117.418,25.212,114.96h174.939C410.586,280.821,432.693,224.631,394.779,163.403z" style="opacity: 1;"></path>
	<path class="st13" d="M190.23,153.886c8.494-17.876,43.811-33.91,49.622-33.938c5.811-0.027-9.389,12.934,0,13.381
		c9.387,0.447,17.434,2.234,12.517,8.491c-4.918,6.257-8.941,13.855-1.789,12.067c7.153-1.787,14.753,0.894,10.729,6.257
		c-4.023,5.364-4.47,9.833,1.118,9.833c5.588,0,11.846,2.235,6.482,6.257s-49.174,27.262-54.092,28.155
		c-4.918,0.894,9.065-15.627-1.95-14.517c-11.014,1.111-15.485-4.699-11.014-10.063c4.47-5.363,4.917-10.726-3.13-8.044
		c-8.046,2.681-10.729,0-6.259-6.704c4.471-6.704,6.259-6.257,0-5.363C186.206,160.589,190.23,153.886,190.23,153.886z" style="opacity: 1;"></path>
	<path class="st14" d="M333.585,267.409c4.257-7.371,6.061-10.449,14.524-6.966c8.461,3.483,11.448,0.498,14.932-3.981
		c3.485-4.479,2.987-6.966,9.955-6.47c6.969,0.498,14.932-7.961,12.444-13.434s1.494-10.451,4.48-11.943
		c2.987-1.493,4.48-9.471,0-11.453c-4.48-1.983-5.475-9.787-1.991-11.607c3.484-1.821,2.489-11.597,0-11.685
		c-2.489-0.088,4.978-6.059,8.96-5.065c3.982,0.996,12.941,27.369,12.941,40.307s-2.489,27.368-12.444,37.321
		c-9.955,9.951-25.385,14.43-29.865,14.43c-4.48,0-33.935,0-33.935,0V267.409z" style="opacity: 1;"></path>
	<path class="st15" d="M188.79,210.081c-1.682,3.363-2.905,7.491-2.907,11.841c-0.001,3.156,0.653,6.434,2.262,9.551
		c2.411,4.684,6.961,8.941,14.37,11.974c7.414,3.039,17.701,4.904,31.81,4.906c0.72,0,1.304-0.585,1.304-1.304
		c0-0.72-0.584-1.303-1.304-1.303c-18.512,0.004-30.05-3.296-36.836-7.873c-3.398-2.29-5.625-4.885-7.025-7.595
		c-1.398-2.711-1.971-5.554-1.973-8.356c-0.002-3.854,1.103-7.625,2.632-10.672c0.322-0.644,0.062-1.428-0.582-1.75
		c-0.645-0.323-1.428-0.062-1.75,0.582L188.79,210.081z" style="opacity: 1;"></path>
	<path class="st15" d="M373.073,211.249c1.529,3.049,2.631,6.818,2.629,10.672c-0.001,2.802-0.575,5.646-1.973,8.357
		c-2.099,4.059-6.065,7.888-13.041,10.756c-6.971,2.863-16.939,4.712-30.817,4.711c-0.721,0-1.304,0.583-1.304,1.304
		c0,0.721,0.583,1.304,1.304,1.304c18.806-0.005,30.836-3.311,38.289-8.317c3.721-2.502,6.281-5.444,7.888-8.563
		c1.609-3.118,2.263-6.394,2.262-9.551c-0.002-4.349-1.223-8.477-2.904-11.839c-0.323-0.644-1.106-0.905-1.75-0.582
		c-0.645,0.322-0.905,1.105-0.582,1.75L373.073,211.249z" style="opacity: 1;"></path>
	<path class="st16" d="M314.266,33.54c0,0,0,32.066,0,49.618c0,17.55-11.141,36.79-35.788,36.79s-35.788-19.239-35.788-36.79
		c0-17.552,0-49.618,0-49.618H314.266z" style="opacity: 1;"></path>
	<path class="st16" d="M255.857,72.356c0,6.711-5.441,12.152-12.154,12.152s-12.154-5.441-12.154-12.152
		c0-6.71,5.441-12.151,12.154-12.151S255.857,65.645,255.857,72.356z" style="opacity: 1;"></path>
	<path class="st16" d="M324.732,72.356c0,6.711-5.441,12.152-12.154,12.152c-6.713,0-12.154-5.441-12.154-12.152
		c0-6.71,5.441-12.151,12.154-12.151C319.29,60.205,324.732,65.645,324.732,72.356z" style="opacity: 1;"></path>
	<path class="st22" d="M289.62,51.092c-4.28-0.353-7.118-1.812-8.903-3.212c-1.509-1.186-3.662-0.913-4.946,0.513
		c-3.101,3.442-9.689,8.34-22.278,8.775c-19.582,0.675-31.399-15.527-29.711-33.079c1.688-17.55,18.232-27.001,35.113-23.289
		s19.582,10.657,21.946,13.767c2.363,3.11,6.415-5.666,20.932,0c10.664,4.162,9.453,9.86,14.18,10.198
		c4.727,0.337,11.141-4.051,12.492-5.401c5.739,12.826-6.753,30.377-18.232,32.402c-7.17,1.266-10.783,0.028-12.487-1.079
		c-0.987-0.642-2.208-0.74-3.308-0.322C293.207,50.827,291.519,51.248,289.62,51.092z" style="opacity: 1;"></path>
	<ellipse class="st17" cx="265.653" cy="72.356" rx="9.205" ry="9.203" style="opacity: 1;"></ellipse>
	<path class="st18" d="M274.858,72.356h-1.304c-0.001,2.185-0.883,4.152-2.314,5.586c-1.434,1.43-3.401,2.311-5.587,2.313
		c-2.187-0.001-4.153-0.883-5.587-2.313c-1.431-1.434-2.313-3.4-2.314-5.586c0.001-2.184,0.883-4.152,2.314-5.584
		c1.434-1.431,3.401-2.313,5.587-2.314c2.185,0.001,4.152,0.883,5.587,2.314c1.431,1.433,2.313,3.4,2.314,5.584H274.858h1.304
		c-0.001-5.802-4.704-10.505-10.509-10.507c-5.806,0.001-10.509,4.704-10.51,10.507c0.001,5.803,4.704,10.505,10.51,10.507
		c5.804-0.001,10.508-4.703,10.509-10.507H274.858z" style="opacity: 1;"></path>
	<ellipse class="st17" cx="291.303" cy="72.356" rx="9.205" ry="9.203" style="opacity: 1;"></ellipse>
	<path class="st18" d="M300.508,72.356h-1.304c-0.001,2.185-0.883,4.152-2.314,5.586c-1.434,1.43-3.401,2.311-5.587,2.313
		c-2.186-0.001-4.153-0.883-5.587-2.313c-1.432-1.434-2.313-3.4-2.315-5.586c0.001-2.184,0.883-4.15,2.315-5.584
		c1.434-1.431,3.401-2.313,5.587-2.314c2.185,0.001,4.152,0.883,5.587,2.314c1.431,1.433,2.313,3.4,2.314,5.584H300.508h1.304
		c-0.001-5.802-4.704-10.505-10.509-10.507c-5.805,0.001-10.509,4.704-10.51,10.507c0.001,5.803,4.705,10.505,10.51,10.507
		c5.804-0.001,10.508-4.703,10.509-10.507H300.508z" style="opacity: 1;"></path>
	<polyline class="st18" points="274.858,73.66 282.098,73.66 282.098,71.052 274.858,71.052 	" style="opacity: 1;"></polyline>
	<polygon class="st1" points="354.516,289.994 209.404,289.994 201.292,205.806 362.629,205.806 	" style="opacity: 1;"></polygon>
	<path class="st19" d="M362.629,205.806H201.292v-4.032c0-1.468,1.192-2.66,2.661-2.66h156.014c1.469,0,2.661,1.192,2.661,2.66
		V205.806z" style="opacity: 1;"></path>
	<path class="st20" d="M226.828,31.371c-1.13-4.683-0.084-11.066,1.991-14.351c2.076-3.286,2.768-6.398,6.227-8.991
		c3.459-2.594,5.104-3.79,8.657-4.669c4.141-1.024,5.18-1.383,9.33-0.865c4.152,0.52,8.475,4.322,5.708,5.707
		c-2.768,1.383-7.092,1.92-3.978,4.678c3.113,2.757,1.21,7.426-3.287,7.08c-4.497-0.345-7.783,0.173-5.707,4.322
		c2.075,4.15,1.921,8.128-2.066,7.436s-6.236-2.751-5.371,1.822c0.864,4.575,1.902,8.379-3.113,8.205
		C230.202,41.573,227.593,34.54,226.828,31.371z" style="opacity: 1;"></path>
	<path class="st21" d="M681.438,243.921l-7.629,48.007h-11.238c0,0,5.245-3.208,3.247-6.203c-1.998-2.997-3.497-5.493-1.249-7.74
		c2.248-2.247,7.969-6.741,4.484-7.739c-3.485-0.998-5.233-7.026-2.486-8.131c2.747-1.107,4.972-5.102,2.486-6.1
		c-2.486-0.998-1.51-5.493,0-6.741c1.51-1.248,0-5.285,0-5.285L681.438,243.921z" style="opacity: 1;"></path>
</g>
</svg>
